<?xml version="1.0" standalone="no"?>
<!DOCTYPE svg PUBLIC "-//W3C//DTD SVG 1.1//EN" "http://www.w3.org/Graphics/SVG/1.1/DTD/svg11.dtd">
<svg width="523mm" height="242mm" viewBox="-1 -241 523 242" xmlns="http://www.w3.org/2000/svg" version="1.1">
<title>OpenSCAD Model</title>
<path d="
M 141.187,-104.16 L 149.615,-104.16 L 149.615,-100.16 L 158.642,-100.16 L 158.642,-104.16 L 167.069,-104.16
 L 167.069,-100.16 L 176.096,-100.16 L 176.096,-104.16 L 184.524,-104.16 L 184.524,-100.16 L 193.551,-100.16
 L 193.551,-104.16 L 201.978,-104.16 L 201.978,-100.16 L 211.005,-100.16 L 211.005,-104.16 L 219.433,-104.16
 L 219.433,-100.16 L 228.46,-100.16 L 228.46,-104.16 L 236.46,-104.16 L 236.46,-116.16 L 240.46,-116.16
 L 240.46,-124.768 L 236.46,-124.768 L 236.46,-132.775 L 240.46,-132.775 L 240.46,-141.383 L 236.46,-141.383
 L 236.46,-149.391 L 240.46,-149.391 L 240.46,-157.998 L 236.46,-157.998 L 236.46,-166.006 L 240.46,-166.006
 L 240.46,-174.614 L 236.46,-174.614 L 236.46,-182.622 L 240.46,-182.622 L 240.46,-191.229 L 236.46,-191.229
 L 236.46,-199.237 L 240.46,-199.237 L 240.46,-207.845 L 236.46,-207.845 L 236.46,-215.852 L 240.46,-215.852
 L 240.46,-224.46 L 236.46,-224.46 L 236.46,-236.46 L 228.46,-236.46 L 228.46,-240.46 L 219.433,-240.46
 L 219.433,-236.46 L 211.005,-236.46 L 211.005,-240.46 L 201.978,-240.46 L 201.978,-236.46 L 193.551,-236.46
 L 193.551,-240.46 L 184.524,-240.46 L 184.524,-236.46 L 176.096,-236.46 L 176.096,-240.46 L 167.069,-240.46
 L 167.069,-236.46 L 158.642,-236.46 L 158.642,-240.46 L 149.615,-240.46 L 149.615,-236.46 L 141.187,-236.46
 L 141.187,-240.46 L 132.16,-240.46 L 132.16,-236.46 L 124.16,-236.46 L 124.16,-224.46 L 120.16,-224.46
 L 120.16,-215.852 L 124.16,-215.852 L 124.16,-207.845 L 120.16,-207.845 L 120.16,-199.237 L 124.16,-199.237
 L 124.16,-191.229 L 120.16,-191.229 L 120.16,-182.622 L 124.16,-182.622 L 124.16,-174.614 L 120.16,-174.614
 L 120.16,-166.006 L 124.16,-166.006 L 124.16,-157.998 L 120.16,-157.998 L 120.16,-149.391 L 124.16,-149.391
 L 124.16,-141.383 L 120.16,-141.383 L 120.16,-132.775 L 124.16,-132.775 L 124.16,-124.768 L 120.16,-124.768
 L 120.16,-116.16 L 124.16,-116.16 L 124.16,-104.16 L 132.16,-104.16 L 132.16,-100.16 L 141.187,-100.16
 z
M 20.8773,-104.16 L 29.3046,-104.16 L 29.3046,-100.16 L 38.3318,-100.16 L 38.3318,-104.16 L 46.7591,-104.16
 L 46.7591,-100.16 L 55.7863,-100.16 L 55.7863,-104.16 L 64.2136,-104.16 L 64.2136,-100.16 L 73.2409,-100.16
 L 73.2409,-104.16 L 81.6682,-104.16 L 81.6682,-100.16 L 90.6954,-100.16 L 90.6954,-104.16 L 99.1227,-104.16
 L 99.1227,-100.16 L 108.15,-100.16 L 108.15,-104.16 L 116.15,-104.16 L 116.15,-116.16 L 120.15,-116.16
 L 120.15,-124.768 L 116.15,-124.768 L 116.15,-132.775 L 120.15,-132.775 L 120.15,-141.383 L 116.15,-141.383
 L 116.15,-149.391 L 120.15,-149.391 L 120.15,-157.998 L 116.15,-157.998 L 116.15,-166.006 L 120.15,-166.006
 L 120.15,-174.614 L 116.15,-174.614 L 116.15,-182.622 L 120.15,-182.622 L 120.15,-191.229 L 116.15,-191.229
 L 116.15,-199.237 L 120.15,-199.237 L 120.15,-207.845 L 116.15,-207.845 L 116.15,-215.852 L 120.15,-215.852
 L 120.15,-224.46 L 116.15,-224.46 L 116.15,-236.46 L 108.15,-236.46 L 108.15,-240.46 L 99.1227,-240.46
 L 99.1227,-236.46 L 90.6954,-236.46 L 90.6954,-240.46 L 81.6682,-240.46 L 81.6682,-236.46 L 73.2409,-236.46
 L 73.2409,-240.46 L 64.2137,-240.46 L 64.2137,-236.46 L 55.7864,-236.46 L 55.7864,-240.46 L 46.7591,-240.46
 L 46.7591,-236.46 L 38.3318,-236.46 L 38.3318,-240.46 L 29.3046,-240.46 L 29.3046,-236.46 L 20.8773,-236.46
 L 20.8773,-240.46 L 11.85,-240.46 L 11.85,-236.46 L 3.84999,-236.46 L 3.84999,-224.46 L -0.149994,-224.46
 L -0.149994,-215.852 L 3.84999,-215.852 L 3.84999,-207.845 L -0.149994,-207.845 L -0.149994,-199.237 L 3.84999,-199.237
 L 3.84999,-191.229 L -0.149994,-191.229 L -0.149994,-182.622 L 3.84999,-182.622 L 3.84999,-174.614 L -0.149994,-174.614
 L -0.149994,-166.006 L 3.85001,-166.006 L 3.85001,-157.998 L -0.149994,-157.998 L -0.149994,-149.391 L 3.85001,-149.391
 L 3.85001,-141.383 L -0.149994,-141.383 L -0.149994,-132.775 L 3.85001,-132.775 L 3.85001,-124.768 L -0.149994,-124.768
 L -0.149994,-116.16 L 3.85001,-116.16 L 3.85001,-104.16 L 11.85,-104.16 L 11.85,-100.16 L 20.8773,-100.16
 z
M 256.77,-3.85001 L 264.778,-3.85001 L 264.778,0.149994 L 273.385,0.149994 L 273.385,-3.85001 L 281.393,-3.85001
 L 281.393,0.149994 L 290.001,0.149994 L 290.001,-3.85001 L 298.008,-3.85001 L 298.008,0.149994 L 306.616,0.149994
 L 306.616,-3.85001 L 314.624,-3.85001 L 314.624,0.149994 L 323.232,0.149994 L 323.232,-3.85001 L 331.239,-3.85001
 L 331.239,0.149994 L 339.847,0.149994 L 339.847,-3.85001 L 347.855,-3.85001 L 347.855,0.149994 L 356.462,0.149994
 L 356.462,-3.85001 L 364.47,-3.85001 L 364.47,0.149994 L 376.77,0.149994 L 376.77,-11.85 L 380.77,-11.85
 L 380.77,-20.5944 L 376.77,-20.5944 L 376.77,-28.7389 L 380.77,-28.7389 L 380.77,-37.4833 L 376.77,-37.4833
 L 376.77,-45.6278 L 380.77,-45.6278 L 380.77,-54.3722 L 376.77,-54.3722 L 376.77,-62.5167 L 380.77,-62.5167
 L 380.77,-71.2611 L 376.77,-71.2611 L 376.77,-79.4055 L 380.77,-79.4055 L 380.77,-88.15 L 376.77,-88.15
 L 376.77,-100.15 L 364.47,-100.15 L 364.47,-96.15 L 356.462,-96.15 L 356.462,-100.15 L 347.855,-100.15
 L 347.855,-96.15 L 339.847,-96.15 L 339.847,-100.15 L 331.239,-100.15 L 331.239,-96.15 L 323.232,-96.15
 L 323.232,-100.15 L 314.624,-100.15 L 314.624,-96.15 L 306.616,-96.15 L 306.616,-100.15 L 298.008,-100.15
 L 298.008,-96.15 L 290.001,-96.15 L 290.001,-100.15 L 281.393,-100.15 L 281.393,-96.15 L 273.385,-96.15
 L 273.385,-100.15 L 264.778,-100.15 L 264.778,-96.15 L 256.77,-96.15 L 256.77,-100.15 L 244.47,-100.15
 L 244.47,-88.15 L 240.47,-88.15 L 240.47,-79.4056 L 244.47,-79.4056 L 244.47,-71.2611 L 240.47,-71.2611
 L 240.47,-62.5167 L 244.47,-62.5167 L 244.47,-54.3722 L 240.47,-54.3722 L 240.47,-45.6278 L 244.47,-45.6278
 L 244.47,-37.4833 L 240.47,-37.4833 L 240.47,-28.7389 L 244.47,-28.7389 L 244.47,-20.5945 L 240.47,-20.5945
 L 240.47,-11.85 L 244.47,-11.85 L 244.47,0.149994 L 256.77,0.149994 z
M 397.08,-3.85001 L 405.088,-3.85001 L 405.088,0.149994 L 413.695,0.149994 L 413.695,-3.85001 L 421.703,-3.85001
 L 421.703,0.149994 L 430.311,0.149994 L 430.311,-3.85001 L 438.318,-3.85001 L 438.318,0.149994 L 446.926,0.149994
 L 446.926,-3.85001 L 454.934,-3.85001 L 454.934,0.149994 L 463.542,0.149994 L 463.542,-3.85001 L 471.549,-3.85001
 L 471.549,0.149994 L 480.157,0.149994 L 480.157,-3.85001 L 488.165,-3.85001 L 488.165,0.149994 L 496.772,0.149994
 L 496.772,-3.85001 L 504.78,-3.85001 L 504.78,0.149994 L 517.08,0.149994 L 517.08,-11.85 L 521.08,-11.85
 L 521.08,-20.5944 L 517.08,-20.5944 L 517.08,-28.7389 L 521.08,-28.7389 L 521.08,-37.4833 L 517.08,-37.4833
 L 517.08,-45.6278 L 521.08,-45.6278 L 521.08,-54.3722 L 517.08,-54.3722 L 517.08,-62.5167 L 521.08,-62.5167
 L 521.08,-71.2611 L 517.08,-71.2611 L 517.08,-79.4055 L 521.08,-79.4055 L 521.08,-88.15 L 517.08,-88.15
 L 517.08,-100.15 L 504.78,-100.15 L 504.78,-96.15 L 496.772,-96.15 L 496.772,-100.15 L 488.165,-100.15
 L 488.165,-96.15 L 480.157,-96.15 L 480.157,-100.15 L 471.549,-100.15 L 471.549,-96.15 L 463.542,-96.15
 L 463.542,-100.15 L 454.934,-100.15 L 454.934,-96.15 L 446.926,-96.15 L 446.926,-100.15 L 438.318,-100.15
 L 438.318,-96.15 L 430.311,-96.15 L 430.311,-100.15 L 421.703,-100.15 L 421.703,-96.15 L 413.695,-96.15
 L 413.695,-100.15 L 405.088,-100.15 L 405.088,-96.15 L 397.08,-96.15 L 397.08,-100.15 L 384.78,-100.15
 L 384.78,-88.15 L 380.78,-88.15 L 380.78,-79.4056 L 384.78,-79.4056 L 384.78,-71.2611 L 380.78,-71.2611
 L 380.78,-62.5167 L 384.78,-62.5167 L 384.78,-54.3722 L 380.78,-54.3722 L 380.78,-45.6278 L 384.78,-45.6278
 L 384.78,-37.4833 L 380.78,-37.4833 L 380.78,-28.7389 L 384.78,-28.7389 L 384.78,-20.5945 L 380.78,-20.5945
 L 380.78,-11.85 L 384.78,-11.85 L 384.78,0.149994 L 397.08,0.149994 z
M 12.15,-3.85001 L 20.5773,-3.85001 L 20.5773,0.149994 L 29.6045,0.149994 L 29.6045,-3.85001 L 38.0318,-3.85001
 L 38.0318,0.149994 L 47.0591,0.149994 L 47.0591,-3.85001 L 55.4864,-3.85001 L 55.4864,0.149994 L 64.5136,0.149994
 L 64.5136,-3.85001 L 72.9409,-3.85001 L 72.9409,0.149994 L 81.9682,0.149994 L 81.9682,-3.85001 L 90.3954,-3.85001
 L 90.3954,0.149994 L 99.4227,0.149994 L 99.4227,-3.85001 L 107.85,-3.85001 L 107.85,0.149994 L 120.15,0.149994
 L 120.15,-12.15 L 116.15,-12.15 L 116.15,-20.2944 L 120.15,-20.2944 L 120.15,-29.0389 L 116.15,-29.0389
 L 116.15,-37.1833 L 120.15,-37.1833 L 120.15,-45.9278 L 116.15,-45.9278 L 116.15,-54.0722 L 120.15,-54.0722
 L 120.15,-62.8167 L 116.15,-62.8167 L 116.15,-70.9611 L 120.15,-70.9611 L 120.15,-79.7055 L 116.15,-79.7055
 L 116.15,-87.85 L 120.15,-87.85 L 120.15,-100.15 L 107.85,-100.15 L 107.85,-96.15 L 99.4227,-96.15
 L 99.4227,-100.15 L 90.3955,-100.15 L 90.3955,-96.15 L 81.9682,-96.15 L 81.9682,-100.15 L 72.9409,-100.15
 L 72.9409,-96.15 L 64.5136,-96.15 L 64.5136,-100.15 L 55.4864,-100.15 L 55.4864,-96.15 L 47.0591,-96.15
 L 47.0591,-100.15 L 38.0318,-100.15 L 38.0318,-96.15 L 29.6046,-96.15 L 29.6046,-100.15 L 20.5773,-100.15
 L 20.5773,-96.15 L 12.15,-96.15 L 12.15,-100.15 L -0.149994,-100.15 L -0.149994,-87.85 L 3.84999,-87.85
 L 3.84999,-79.7056 L -0.149994,-79.7056 L -0.149994,-70.9611 L 3.84999,-70.9611 L 3.84999,-62.8167 L -0.149994,-62.8167
 L -0.149994,-54.0722 L 3.84999,-54.0722 L 3.85001,-45.9278 L -0.149994,-45.9278 L -0.149994,-37.1833 L 3.85001,-37.1833
 L 3.85001,-29.0389 L -0.149994,-29.0389 L -0.149994,-20.2945 L 3.85001,-20.2945 L 3.85001,-12.15 L -0.149994,-12.15
 L -0.149994,0.149994 L 12.15,0.149994 z
M 132.46,-3.85001 L 140.887,-3.85001 L 140.887,0.149994 L 149.915,0.149994 L 149.915,-3.85001 L 158.342,-3.85001
 L 158.342,0.149994 L 167.369,0.149994 L 167.369,-3.85001 L 175.796,-3.85001 L 175.796,0.149994 L 184.824,0.149994
 L 184.824,-3.85001 L 193.251,-3.85001 L 193.251,0.149994 L 202.278,0.149994 L 202.278,-3.85001 L 210.705,-3.85001
 L 210.705,0.149994 L 219.733,0.149994 L 219.733,-3.85001 L 228.16,-3.85001 L 228.16,0.149994 L 240.46,0.149994
 L 240.46,-12.15 L 236.46,-12.15 L 236.46,-20.2944 L 240.46,-20.2944 L 240.46,-29.0389 L 236.46,-29.0389
 L 236.46,-37.1833 L 240.46,-37.1833 L 240.46,-45.9278 L 236.46,-45.9278 L 236.46,-54.0722 L 240.46,-54.0722
 L 240.46,-62.8167 L 236.46,-62.8167 L 236.46,-70.9611 L 240.46,-70.9611 L 240.46,-79.7055 L 236.46,-79.7055
 L 236.46,-87.85 L 240.46,-87.85 L 240.46,-100.15 L 228.16,-100.15 L 228.16,-96.15 L 219.733,-96.15
 L 219.733,-100.15 L 210.705,-100.15 L 210.705,-96.15 L 202.278,-96.15 L 202.278,-100.15 L 193.251,-100.15
 L 193.251,-96.15 L 184.824,-96.15 L 184.824,-100.15 L 175.796,-100.15 L 175.796,-96.15 L 167.369,-96.15
 L 167.369,-100.15 L 158.342,-100.15 L 158.342,-96.15 L 149.915,-96.15 L 149.915,-100.15 L 140.887,-100.15
 L 140.887,-96.15 L 132.46,-96.15 L 132.46,-100.15 L 120.16,-100.15 L 120.16,-87.85 L 124.16,-87.85
 L 124.16,-79.7056 L 120.16,-79.7056 L 120.16,-70.9611 L 124.16,-70.9611 L 124.16,-62.8167 L 120.16,-62.8167
 L 120.16,-54.0722 L 124.16,-54.0722 L 124.16,-45.9278 L 120.16,-45.9278 L 120.16,-37.1833 L 124.16,-37.1833
 L 124.16,-29.0389 L 120.16,-29.0389 L 120.16,-20.2945 L 124.16,-20.2945 L 124.16,-12.15 L 120.16,-12.15
 L 120.16,0.149994 L 132.46,0.149994 z
" stroke="black" fill="lightgray" stroke-width="0.5"/>
</svg>
