<?xml version="1.0" standalone="no"?>
<!DOCTYPE svg PUBLIC "-//W3C//DTD SVG 1.1//EN" "http://www.w3.org/Graphics/SVG/1.1/DTD/svg11.dtd">
<svg width="521mm" height="241mm" viewBox="0 -241 521 241" xmlns="http://www.w3.org/2000/svg" version="1.1">
<title>OpenSCAD Model</title>
<path d="
M 140.737,-104.01 L 149.465,-104.01 L 149.465,-100.01 L 158.192,-100.01 L 158.192,-104.01 L 166.919,-104.01
 L 166.919,-100.01 L 175.646,-100.01 L 175.646,-104.01 L 184.374,-104.01 L 184.374,-100.01 L 193.101,-100.01
 L 193.101,-104.01 L 201.828,-104.01 L 201.828,-100.01 L 210.555,-100.01 L 210.555,-104.01 L 219.283,-104.01
 L 219.283,-100.01 L 228.01,-100.01 L 228.01,-104.01 L 236.01,-104.01 L 236.01,-116.01 L 240.01,-116.01
 L 240.01,-124.318 L 236.01,-124.318 L 236.01,-132.625 L 240.01,-132.625 L 240.01,-140.933 L 236.01,-140.933
 L 236.01,-149.241 L 240.01,-149.241 L 240.01,-157.548 L 236.01,-157.548 L 236.01,-165.856 L 240.01,-165.856
 L 240.01,-174.164 L 236.01,-174.164 L 236.01,-182.472 L 240.01,-182.472 L 240.01,-190.779 L 236.01,-190.779
 L 236.01,-199.087 L 240.01,-199.087 L 240.01,-207.395 L 236.01,-207.395 L 236.01,-215.702 L 240.01,-215.702
 L 240.01,-224.01 L 236.01,-224.01 L 236.01,-236.01 L 228.01,-236.01 L 228.01,-240.01 L 219.283,-240.01
 L 219.283,-236.01 L 210.555,-236.01 L 210.555,-240.01 L 201.828,-240.01 L 201.828,-236.01 L 193.101,-236.01
 L 193.101,-240.01 L 184.374,-240.01 L 184.374,-236.01 L 175.646,-236.01 L 175.646,-240.01 L 166.919,-240.01
 L 166.919,-236.01 L 158.192,-236.01 L 158.192,-240.01 L 149.465,-240.01 L 149.465,-236.01 L 140.737,-236.01
 L 140.737,-240.01 L 132.01,-240.01 L 132.01,-236.01 L 124.01,-236.01 L 124.01,-224.01 L 120.01,-224.01
 L 120.01,-215.702 L 124.01,-215.702 L 124.01,-207.395 L 120.01,-207.395 L 120.01,-199.087 L 124.01,-199.087
 L 124.01,-190.779 L 120.01,-190.779 L 120.01,-182.472 L 124.01,-182.472 L 124.01,-174.164 L 120.01,-174.164
 L 120.01,-165.856 L 124.01,-165.856 L 124.01,-157.548 L 120.01,-157.548 L 120.01,-149.241 L 124.01,-149.241
 L 124.01,-140.933 L 120.01,-140.933 L 120.01,-132.625 L 124.01,-132.625 L 124.01,-124.318 L 120.01,-124.318
 L 120.01,-116.01 L 124.01,-116.01 L 124.01,-104.01 L 132.01,-104.01 L 132.01,-100.01 L 140.737,-100.01
 z
M 20.7273,-104.01 L 29.4545,-104.01 L 29.4545,-100.01 L 38.1818,-100.01 L 38.1818,-104.01 L 46.9091,-104.01
 L 46.9091,-100.01 L 55.6364,-100.01 L 55.6364,-104.01 L 64.3636,-104.01 L 64.3636,-100.01 L 73.0909,-100.01
 L 73.0909,-104.01 L 81.8182,-104.01 L 81.8182,-100.01 L 90.5454,-100.01 L 90.5454,-104.01 L 99.2727,-104.01
 L 99.2727,-100.01 L 108,-100.01 L 108,-104.01 L 116,-104.01 L 116,-116.01 L 120,-116.01
 L 120,-124.318 L 116,-124.318 L 116,-132.625 L 120,-132.625 L 120,-140.933 L 116,-140.933
 L 116,-149.241 L 120,-149.241 L 120,-157.548 L 116,-157.548 L 116,-165.856 L 120,-165.856
 L 120,-174.164 L 116,-174.164 L 116,-182.472 L 120,-182.472 L 120,-190.779 L 116,-190.779
 L 116,-199.087 L 120,-199.087 L 120,-207.395 L 116,-207.395 L 116,-215.702 L 120,-215.702
 L 120,-224.01 L 116,-224.01 L 116,-236.01 L 108,-236.01 L 108,-240.01 L 99.2727,-240.01
 L 99.2727,-236.01 L 90.5455,-236.01 L 90.5455,-240.01 L 81.8182,-240.01 L 81.8182,-236.01 L 73.0909,-236.01
 L 73.0909,-240.01 L 64.3636,-240.01 L 64.3636,-236.01 L 55.6364,-236.01 L 55.6364,-240.01 L 46.9091,-240.01
 L 46.9091,-236.01 L 38.1818,-236.01 L 38.1818,-240.01 L 29.4546,-240.01 L 29.4546,-236.01 L 20.7273,-236.01
 L 20.7273,-240.01 L 12,-240.01 L 12,-236.01 L 3.99998,-236.01 L 3.99998,-224.01 L 0,-224.01
 L 0,-215.702 L 3.99998,-215.702 L 3.99998,-207.395 L 0,-207.395 L 0,-199.087 L 3.99998,-199.087
 L 3.99998,-190.779 L 0,-190.779 L 0,-182.472 L 3.99998,-182.472 L 3.99998,-174.164 L 0,-174.164
 L 0,-165.856 L 4,-165.856 L 4,-157.548 L 0,-157.548 L 0,-149.241 L 4,-149.241
 L 4,-140.933 L 0,-140.933 L 0,-132.625 L 4,-132.625 L 4,-124.318 L 0,-124.318
 L 0,-116.01 L 4,-116.01 L 4,-104.01 L 12,-104.01 L 12,-100.01 L 20.7273,-100.01
 z
M 256.02,-4 L 264.328,-4 L 264.328,-0 L 272.635,-0 L 272.635,-4 L 280.943,-4
 L 280.943,-0 L 289.251,-0 L 289.251,-4 L 297.558,-4 L 297.558,-0 L 305.866,-0
 L 305.866,-4 L 314.174,-4 L 314.174,-0 L 322.482,-0 L 322.482,-4 L 330.789,-4
 L 330.789,-0 L 339.097,-0 L 339.097,-4 L 347.405,-4 L 347.405,-0 L 355.712,-0
 L 355.712,-4 L 364.02,-4 L 364.02,-0 L 376.02,-0 L 376.02,-12 L 380.02,-12
 L 380.02,-20.4444 L 376.02,-20.4444 L 376.02,-28.8889 L 380.02,-28.8889 L 380.02,-37.3333 L 376.02,-37.3333
 L 376.02,-45.7778 L 380.02,-45.7778 L 380.02,-54.2222 L 376.02,-54.2222 L 376.02,-62.6667 L 380.02,-62.6667
 L 380.02,-71.1111 L 376.02,-71.1111 L 376.02,-79.5555 L 380.02,-79.5555 L 380.02,-88 L 376.02,-88
 L 376.02,-100 L 364.02,-100 L 364.02,-96 L 355.712,-96 L 355.712,-100 L 347.405,-100
 L 347.405,-96 L 339.097,-96 L 339.097,-100 L 330.789,-100 L 330.789,-96 L 322.482,-96
 L 322.482,-100 L 314.174,-100 L 314.174,-96 L 305.866,-96 L 305.866,-100 L 297.558,-100
 L 297.558,-96 L 289.251,-96 L 289.251,-100 L 280.943,-100 L 280.943,-96 L 272.635,-96
 L 272.635,-100 L 264.328,-100 L 264.328,-96 L 256.02,-96 L 256.02,-100 L 244.02,-100
 L 244.02,-88 L 240.02,-88 L 240.02,-79.5556 L 244.02,-79.5556 L 244.02,-71.1111 L 240.02,-71.1111
 L 240.02,-62.6667 L 244.02,-62.6667 L 244.02,-54.2222 L 240.02,-54.2222 L 240.02,-45.7778 L 244.02,-45.7778
 L 244.02,-37.3333 L 240.02,-37.3333 L 240.02,-28.8889 L 244.02,-28.8889 L 244.02,-20.4445 L 240.02,-20.4445
 L 240.02,-12 L 244.02,-12 L 244.02,-0 L 256.02,-0 z
M 396.03,-4 L 404.338,-4 L 404.338,-0 L 412.645,-0 L 412.645,-4 L 420.953,-4
 L 420.953,-0 L 429.261,-0 L 429.261,-4 L 437.568,-4 L 437.568,-0 L 445.876,-0
 L 445.876,-4 L 454.184,-4 L 454.184,-0 L 462.492,-0 L 462.492,-4 L 470.799,-4
 L 470.799,-0 L 479.107,-0 L 479.107,-4 L 487.415,-4 L 487.415,-0 L 495.722,-0
 L 495.722,-4 L 504.03,-4 L 504.03,-0 L 516.03,-0 L 516.03,-12 L 520.03,-12
 L 520.03,-20.4444 L 516.03,-20.4444 L 516.03,-28.8889 L 520.03,-28.8889 L 520.03,-37.3333 L 516.03,-37.3333
 L 516.03,-45.7778 L 520.03,-45.7778 L 520.03,-54.2222 L 516.03,-54.2222 L 516.03,-62.6667 L 520.03,-62.6667
 L 520.03,-71.1111 L 516.03,-71.1111 L 516.03,-79.5555 L 520.03,-79.5555 L 520.03,-88 L 516.03,-88
 L 516.03,-100 L 504.03,-100 L 504.03,-96 L 495.722,-96 L 495.722,-100 L 487.415,-100
 L 487.415,-96 L 479.107,-96 L 479.107,-100 L 470.799,-100 L 470.799,-96 L 462.492,-96
 L 462.492,-100 L 454.184,-100 L 454.184,-96 L 445.876,-96 L 445.876,-100 L 437.568,-100
 L 437.568,-96 L 429.261,-96 L 429.261,-100 L 420.953,-100 L 420.953,-96 L 412.645,-96
 L 412.645,-100 L 404.338,-100 L 404.338,-96 L 396.03,-96 L 396.03,-100 L 384.03,-100
 L 384.03,-88 L 380.03,-88 L 380.03,-79.5556 L 384.03,-79.5556 L 384.03,-71.1111 L 380.03,-71.1111
 L 380.03,-62.6667 L 384.03,-62.6667 L 384.03,-54.2222 L 380.03,-54.2222 L 380.03,-45.7778 L 384.03,-45.7778
 L 384.03,-37.3333 L 380.03,-37.3333 L 380.03,-28.8889 L 384.03,-28.8889 L 384.03,-20.4445 L 380.03,-20.4445
 L 380.03,-12 L 384.03,-12 L 384.03,-0 L 396.03,-0 z
M 12,-4 L 20.7273,-4 L 20.7273,-0 L 29.4545,-0 L 29.4545,-4 L 38.1818,-4
 L 38.1818,-0 L 46.9091,-0 L 46.9091,-4 L 55.6364,-4 L 55.6364,-0 L 64.3636,-0
 L 64.3636,-4 L 73.0909,-4 L 73.0909,-0 L 81.8182,-0 L 81.8182,-4 L 90.5454,-4
 L 90.5454,-0 L 99.2727,-0 L 99.2727,-4 L 108,-4 L 108,-0 L 120,-0
 L 120,-12 L 116,-12 L 116,-20.4444 L 120,-20.4444 L 120,-28.8889 L 116,-28.8889
 L 116,-37.3333 L 120,-37.3333 L 120,-45.7778 L 116,-45.7778 L 116,-54.2222 L 120,-54.2222
 L 120,-62.6667 L 116,-62.6667 L 116,-71.1111 L 120,-71.1111 L 120,-79.5555 L 116,-79.5555
 L 116,-88 L 120,-88 L 120,-100 L 108,-100 L 108,-96 L 99.2727,-96
 L 99.2727,-100 L 90.5455,-100 L 90.5455,-96 L 81.8182,-96 L 81.8182,-100 L 73.0909,-100
 L 73.0909,-96 L 64.3636,-96 L 64.3636,-100 L 55.6364,-100 L 55.6364,-96 L 46.9091,-96
 L 46.9091,-100 L 38.1818,-100 L 38.1818,-96 L 29.4546,-96 L 29.4546,-100 L 20.7273,-100
 L 20.7273,-96 L 12,-96 L 12,-100 L 0,-100 L 0,-88 L 3.99998,-88
 L 3.99998,-79.5556 L 0,-79.5556 L 0,-71.1111 L 3.99998,-71.1111 L 3.99998,-62.6667 L 0,-62.6667
 L 0,-54.2222 L 3.99998,-54.2222 L 4,-45.7778 L 0,-45.7778 L 0,-37.3333 L 4,-37.3333
 L 4,-28.8889 L 0,-28.8889 L 0,-20.4445 L 4,-20.4445 L 4,-12 L 0,-12
 L 0,-0 L 12,-0 z
M 132.01,-4 L 140.737,-4 L 140.737,-0 L 149.465,-0 L 149.465,-4 L 158.192,-4
 L 158.192,-0 L 166.919,-0 L 166.919,-4 L 175.646,-4 L 175.646,-0 L 184.374,-0
 L 184.374,-4 L 193.101,-4 L 193.101,-0 L 201.828,-0 L 201.828,-4 L 210.555,-4
 L 210.555,-0 L 219.283,-0 L 219.283,-4 L 228.01,-4 L 228.01,-0 L 240.01,-0
 L 240.01,-12 L 236.01,-12 L 236.01,-20.4444 L 240.01,-20.4444 L 240.01,-28.8889 L 236.01,-28.8889
 L 236.01,-37.3333 L 240.01,-37.3333 L 240.01,-45.7778 L 236.01,-45.7778 L 236.01,-54.2222 L 240.01,-54.2222
 L 240.01,-62.6667 L 236.01,-62.6667 L 236.01,-71.1111 L 240.01,-71.1111 L 240.01,-79.5555 L 236.01,-79.5555
 L 236.01,-88 L 240.01,-88 L 240.01,-100 L 228.01,-100 L 228.01,-96 L 219.283,-96
 L 219.283,-100 L 210.555,-100 L 210.555,-96 L 201.828,-96 L 201.828,-100 L 193.101,-100
 L 193.101,-96 L 184.374,-96 L 184.374,-100 L 175.646,-100 L 175.646,-96 L 166.919,-96
 L 166.919,-100 L 158.192,-100 L 158.192,-96 L 149.465,-96 L 149.465,-100 L 140.737,-100
 L 140.737,-96 L 132.01,-96 L 132.01,-100 L 120.01,-100 L 120.01,-88 L 124.01,-88
 L 124.01,-79.5556 L 120.01,-79.5556 L 120.01,-71.1111 L 124.01,-71.1111 L 124.01,-62.6667 L 120.01,-62.6667
 L 120.01,-54.2222 L 124.01,-54.2222 L 124.01,-45.7778 L 120.01,-45.7778 L 120.01,-37.3333 L 124.01,-37.3333
 L 124.01,-28.8889 L 120.01,-28.8889 L 120.01,-20.4445 L 124.01,-20.4445 L 124.01,-12 L 120.01,-12
 L 120.01,-0 L 132.01,-0 z
" stroke="black" fill="lightgray" stroke-width="0.5"/>
</svg>
