<?xml version="1.0" standalone="no"?>
<!DOCTYPE svg PUBLIC "-//W3C//DTD SVG 1.1//EN" "http://www.w3.org/Graphics/SVG/1.1/DTD/svg11.dtd">
<svg width="131mm" height="152mm" viewBox="-5 -147 131 152" xmlns="http://www.w3.org/2000/svg" version="1.1">
<title>OpenSCAD Model</title>
<path d="
M 99.9369,4.91142 L 100.545,4.75528 L 101.129,4.52412 L 101.679,4.22163 L 102.187,3.85255 L 102.645,3.42273
 L 103.045,2.93892 L 103.382,2.40877 L 103.649,1.84062 L 103.843,1.24344 L 103.961,0.626663 L 104,-0
 L 104,-141.421 L 103.961,-142.048 L 103.843,-142.665 L 103.649,-143.262 L 103.382,-143.83 L 103.045,-144.36
 L 102.645,-144.844 L 102.187,-145.274 L 101.679,-145.643 L 101.129,-145.945 L 100.545,-146.177 L 99.9369,-146.333
 L 99.3139,-146.411 L 98.6861,-146.411 L 98.0631,-146.333 L 97.4549,-146.177 L 96.8711,-145.945 L 96.3209,-145.643
 L 95.8129,-145.274 L 95.3552,-144.844 L 94.9549,-144.36 L 94.6185,-143.83 L 94.3511,-143.262 L 94.1571,-142.665
 L 94.0394,-142.048 L 94,-141.421 L 94,-0 L 94.0394,0.626663 L 94.1571,1.24344 L 94.3511,1.84062
 L 94.6185,2.40877 L 94.9549,2.93892 L 95.3552,3.42273 L 95.8129,3.85255 L 96.3209,4.22163 L 96.8711,4.52412
 L 97.4549,4.75528 L 98.0631,4.91142 L 98.6861,4.99013 L 99.3139,4.99013 z
M 98.9058,-139.924 L 98.7189,-139.948 L 98.5365,-139.995 L 98.3613,-140.064 L 98.1963,-140.155 L 98.0439,-140.266
 L 97.9066,-140.395 L 97.7865,-140.54 L 97.6855,-140.699 L 97.6053,-140.869 L 97.5471,-141.048 L 97.5118,-141.233
 L 97.5,-141.421 L 97.5118,-141.609 L 97.5471,-141.794 L 97.6053,-141.974 L 97.6855,-142.144 L 97.7865,-142.303
 L 97.9066,-142.448 L 98.0439,-142.577 L 98.1963,-142.688 L 98.3613,-142.779 L 98.5365,-142.848 L 98.7189,-142.895
 L 98.9058,-142.918 L 99.0942,-142.918 L 99.2811,-142.895 L 99.4635,-142.848 L 99.6387,-142.779 L 99.8037,-142.688
 L 99.9561,-142.577 L 100.093,-142.448 L 100.214,-142.303 L 100.314,-142.144 L 100.395,-141.974 L 100.453,-141.794
 L 100.488,-141.609 L 100.5,-141.421 L 100.488,-141.233 L 100.453,-141.048 L 100.395,-140.869 L 100.314,-140.699
 L 100.214,-140.54 L 100.093,-140.395 L 99.9561,-140.266 L 99.8037,-140.155 L 99.6387,-140.064 L 99.4635,-139.995
 L 99.2811,-139.948 L 99.0942,-139.924 z
M 98.9058,-69.2136 L 98.7189,-69.2372 L 98.5365,-69.2841 L 98.3613,-69.3534 L 98.1963,-69.4442 L 98.0439,-69.5549
 L 97.9066,-69.6839 L 97.7865,-69.829 L 97.6855,-69.988 L 97.6053,-70.1585 L 97.5471,-70.3376 L 97.5118,-70.5227
 L 97.5,-70.7107 L 97.5118,-70.8987 L 97.5471,-71.0837 L 97.6053,-71.2629 L 97.6855,-71.4333 L 97.7865,-71.5923
 L 97.9066,-71.7375 L 98.0439,-71.8664 L 98.1963,-71.9772 L 98.3613,-72.0679 L 98.5365,-72.1373 L 98.7189,-72.1841
 L 98.9058,-72.2077 L 99.0942,-72.2077 L 99.2811,-72.1841 L 99.4635,-72.1373 L 99.6387,-72.0679 L 99.8037,-71.9772
 L 99.9561,-71.8664 L 100.093,-71.7375 L 100.214,-71.5923 L 100.314,-71.4333 L 100.395,-71.2629 L 100.453,-71.0837
 L 100.488,-70.8987 L 100.5,-70.7107 L 100.488,-70.5227 L 100.453,-70.3376 L 100.395,-70.1585 L 100.314,-69.988
 L 100.214,-69.829 L 100.093,-69.6839 L 99.9561,-69.5549 L 99.8037,-69.4442 L 99.6387,-69.3534 L 99.4635,-69.2841
 L 99.2811,-69.2372 L 99.0942,-69.2136 z
M 98.9058,1.49704 L 98.7189,1.47342 L 98.5365,1.42657 L 98.3613,1.35724 L 98.1963,1.26648 L 98.0439,1.15576
 L 97.9066,1.02681 L 97.7865,0.881668 L 97.6855,0.722626 L 97.6053,0.552185 L 97.5471,0.373032 L 97.5118,0.187988
 L 97.5,-0 L 97.5118,-0.187988 L 97.5471,-0.373032 L 97.6053,-0.552185 L 97.6855,-0.722626 L 97.7865,-0.881668
 L 97.9066,-1.02681 L 98.0439,-1.15576 L 98.1963,-1.26648 L 98.3613,-1.35724 L 98.5365,-1.42657 L 98.7189,-1.47342
 L 98.9058,-1.49704 L 99.0942,-1.49704 L 99.2811,-1.47342 L 99.4635,-1.42657 L 99.6387,-1.35724 L 99.8037,-1.26648
 L 99.9561,-1.15576 L 100.093,-1.02681 L 100.214,-0.881668 L 100.314,-0.722626 L 100.395,-0.552185 L 100.453,-0.373032
 L 100.488,-0.187988 L 100.5,-0 L 100.488,0.187988 L 100.453,0.373032 L 100.395,0.552185 L 100.314,0.722626
 L 100.214,0.881668 L 100.093,1.02681 L 99.9561,1.15576 L 99.8037,1.26648 L 99.6387,1.35724 L 99.4635,1.42657
 L 99.2811,1.47342 L 99.0942,1.49704 z
M 110.937,4.91142 L 111.545,4.75528 L 112.129,4.52412 L 112.679,4.22163 L 113.187,3.85255 L 113.645,3.42273
 L 114.045,2.93892 L 114.382,2.40877 L 114.649,1.84062 L 114.843,1.24344 L 114.961,0.626663 L 115,-0
 L 115,-141.421 L 114.961,-142.048 L 114.843,-142.665 L 114.649,-143.262 L 114.382,-143.83 L 114.045,-144.36
 L 113.645,-144.844 L 113.187,-145.274 L 112.679,-145.643 L 112.129,-145.945 L 111.545,-146.177 L 110.937,-146.333
 L 110.314,-146.411 L 109.686,-146.411 L 109.063,-146.333 L 108.455,-146.177 L 107.871,-145.945 L 107.321,-145.643
 L 106.813,-145.274 L 106.355,-144.844 L 105.955,-144.36 L 105.618,-143.83 L 105.351,-143.262 L 105.157,-142.665
 L 105.039,-142.048 L 105,-141.421 L 105,-0 L 105.039,0.626663 L 105.157,1.24344 L 105.351,1.84062
 L 105.618,2.40877 L 105.955,2.93892 L 106.355,3.42273 L 106.813,3.85255 L 107.321,4.22163 L 107.871,4.52412
 L 108.455,4.75528 L 109.063,4.91142 L 109.686,4.99013 L 110.314,4.99013 z
M 109.906,-139.924 L 109.719,-139.948 L 109.536,-139.995 L 109.361,-140.064 L 109.196,-140.155 L 109.044,-140.266
 L 108.907,-140.395 L 108.786,-140.54 L 108.686,-140.699 L 108.605,-140.869 L 108.547,-141.048 L 108.512,-141.233
 L 108.5,-141.421 L 108.512,-141.609 L 108.547,-141.794 L 108.605,-141.974 L 108.686,-142.144 L 108.786,-142.303
 L 108.907,-142.448 L 109.044,-142.577 L 109.196,-142.688 L 109.361,-142.779 L 109.536,-142.848 L 109.719,-142.895
 L 109.906,-142.918 L 110.094,-142.918 L 110.281,-142.895 L 110.464,-142.848 L 110.639,-142.779 L 110.804,-142.688
 L 110.956,-142.577 L 111.093,-142.448 L 111.214,-142.303 L 111.314,-142.144 L 111.395,-141.974 L 111.453,-141.794
 L 111.488,-141.609 L 111.5,-141.421 L 111.488,-141.233 L 111.453,-141.048 L 111.395,-140.869 L 111.314,-140.699
 L 111.214,-140.54 L 111.093,-140.395 L 110.956,-140.266 L 110.804,-140.155 L 110.639,-140.064 L 110.464,-139.995
 L 110.281,-139.948 L 110.094,-139.924 z
M 109.906,-69.2136 L 109.719,-69.2372 L 109.536,-69.2841 L 109.361,-69.3534 L 109.196,-69.4442 L 109.044,-69.5549
 L 108.907,-69.6839 L 108.786,-69.829 L 108.686,-69.988 L 108.605,-70.1585 L 108.547,-70.3376 L 108.512,-70.5227
 L 108.5,-70.7107 L 108.512,-70.8987 L 108.547,-71.0837 L 108.605,-71.2629 L 108.686,-71.4333 L 108.786,-71.5923
 L 108.907,-71.7375 L 109.044,-71.8664 L 109.196,-71.9772 L 109.361,-72.0679 L 109.536,-72.1373 L 109.719,-72.1841
 L 109.906,-72.2077 L 110.094,-72.2077 L 110.281,-72.1841 L 110.464,-72.1373 L 110.639,-72.0679 L 110.804,-71.9772
 L 110.956,-71.8664 L 111.093,-71.7375 L 111.214,-71.5923 L 111.314,-71.4333 L 111.395,-71.2629 L 111.453,-71.0837
 L 111.488,-70.8987 L 111.5,-70.7107 L 111.488,-70.5227 L 111.453,-70.3376 L 111.395,-70.1585 L 111.314,-69.988
 L 111.214,-69.829 L 111.093,-69.6839 L 110.956,-69.5549 L 110.804,-69.4442 L 110.639,-69.3534 L 110.464,-69.2841
 L 110.281,-69.2372 L 110.094,-69.2136 z
M 109.906,1.49704 L 109.719,1.47342 L 109.536,1.42657 L 109.361,1.35724 L 109.196,1.26648 L 109.044,1.15576
 L 108.907,1.02681 L 108.786,0.881668 L 108.686,0.722626 L 108.605,0.552185 L 108.547,0.373032 L 108.512,0.187988
 L 108.5,-0 L 108.512,-0.187988 L 108.547,-0.373032 L 108.605,-0.552185 L 108.686,-0.722626 L 108.786,-0.881668
 L 108.907,-1.02681 L 109.044,-1.15576 L 109.196,-1.26648 L 109.361,-1.35724 L 109.536,-1.42657 L 109.719,-1.47342
 L 109.906,-1.49704 L 110.094,-1.49704 L 110.281,-1.47342 L 110.464,-1.42657 L 110.639,-1.35724 L 110.804,-1.26648
 L 110.956,-1.15576 L 111.093,-1.02681 L 111.214,-0.881668 L 111.314,-0.722626 L 111.395,-0.552185 L 111.453,-0.373032
 L 111.488,-0.187988 L 111.5,-0 L 111.488,0.187988 L 111.453,0.373032 L 111.395,0.552185 L 111.314,0.722626
 L 111.214,0.881668 L 111.093,1.02681 L 110.956,1.15576 L 110.804,1.26648 L 110.639,1.35724 L 110.464,1.42657
 L 110.281,1.47342 L 110.094,1.49704 z
M 88.9369,4.91142 L 89.5451,4.75528 L 90.1289,4.52412 L 90.6791,4.22163 L 91.1871,3.85255 L 91.6448,3.42273
 L 92.0451,2.93892 L 92.3815,2.40877 L 92.6489,1.84062 L 92.8429,1.24344 L 92.9606,0.626663 L 93,-0
 L 93,-141.421 L 92.9606,-142.048 L 92.8429,-142.665 L 92.6489,-143.262 L 92.3815,-143.83 L 92.0451,-144.36
 L 91.6448,-144.844 L 91.1871,-145.274 L 90.6791,-145.643 L 90.1289,-145.945 L 89.5451,-146.177 L 88.9369,-146.333
 L 88.3139,-146.411 L 87.6861,-146.411 L 87.0631,-146.333 L 86.4549,-146.177 L 85.8711,-145.945 L 85.3209,-145.643
 L 84.8129,-145.274 L 84.3552,-144.844 L 83.9549,-144.36 L 83.6185,-143.83 L 83.3511,-143.262 L 83.1571,-142.665
 L 83.0394,-142.048 L 83,-141.421 L 83,-0 L 83.0394,0.626663 L 83.1571,1.24344 L 83.3511,1.84062
 L 83.6185,2.40877 L 83.9549,2.93892 L 84.3552,3.42273 L 84.8129,3.85255 L 85.3209,4.22163 L 85.8711,4.52412
 L 86.4549,4.75528 L 87.0631,4.91142 L 87.6861,4.99013 L 88.3139,4.99013 z
M 87.9058,-139.924 L 87.7189,-139.948 L 87.5365,-139.995 L 87.3613,-140.064 L 87.1963,-140.155 L 87.0439,-140.266
 L 86.9066,-140.395 L 86.7865,-140.54 L 86.6855,-140.699 L 86.6053,-140.869 L 86.5471,-141.048 L 86.5118,-141.233
 L 86.5,-141.421 L 86.5118,-141.609 L 86.5471,-141.794 L 86.6053,-141.974 L 86.6855,-142.144 L 86.7865,-142.303
 L 86.9066,-142.448 L 87.0439,-142.577 L 87.1963,-142.688 L 87.3613,-142.779 L 87.5365,-142.848 L 87.7189,-142.895
 L 87.9058,-142.918 L 88.0942,-142.918 L 88.2811,-142.895 L 88.4635,-142.848 L 88.6387,-142.779 L 88.8037,-142.688
 L 88.9561,-142.577 L 89.0934,-142.448 L 89.2135,-142.303 L 89.3145,-142.144 L 89.3947,-141.974 L 89.4529,-141.794
 L 89.4882,-141.609 L 89.5,-141.421 L 89.4882,-141.233 L 89.4529,-141.048 L 89.3947,-140.869 L 89.3145,-140.699
 L 89.2135,-140.54 L 89.0934,-140.395 L 88.9561,-140.266 L 88.8037,-140.155 L 88.6387,-140.064 L 88.4635,-139.995
 L 88.2811,-139.948 L 88.0942,-139.924 z
M 87.9058,-69.2136 L 87.7189,-69.2372 L 87.5365,-69.2841 L 87.3613,-69.3534 L 87.1963,-69.4442 L 87.0439,-69.5549
 L 86.9066,-69.6839 L 86.7865,-69.829 L 86.6855,-69.988 L 86.6053,-70.1585 L 86.5471,-70.3376 L 86.5118,-70.5227
 L 86.5,-70.7107 L 86.5118,-70.8987 L 86.5471,-71.0837 L 86.6053,-71.2629 L 86.6855,-71.4333 L 86.7865,-71.5923
 L 86.9066,-71.7375 L 87.0439,-71.8664 L 87.1963,-71.9772 L 87.3613,-72.0679 L 87.5365,-72.1373 L 87.7189,-72.1841
 L 87.9058,-72.2077 L 88.0942,-72.2077 L 88.2811,-72.1841 L 88.4635,-72.1373 L 88.6387,-72.0679 L 88.8037,-71.9772
 L 88.9561,-71.8664 L 89.0934,-71.7375 L 89.2135,-71.5923 L 89.3145,-71.4333 L 89.3947,-71.2629 L 89.4529,-71.0837
 L 89.4882,-70.8987 L 89.5,-70.7107 L 89.4882,-70.5227 L 89.4529,-70.3376 L 89.3947,-70.1585 L 89.3145,-69.988
 L 89.2135,-69.829 L 89.0934,-69.6839 L 88.9561,-69.5549 L 88.8037,-69.4442 L 88.6387,-69.3534 L 88.4635,-69.2841
 L 88.2811,-69.2372 L 88.0942,-69.2136 z
M 87.9058,1.49704 L 87.7189,1.47342 L 87.5365,1.42657 L 87.3613,1.35724 L 87.1963,1.26648 L 87.0439,1.15576
 L 86.9066,1.02681 L 86.7865,0.881668 L 86.6855,0.722626 L 86.6053,0.552185 L 86.5471,0.373032 L 86.5118,0.187988
 L 86.5,-0 L 86.5118,-0.187988 L 86.5471,-0.373032 L 86.6053,-0.552185 L 86.6855,-0.722626 L 86.7865,-0.881668
 L 86.9066,-1.02681 L 87.0439,-1.15576 L 87.1963,-1.26648 L 87.3613,-1.35724 L 87.5365,-1.42657 L 87.7189,-1.47342
 L 87.9058,-1.49704 L 88.0942,-1.49704 L 88.2811,-1.47342 L 88.4635,-1.42657 L 88.6387,-1.35724 L 88.8037,-1.26648
 L 88.9561,-1.15576 L 89.0934,-1.02681 L 89.2135,-0.881668 L 89.3145,-0.722626 L 89.3947,-0.552185 L 89.4529,-0.373032
 L 89.4882,-0.187988 L 89.5,-0 L 89.4882,0.187988 L 89.4529,0.373032 L 89.3947,0.552185 L 89.3145,0.722626
 L 89.2135,0.881668 L 89.0934,1.02681 L 88.9561,1.15576 L 88.8037,1.26648 L 88.6387,1.35724 L 88.4635,1.42657
 L 88.2811,1.47342 L 88.0942,1.49704 z
M 121.937,4.91142 L 122.545,4.75528 L 123.129,4.52412 L 123.679,4.22163 L 124.187,3.85255 L 124.645,3.42273
 L 125.045,2.93892 L 125.382,2.40877 L 125.649,1.84062 L 125.843,1.24344 L 125.961,0.626663 L 126,-0
 L 126,-141.421 L 125.961,-142.048 L 125.843,-142.665 L 125.649,-143.262 L 125.382,-143.83 L 125.045,-144.36
 L 124.645,-144.844 L 124.187,-145.274 L 123.679,-145.643 L 123.129,-145.945 L 122.545,-146.177 L 121.937,-146.333
 L 121.314,-146.411 L 120.686,-146.411 L 120.063,-146.333 L 119.455,-146.177 L 118.871,-145.945 L 118.321,-145.643
 L 117.813,-145.274 L 117.355,-144.844 L 116.955,-144.36 L 116.618,-143.83 L 116.351,-143.262 L 116.157,-142.665
 L 116.039,-142.048 L 116,-141.421 L 116,-0 L 116.039,0.626663 L 116.157,1.24344 L 116.351,1.84062
 L 116.618,2.40877 L 116.955,2.93892 L 117.355,3.42273 L 117.813,3.85255 L 118.321,4.22163 L 118.871,4.52412
 L 119.455,4.75528 L 120.063,4.91142 L 120.686,4.99013 L 121.314,4.99013 z
M 120.906,-139.924 L 120.719,-139.948 L 120.536,-139.995 L 120.361,-140.064 L 120.196,-140.155 L 120.044,-140.266
 L 119.907,-140.395 L 119.786,-140.54 L 119.686,-140.699 L 119.605,-140.869 L 119.547,-141.048 L 119.512,-141.233
 L 119.5,-141.421 L 119.512,-141.609 L 119.547,-141.794 L 119.605,-141.974 L 119.686,-142.144 L 119.786,-142.303
 L 119.907,-142.448 L 120.044,-142.577 L 120.196,-142.688 L 120.361,-142.779 L 120.536,-142.848 L 120.719,-142.895
 L 120.906,-142.918 L 121.094,-142.918 L 121.281,-142.895 L 121.464,-142.848 L 121.639,-142.779 L 121.804,-142.688
 L 121.956,-142.577 L 122.093,-142.448 L 122.214,-142.303 L 122.314,-142.144 L 122.395,-141.974 L 122.453,-141.794
 L 122.488,-141.609 L 122.5,-141.421 L 122.488,-141.233 L 122.453,-141.048 L 122.395,-140.869 L 122.314,-140.699
 L 122.214,-140.54 L 122.093,-140.395 L 121.956,-140.266 L 121.804,-140.155 L 121.639,-140.064 L 121.464,-139.995
 L 121.281,-139.948 L 121.094,-139.924 z
M 120.906,-69.2136 L 120.719,-69.2372 L 120.536,-69.2841 L 120.361,-69.3534 L 120.196,-69.4442 L 120.044,-69.5549
 L 119.907,-69.6839 L 119.786,-69.829 L 119.686,-69.988 L 119.605,-70.1585 L 119.547,-70.3376 L 119.512,-70.5227
 L 119.5,-70.7107 L 119.512,-70.8987 L 119.547,-71.0837 L 119.605,-71.2629 L 119.686,-71.4333 L 119.786,-71.5923
 L 119.907,-71.7375 L 120.044,-71.8664 L 120.196,-71.9772 L 120.361,-72.0679 L 120.536,-72.1373 L 120.719,-72.1841
 L 120.906,-72.2077 L 121.094,-72.2077 L 121.281,-72.1841 L 121.464,-72.1373 L 121.639,-72.0679 L 121.804,-71.9772
 L 121.956,-71.8664 L 122.093,-71.7375 L 122.214,-71.5923 L 122.314,-71.4333 L 122.395,-71.2629 L 122.453,-71.0837
 L 122.488,-70.8987 L 122.5,-70.7107 L 122.488,-70.5227 L 122.453,-70.3376 L 122.395,-70.1585 L 122.314,-69.988
 L 122.214,-69.829 L 122.093,-69.6839 L 121.956,-69.5549 L 121.804,-69.4442 L 121.639,-69.3534 L 121.464,-69.2841
 L 121.281,-69.2372 L 121.094,-69.2136 z
M 120.906,1.49704 L 120.719,1.47342 L 120.536,1.42657 L 120.361,1.35724 L 120.196,1.26648 L 120.044,1.15576
 L 119.907,1.02681 L 119.786,0.881668 L 119.686,0.722626 L 119.605,0.552185 L 119.547,0.373032 L 119.512,0.187988
 L 119.5,-0 L 119.512,-0.187988 L 119.547,-0.373032 L 119.605,-0.552185 L 119.686,-0.722626 L 119.786,-0.881668
 L 119.907,-1.02681 L 120.044,-1.15576 L 120.196,-1.26648 L 120.361,-1.35724 L 120.536,-1.42657 L 120.719,-1.47342
 L 120.906,-1.49704 L 121.094,-1.49704 L 121.281,-1.47342 L 121.464,-1.42657 L 121.639,-1.35724 L 121.804,-1.26648
 L 121.956,-1.15576 L 122.093,-1.02681 L 122.214,-0.881668 L 122.314,-0.722626 L 122.395,-0.552185 L 122.453,-0.373032
 L 122.488,-0.187988 L 122.5,-0 L 122.488,0.187988 L 122.453,0.373032 L 122.395,0.552185 L 122.314,0.722626
 L 122.214,0.881668 L 122.093,1.02681 L 121.956,1.15576 L 121.804,1.26648 L 121.639,1.35724 L 121.464,1.42657
 L 121.281,1.47342 L 121.094,1.49704 z
M 55.9369,4.91142 L 56.5451,4.75528 L 57.1289,4.52412 L 57.6791,4.22163 L 58.1871,3.85255 L 58.6448,3.42273
 L 59.0451,2.93892 L 59.3815,2.40877 L 59.6489,1.84062 L 59.8429,1.24344 L 59.9606,0.626663 L 60,-0
 L 60,-70.7107 L 59.9606,-71.3373 L 59.8429,-71.9541 L 59.6489,-72.5513 L 59.3815,-73.1194 L 59.0451,-73.6496
 L 58.6448,-74.1334 L 58.1871,-74.5632 L 57.6791,-74.9323 L 57.1289,-75.2348 L 56.5451,-75.466 L 55.9369,-75.6221
 L 55.3139,-75.7008 L 54.6861,-75.7008 L 54.0631,-75.6221 L 53.4549,-75.466 L 52.8711,-75.2348 L 52.3209,-74.9323
 L 51.8129,-74.5632 L 51.3552,-74.1334 L 50.9549,-73.6496 L 50.6185,-73.1194 L 50.3511,-72.5513 L 50.1571,-71.9541
 L 50.0394,-71.3373 L 50,-70.7107 L 50,-0 L 50.0394,0.626663 L 50.1571,1.24344 L 50.3511,1.84062
 L 50.6185,2.40877 L 50.9549,2.93892 L 51.3552,3.42273 L 51.8129,3.85255 L 52.3209,4.22163 L 52.8711,4.52412
 L 53.4549,4.75528 L 54.0631,4.91142 L 54.6861,4.99013 L 55.3139,4.99013 z
M 54.9058,-69.2136 L 54.7189,-69.2372 L 54.5365,-69.2841 L 54.3613,-69.3534 L 54.1963,-69.4442 L 54.0439,-69.5549
 L 53.9066,-69.6839 L 53.7865,-69.829 L 53.6855,-69.988 L 53.6053,-70.1585 L 53.5471,-70.3376 L 53.5118,-70.5227
 L 53.5,-70.7107 L 53.5118,-70.8987 L 53.5471,-71.0837 L 53.6053,-71.2629 L 53.6855,-71.4333 L 53.7865,-71.5923
 L 53.9066,-71.7375 L 54.0439,-71.8664 L 54.1963,-71.9772 L 54.3613,-72.0679 L 54.5365,-72.1373 L 54.7189,-72.1841
 L 54.9058,-72.2077 L 55.0942,-72.2077 L 55.2811,-72.1841 L 55.4635,-72.1373 L 55.6387,-72.0679 L 55.8037,-71.9772
 L 55.9561,-71.8664 L 56.0934,-71.7375 L 56.2135,-71.5923 L 56.3145,-71.4333 L 56.3947,-71.2629 L 56.4529,-71.0837
 L 56.4882,-70.8987 L 56.5,-70.7107 L 56.4882,-70.5227 L 56.4529,-70.3376 L 56.3947,-70.1585 L 56.3145,-69.988
 L 56.2135,-69.829 L 56.0934,-69.6839 L 55.9561,-69.5549 L 55.8037,-69.4442 L 55.6387,-69.3534 L 55.4635,-69.2841
 L 55.2811,-69.2372 L 55.0942,-69.2136 z
M 54.9058,1.49704 L 54.7189,1.47342 L 54.5365,1.42657 L 54.3613,1.35724 L 54.1963,1.26648 L 54.0439,1.15576
 L 53.9066,1.02681 L 53.7865,0.881668 L 53.6855,0.722626 L 53.6053,0.552185 L 53.5471,0.373032 L 53.5118,0.187988
 L 53.5,-0 L 53.5118,-0.187988 L 53.5471,-0.373032 L 53.6053,-0.552185 L 53.6855,-0.722626 L 53.7865,-0.881668
 L 53.9066,-1.02681 L 54.0439,-1.15576 L 54.1963,-1.26648 L 54.3613,-1.35724 L 54.5365,-1.42657 L 54.7189,-1.47342
 L 54.9058,-1.49704 L 55.0942,-1.49704 L 55.2811,-1.47342 L 55.4635,-1.42657 L 55.6387,-1.35724 L 55.8037,-1.26648
 L 55.9561,-1.15576 L 56.0934,-1.02681 L 56.2135,-0.881668 L 56.3145,-0.722626 L 56.3947,-0.552185 L 56.4529,-0.373032
 L 56.4882,-0.187988 L 56.5,-0 L 56.4882,0.187988 L 56.4529,0.373032 L 56.3947,0.552185 L 56.3145,0.722626
 L 56.2135,0.881668 L 56.0934,1.02681 L 55.9561,1.15576 L 55.8037,1.26648 L 55.6387,1.35724 L 55.4635,1.42657
 L 55.2811,1.47342 L 55.0942,1.49704 z
M 44.9369,4.91142 L 45.5451,4.75528 L 46.1289,4.52412 L 46.6791,4.22163 L 47.1871,3.85255 L 47.6448,3.42273
 L 48.0451,2.93892 L 48.3815,2.40877 L 48.6489,1.84062 L 48.8429,1.24344 L 48.9606,0.626663 L 49,-0
 L 49,-70.7107 L 48.9606,-71.3373 L 48.8429,-71.9541 L 48.6489,-72.5513 L 48.3815,-73.1194 L 48.0451,-73.6496
 L 47.6448,-74.1334 L 47.1871,-74.5632 L 46.6791,-74.9323 L 46.1289,-75.2348 L 45.5451,-75.466 L 44.9369,-75.6221
 L 44.3139,-75.7008 L 43.6861,-75.7008 L 43.0631,-75.6221 L 42.4549,-75.466 L 41.8711,-75.2348 L 41.3209,-74.9323
 L 40.8129,-74.5632 L 40.3552,-74.1334 L 39.9549,-73.6496 L 39.6185,-73.1194 L 39.3511,-72.5513 L 39.1571,-71.9541
 L 39.0394,-71.3373 L 39,-70.7107 L 39,-0 L 39.0394,0.626663 L 39.1571,1.24344 L 39.3511,1.84062
 L 39.6185,2.40877 L 39.9549,2.93892 L 40.3552,3.42273 L 40.8129,3.85255 L 41.3209,4.22163 L 41.8711,4.52412
 L 42.4549,4.75528 L 43.0631,4.91142 L 43.6861,4.99013 L 44.3139,4.99013 z
M 43.9058,-69.2136 L 43.7189,-69.2372 L 43.5365,-69.2841 L 43.3613,-69.3534 L 43.1963,-69.4442 L 43.0439,-69.5549
 L 42.9066,-69.6839 L 42.7865,-69.829 L 42.6855,-69.988 L 42.6053,-70.1585 L 42.5471,-70.3376 L 42.5118,-70.5227
 L 42.5,-70.7107 L 42.5118,-70.8987 L 42.5471,-71.0837 L 42.6053,-71.2629 L 42.6855,-71.4333 L 42.7865,-71.5923
 L 42.9066,-71.7375 L 43.0439,-71.8664 L 43.1963,-71.9772 L 43.3613,-72.0679 L 43.5365,-72.1373 L 43.7189,-72.1841
 L 43.9058,-72.2077 L 44.0942,-72.2077 L 44.2811,-72.1841 L 44.4635,-72.1373 L 44.6387,-72.0679 L 44.8037,-71.9772
 L 44.9561,-71.8664 L 45.0934,-71.7375 L 45.2135,-71.5923 L 45.3145,-71.4333 L 45.3947,-71.2629 L 45.4529,-71.0837
 L 45.4882,-70.8987 L 45.5,-70.7107 L 45.4882,-70.5227 L 45.4529,-70.3376 L 45.3947,-70.1585 L 45.3145,-69.988
 L 45.2135,-69.829 L 45.0934,-69.6839 L 44.9561,-69.5549 L 44.8037,-69.4442 L 44.6387,-69.3534 L 44.4635,-69.2841
 L 44.2811,-69.2372 L 44.0942,-69.2136 z
M 43.9058,1.49704 L 43.7189,1.47342 L 43.5365,1.42657 L 43.3613,1.35724 L 43.1963,1.26648 L 43.0439,1.15576
 L 42.9066,1.02681 L 42.7865,0.881668 L 42.6855,0.722626 L 42.6053,0.552185 L 42.5471,0.373032 L 42.5118,0.187988
 L 42.5,-0 L 42.5118,-0.187988 L 42.5471,-0.373032 L 42.6053,-0.552185 L 42.6855,-0.722626 L 42.7865,-0.881668
 L 42.9066,-1.02681 L 43.0439,-1.15576 L 43.1963,-1.26648 L 43.3613,-1.35724 L 43.5365,-1.42657 L 43.7189,-1.47342
 L 43.9058,-1.49704 L 44.0942,-1.49704 L 44.2811,-1.47342 L 44.4635,-1.42657 L 44.6387,-1.35724 L 44.8037,-1.26648
 L 44.9561,-1.15576 L 45.0934,-1.02681 L 45.2135,-0.881668 L 45.3145,-0.722626 L 45.3947,-0.552185 L 45.4529,-0.373032
 L 45.4882,-0.187988 L 45.5,-0 L 45.4882,0.187988 L 45.4529,0.373032 L 45.3947,0.552185 L 45.3145,0.722626
 L 45.2135,0.881668 L 45.0934,1.02681 L 44.9561,1.15576 L 44.8037,1.26648 L 44.6387,1.35724 L 44.4635,1.42657
 L 44.2811,1.47342 L 44.0942,1.49704 z
M 33.9369,4.91142 L 34.5451,4.75528 L 35.1289,4.52412 L 35.6791,4.22163 L 36.1871,3.85255 L 36.6448,3.42273
 L 37.0451,2.93892 L 37.3815,2.40877 L 37.6489,1.84062 L 37.8429,1.24344 L 37.9606,0.626663 L 38,-0
 L 38,-70.7107 L 37.9606,-71.3373 L 37.8429,-71.9541 L 37.6489,-72.5513 L 37.3815,-73.1194 L 37.0451,-73.6496
 L 36.6448,-74.1334 L 36.1871,-74.5632 L 35.6791,-74.9323 L 35.1289,-75.2348 L 34.5451,-75.466 L 33.9369,-75.6221
 L 33.3139,-75.7008 L 32.6861,-75.7008 L 32.0631,-75.6221 L 31.4549,-75.466 L 30.8711,-75.2348 L 30.3209,-74.9323
 L 29.8129,-74.5632 L 29.3552,-74.1334 L 28.9549,-73.6496 L 28.6185,-73.1194 L 28.3511,-72.5513 L 28.1571,-71.9541
 L 28.0394,-71.3373 L 28,-70.7107 L 28,-0 L 28.0394,0.626663 L 28.1571,1.24344 L 28.3511,1.84062
 L 28.6185,2.40877 L 28.9549,2.93892 L 29.3552,3.42273 L 29.8129,3.85255 L 30.3209,4.22163 L 30.8711,4.52412
 L 31.4549,4.75528 L 32.0631,4.91142 L 32.6861,4.99013 L 33.3139,4.99013 z
M 32.9058,-69.2136 L 32.7189,-69.2372 L 32.5365,-69.2841 L 32.3613,-69.3534 L 32.1963,-69.4442 L 32.0439,-69.5549
 L 31.9066,-69.6839 L 31.7865,-69.829 L 31.6855,-69.988 L 31.6053,-70.1585 L 31.5471,-70.3376 L 31.5118,-70.5227
 L 31.5,-70.7107 L 31.5118,-70.8987 L 31.5471,-71.0837 L 31.6053,-71.2629 L 31.6855,-71.4333 L 31.7865,-71.5923
 L 31.9066,-71.7375 L 32.0439,-71.8664 L 32.1963,-71.9772 L 32.3613,-72.0679 L 32.5365,-72.1373 L 32.7189,-72.1841
 L 32.9058,-72.2077 L 33.0942,-72.2077 L 33.2811,-72.1841 L 33.4635,-72.1373 L 33.6387,-72.0679 L 33.8037,-71.9772
 L 33.9561,-71.8664 L 34.0934,-71.7375 L 34.2135,-71.5923 L 34.3145,-71.4333 L 34.3947,-71.2629 L 34.4529,-71.0837
 L 34.4882,-70.8987 L 34.5,-70.7107 L 34.4882,-70.5227 L 34.4529,-70.3376 L 34.3947,-70.1585 L 34.3145,-69.988
 L 34.2135,-69.829 L 34.0934,-69.6839 L 33.9561,-69.5549 L 33.8037,-69.4442 L 33.6387,-69.3534 L 33.4635,-69.2841
 L 33.2811,-69.2372 L 33.0942,-69.2136 z
M 32.9058,1.49704 L 32.7189,1.47342 L 32.5365,1.42657 L 32.3613,1.35724 L 32.1963,1.26648 L 32.0439,1.15576
 L 31.9066,1.02681 L 31.7865,0.881668 L 31.6855,0.722626 L 31.6053,0.552185 L 31.5471,0.373032 L 31.5118,0.187988
 L 31.5,-0 L 31.5118,-0.187988 L 31.5471,-0.373032 L 31.6053,-0.552185 L 31.6855,-0.722626 L 31.7865,-0.881668
 L 31.9066,-1.02681 L 32.0439,-1.15576 L 32.1963,-1.26648 L 32.3613,-1.35724 L 32.5365,-1.42657 L 32.7189,-1.47342
 L 32.9058,-1.49704 L 33.0942,-1.49704 L 33.2811,-1.47342 L 33.4635,-1.42657 L 33.6387,-1.35724 L 33.8037,-1.26648
 L 33.9561,-1.15576 L 34.0934,-1.02681 L 34.2135,-0.881668 L 34.3145,-0.722626 L 34.3947,-0.552185 L 34.4529,-0.373032
 L 34.4882,-0.187988 L 34.5,-0 L 34.4882,0.187988 L 34.4529,0.373032 L 34.3947,0.552185 L 34.3145,0.722626
 L 34.2135,0.881668 L 34.0934,1.02681 L 33.9561,1.15576 L 33.8037,1.26648 L 33.6387,1.35724 L 33.4635,1.42657
 L 33.2811,1.47342 L 33.0942,1.49704 z
M 66.9369,4.91142 L 67.5451,4.75528 L 68.1289,4.52412 L 68.6791,4.22163 L 69.1871,3.85255 L 69.6448,3.42273
 L 70.0451,2.93892 L 70.3815,2.40877 L 70.6489,1.84062 L 70.8429,1.24344 L 70.9606,0.626663 L 71,-0
 L 71,-70.7107 L 70.9606,-71.3373 L 70.8429,-71.9541 L 70.6489,-72.5513 L 70.3815,-73.1194 L 70.0451,-73.6496
 L 69.6448,-74.1334 L 69.1871,-74.5632 L 68.6791,-74.9323 L 68.1289,-75.2348 L 67.5451,-75.466 L 66.9369,-75.6221
 L 66.3139,-75.7008 L 65.6861,-75.7008 L 65.0631,-75.6221 L 64.4549,-75.466 L 63.8711,-75.2348 L 63.3209,-74.9323
 L 62.8129,-74.5632 L 62.3552,-74.1334 L 61.9549,-73.6496 L 61.6185,-73.1194 L 61.3511,-72.5513 L 61.1571,-71.9541
 L 61.0394,-71.3373 L 61,-70.7107 L 61,-0 L 61.0394,0.626663 L 61.1571,1.24344 L 61.3511,1.84062
 L 61.6185,2.40877 L 61.9549,2.93892 L 62.3552,3.42273 L 62.8129,3.85255 L 63.3209,4.22163 L 63.8711,4.52412
 L 64.4549,4.75528 L 65.0631,4.91142 L 65.6861,4.99013 L 66.3139,4.99013 z
M 65.9058,-69.2136 L 65.7189,-69.2372 L 65.5365,-69.2841 L 65.3613,-69.3534 L 65.1963,-69.4442 L 65.0439,-69.5549
 L 64.9066,-69.6839 L 64.7865,-69.829 L 64.6855,-69.988 L 64.6053,-70.1585 L 64.5471,-70.3376 L 64.5118,-70.5227
 L 64.5,-70.7107 L 64.5118,-70.8987 L 64.5471,-71.0837 L 64.6053,-71.2629 L 64.6855,-71.4333 L 64.7865,-71.5923
 L 64.9066,-71.7375 L 65.0439,-71.8664 L 65.1963,-71.9772 L 65.3613,-72.0679 L 65.5365,-72.1373 L 65.7189,-72.1841
 L 65.9058,-72.2077 L 66.0942,-72.2077 L 66.2811,-72.1841 L 66.4635,-72.1373 L 66.6387,-72.0679 L 66.8037,-71.9772
 L 66.9561,-71.8664 L 67.0934,-71.7375 L 67.2135,-71.5923 L 67.3145,-71.4333 L 67.3947,-71.2629 L 67.4529,-71.0837
 L 67.4882,-70.8987 L 67.5,-70.7107 L 67.4882,-70.5227 L 67.4529,-70.3376 L 67.3947,-70.1585 L 67.3145,-69.988
 L 67.2135,-69.829 L 67.0934,-69.6839 L 66.9561,-69.5549 L 66.8037,-69.4442 L 66.6387,-69.3534 L 66.4635,-69.2841
 L 66.2811,-69.2372 L 66.0942,-69.2136 z
M 65.9058,1.49704 L 65.7189,1.47342 L 65.5365,1.42657 L 65.3613,1.35724 L 65.1963,1.26648 L 65.0439,1.15576
 L 64.9066,1.02681 L 64.7865,0.881668 L 64.6855,0.722626 L 64.6053,0.552185 L 64.5471,0.373032 L 64.5118,0.187988
 L 64.5,-0 L 64.5118,-0.187988 L 64.5471,-0.373032 L 64.6053,-0.552185 L 64.6855,-0.722626 L 64.7865,-0.881668
 L 64.9066,-1.02681 L 65.0439,-1.15576 L 65.1963,-1.26648 L 65.3613,-1.35724 L 65.5365,-1.42657 L 65.7189,-1.47342
 L 65.9058,-1.49704 L 66.0942,-1.49704 L 66.2811,-1.47342 L 66.4635,-1.42657 L 66.6387,-1.35724 L 66.8037,-1.26648
 L 66.9561,-1.15576 L 67.0934,-1.02681 L 67.2135,-0.881668 L 67.3145,-0.722626 L 67.3947,-0.552185 L 67.4529,-0.373032
 L 67.4882,-0.187988 L 67.5,-0 L 67.4882,0.187988 L 67.4529,0.373032 L 67.3947,0.552185 L 67.3145,0.722626
 L 67.2135,0.881668 L 67.0934,1.02681 L 66.9561,1.15576 L 66.8037,1.26648 L 66.6387,1.35724 L 66.4635,1.42657
 L 66.2811,1.47342 L 66.0942,1.49704 z
M 22.9369,4.91142 L 23.5451,4.75528 L 24.1289,4.52412 L 24.6791,4.22163 L 25.1871,3.85255 L 25.6448,3.42273
 L 26.0451,2.93892 L 26.3815,2.40877 L 26.6489,1.84062 L 26.8429,1.24344 L 26.9606,0.626663 L 27,-0
 L 27,-70.7107 L 26.9606,-71.3373 L 26.8429,-71.9541 L 26.6489,-72.5513 L 26.3815,-73.1194 L 26.0451,-73.6496
 L 25.6448,-74.1334 L 25.1871,-74.5632 L 24.6791,-74.9323 L 24.1289,-75.2348 L 23.5451,-75.466 L 22.9369,-75.6221
 L 22.3139,-75.7008 L 21.6861,-75.7008 L 21.0631,-75.6221 L 20.4549,-75.466 L 19.8711,-75.2348 L 19.3209,-74.9323
 L 18.8129,-74.5632 L 18.3552,-74.1334 L 17.9549,-73.6496 L 17.6185,-73.1194 L 17.3511,-72.5513 L 17.1571,-71.9541
 L 17.0394,-71.3373 L 17,-70.7107 L 17,-0 L 17.0394,0.626663 L 17.1571,1.24344 L 17.3511,1.84062
 L 17.6185,2.40877 L 17.9549,2.93892 L 18.3552,3.42273 L 18.8129,3.85255 L 19.3209,4.22163 L 19.8711,4.52412
 L 20.4549,4.75528 L 21.0631,4.91142 L 21.6861,4.99013 L 22.3139,4.99013 z
M 21.9058,-69.2136 L 21.7189,-69.2372 L 21.5365,-69.2841 L 21.3613,-69.3534 L 21.1963,-69.4442 L 21.0439,-69.5549
 L 20.9066,-69.6839 L 20.7865,-69.829 L 20.6855,-69.988 L 20.6053,-70.1585 L 20.5471,-70.3376 L 20.5118,-70.5227
 L 20.5,-70.7107 L 20.5118,-70.8987 L 20.5471,-71.0837 L 20.6053,-71.2629 L 20.6855,-71.4333 L 20.7865,-71.5923
 L 20.9066,-71.7375 L 21.0439,-71.8664 L 21.1963,-71.9772 L 21.3613,-72.0679 L 21.5365,-72.1373 L 21.7189,-72.1841
 L 21.9058,-72.2077 L 22.0942,-72.2077 L 22.2811,-72.1841 L 22.4635,-72.1373 L 22.6387,-72.0679 L 22.8037,-71.9772
 L 22.9561,-71.8664 L 23.0934,-71.7375 L 23.2135,-71.5923 L 23.3145,-71.4333 L 23.3947,-71.2629 L 23.4529,-71.0837
 L 23.4882,-70.8987 L 23.5,-70.7107 L 23.4882,-70.5227 L 23.4529,-70.3376 L 23.3947,-70.1585 L 23.3145,-69.988
 L 23.2135,-69.829 L 23.0934,-69.6839 L 22.9561,-69.5549 L 22.8037,-69.4442 L 22.6387,-69.3534 L 22.4635,-69.2841
 L 22.2811,-69.2372 L 22.0942,-69.2136 z
M 21.9058,1.49704 L 21.7189,1.47342 L 21.5365,1.42657 L 21.3613,1.35724 L 21.1963,1.26648 L 21.0439,1.15576
 L 20.9066,1.02681 L 20.7865,0.881668 L 20.6855,0.722626 L 20.6053,0.552185 L 20.5471,0.373032 L 20.5118,0.187988
 L 20.5,-0 L 20.5118,-0.187988 L 20.5471,-0.373032 L 20.6053,-0.552185 L 20.6855,-0.722626 L 20.7865,-0.881668
 L 20.9066,-1.02681 L 21.0439,-1.15576 L 21.1963,-1.26648 L 21.3613,-1.35724 L 21.5365,-1.42657 L 21.7189,-1.47342
 L 21.9058,-1.49704 L 22.0942,-1.49704 L 22.2811,-1.47342 L 22.4635,-1.42657 L 22.6387,-1.35724 L 22.8037,-1.26648
 L 22.9561,-1.15576 L 23.0934,-1.02681 L 23.2135,-0.881668 L 23.3145,-0.722626 L 23.3947,-0.552185 L 23.4529,-0.373032
 L 23.4882,-0.187988 L 23.5,-0 L 23.4882,0.187988 L 23.4529,0.373032 L 23.3947,0.552185 L 23.3145,0.722626
 L 23.2135,0.881668 L 23.0934,1.02681 L 22.9561,1.15576 L 22.8037,1.26648 L 22.6387,1.35724 L 22.4635,1.42657
 L 22.2811,1.47342 L 22.0942,1.49704 z
M 77.9369,4.91142 L 78.5451,4.75528 L 79.1289,4.52412 L 79.6791,4.22163 L 80.1871,3.85255 L 80.6448,3.42273
 L 81.0451,2.93892 L 81.3815,2.40877 L 81.6489,1.84062 L 81.8429,1.24344 L 81.9606,0.626663 L 82,-0
 L 82,-70.7107 L 81.9606,-71.3373 L 81.8429,-71.9541 L 81.6489,-72.5513 L 81.3815,-73.1194 L 81.0451,-73.6496
 L 80.6448,-74.1334 L 80.1871,-74.5632 L 79.6791,-74.9323 L 79.1289,-75.2348 L 78.5451,-75.466 L 77.9369,-75.6221
 L 77.3139,-75.7008 L 76.6861,-75.7008 L 76.0631,-75.6221 L 75.4549,-75.466 L 74.8711,-75.2348 L 74.3209,-74.9323
 L 73.8129,-74.5632 L 73.3552,-74.1334 L 72.9549,-73.6496 L 72.6185,-73.1194 L 72.3511,-72.5513 L 72.1571,-71.9541
 L 72.0394,-71.3373 L 72,-70.7107 L 72,-0 L 72.0394,0.626663 L 72.1571,1.24344 L 72.3511,1.84062
 L 72.6185,2.40877 L 72.9549,2.93892 L 73.3552,3.42273 L 73.8129,3.85255 L 74.3209,4.22163 L 74.8711,4.52412
 L 75.4549,4.75528 L 76.0631,4.91142 L 76.6861,4.99013 L 77.3139,4.99013 z
M 76.9058,-69.2136 L 76.7189,-69.2372 L 76.5365,-69.2841 L 76.3613,-69.3534 L 76.1963,-69.4442 L 76.0439,-69.5549
 L 75.9066,-69.6839 L 75.7865,-69.829 L 75.6855,-69.988 L 75.6053,-70.1585 L 75.5471,-70.3376 L 75.5118,-70.5227
 L 75.5,-70.7107 L 75.5118,-70.8987 L 75.5471,-71.0837 L 75.6053,-71.2629 L 75.6855,-71.4333 L 75.7865,-71.5923
 L 75.9066,-71.7375 L 76.0439,-71.8664 L 76.1963,-71.9772 L 76.3613,-72.0679 L 76.5365,-72.1373 L 76.7189,-72.1841
 L 76.9058,-72.2077 L 77.0942,-72.2077 L 77.2811,-72.1841 L 77.4635,-72.1373 L 77.6387,-72.0679 L 77.8037,-71.9772
 L 77.9561,-71.8664 L 78.0934,-71.7375 L 78.2135,-71.5923 L 78.3145,-71.4333 L 78.3947,-71.2629 L 78.4529,-71.0837
 L 78.4882,-70.8987 L 78.5,-70.7107 L 78.4882,-70.5227 L 78.4529,-70.3376 L 78.3947,-70.1585 L 78.3145,-69.988
 L 78.2135,-69.829 L 78.0934,-69.6839 L 77.9561,-69.5549 L 77.8037,-69.4442 L 77.6387,-69.3534 L 77.4635,-69.2841
 L 77.2811,-69.2372 L 77.0942,-69.2136 z
M 76.9058,1.49704 L 76.7189,1.47342 L 76.5365,1.42657 L 76.3613,1.35724 L 76.1963,1.26648 L 76.0439,1.15576
 L 75.9066,1.02681 L 75.7865,0.881668 L 75.6855,0.722626 L 75.6053,0.552185 L 75.5471,0.373032 L 75.5118,0.187988
 L 75.5,-0 L 75.5118,-0.187988 L 75.5471,-0.373032 L 75.6053,-0.552185 L 75.6855,-0.722626 L 75.7865,-0.881668
 L 75.9066,-1.02681 L 76.0439,-1.15576 L 76.1963,-1.26648 L 76.3613,-1.35724 L 76.5365,-1.42657 L 76.7189,-1.47342
 L 76.9058,-1.49704 L 77.0942,-1.49704 L 77.2811,-1.47342 L 77.4635,-1.42657 L 77.6387,-1.35724 L 77.8037,-1.26648
 L 77.9561,-1.15576 L 78.0934,-1.02681 L 78.2135,-0.881668 L 78.3145,-0.722626 L 78.3947,-0.552185 L 78.4529,-0.373032
 L 78.4882,-0.187988 L 78.5,-0 L 78.4882,0.187988 L 78.4529,0.373032 L 78.3947,0.552185 L 78.3145,0.722626
 L 78.2135,0.881668 L 78.0934,1.02681 L 77.9561,1.15576 L 77.8037,1.26648 L 77.6387,1.35724 L 77.4635,1.42657
 L 77.2811,1.47342 L 77.0942,1.49704 z
M 11.9369,4.91142 L 12.5451,4.75528 L 13.1289,4.52412 L 13.6791,4.22163 L 14.1871,3.85255 L 14.6448,3.42273
 L 15.0451,2.93892 L 15.3815,2.40877 L 15.6489,1.84062 L 15.8429,1.24344 L 15.9606,0.626663 L 16,-0
 L 16,-70.7107 L 15.9606,-71.3373 L 15.8429,-71.9541 L 15.6489,-72.5513 L 15.3815,-73.1194 L 15.0451,-73.6496
 L 14.6448,-74.1334 L 14.1871,-74.5632 L 13.6791,-74.9323 L 13.1289,-75.2348 L 12.5451,-75.466 L 11.9369,-75.6221
 L 11.3139,-75.7008 L 10.6861,-75.7008 L 10.0631,-75.6221 L 9.45493,-75.466 L 8.87111,-75.2348 L 8.32088,-74.9323
 L 7.81288,-74.5632 L 7.35516,-74.1334 L 6.95493,-73.6496 L 6.61847,-73.1194 L 6.35112,-72.5513 L 6.15709,-71.9541
 L 6.03943,-71.3373 L 6,-70.7107 L 6,-0 L 6.03943,0.626663 L 6.15709,1.24344 L 6.35112,1.84062
 L 6.61847,2.40877 L 6.95493,2.93892 L 7.35516,3.42273 L 7.81288,3.85255 L 8.32088,4.22163 L 8.87111,4.52412
 L 9.45493,4.75528 L 10.0631,4.91142 L 10.6861,4.99013 L 11.3139,4.99013 z
M 10.9058,-69.2136 L 10.7189,-69.2372 L 10.5365,-69.2841 L 10.3613,-69.3534 L 10.1963,-69.4442 L 10.0439,-69.5549
 L 9.90656,-69.6839 L 9.78648,-69.829 L 9.68555,-69.988 L 9.60535,-70.1585 L 9.54713,-70.3376 L 9.51184,-70.5227
 L 9.5,-70.7107 L 9.51184,-70.8987 L 9.54713,-71.0837 L 9.60535,-71.2629 L 9.68555,-71.4333 L 9.78648,-71.5923
 L 9.90656,-71.7375 L 10.0439,-71.8664 L 10.1963,-71.9772 L 10.3613,-72.0679 L 10.5365,-72.1373 L 10.7189,-72.1841
 L 10.9058,-72.2077 L 11.0942,-72.2077 L 11.2811,-72.1841 L 11.4635,-72.1373 L 11.6387,-72.0679 L 11.8037,-71.9772
 L 11.9561,-71.8664 L 12.0934,-71.7375 L 12.2135,-71.5923 L 12.3145,-71.4333 L 12.3947,-71.2629 L 12.4529,-71.0837
 L 12.4882,-70.8987 L 12.5,-70.7107 L 12.4882,-70.5227 L 12.4529,-70.3376 L 12.3947,-70.1585 L 12.3145,-69.988
 L 12.2135,-69.829 L 12.0934,-69.6839 L 11.9561,-69.5549 L 11.8037,-69.4442 L 11.6387,-69.3534 L 11.4635,-69.2841
 L 11.2811,-69.2372 L 11.0942,-69.2136 z
M 10.9058,1.49704 L 10.7189,1.47342 L 10.5365,1.42657 L 10.3613,1.35724 L 10.1963,1.26648 L 10.0439,1.15576
 L 9.90656,1.02681 L 9.78648,0.881668 L 9.68555,0.722626 L 9.60535,0.552185 L 9.54713,0.373032 L 9.51184,0.187988
 L 9.5,-0 L 9.51184,-0.187988 L 9.54713,-0.373032 L 9.60535,-0.552185 L 9.68555,-0.722626 L 9.78648,-0.881668
 L 9.90656,-1.02681 L 10.0439,-1.15576 L 10.1963,-1.26648 L 10.3613,-1.35724 L 10.5365,-1.42657 L 10.7189,-1.47342
 L 10.9058,-1.49704 L 11.0942,-1.49704 L 11.2811,-1.47342 L 11.4635,-1.42657 L 11.6387,-1.35724 L 11.8037,-1.26648
 L 11.9561,-1.15576 L 12.0934,-1.02681 L 12.2135,-0.881668 L 12.3145,-0.722626 L 12.3947,-0.552185 L 12.4529,-0.373032
 L 12.4882,-0.187988 L 12.5,-0 L 12.4882,0.187988 L 12.4529,0.373032 L 12.3947,0.552185 L 12.3145,0.722626
 L 12.2135,0.881668 L 12.0934,1.02681 L 11.9561,1.15576 L 11.8037,1.26648 L 11.6387,1.35724 L 11.4635,1.42657
 L 11.2811,1.47342 L 11.0942,1.49704 z
M 0.936905,4.91142 L 1.54507,4.75528 L 2.12889,4.52412 L 2.67912,4.22163 L 3.18712,3.85255 L 3.64484,3.42273
 L 4.04507,2.93892 L 4.38153,2.40877 L 4.64888,1.84062 L 4.84291,1.24344 L 4.96057,0.626663 L 5,-0
 L 5,-70.7107 L 4.96057,-71.3373 L 4.84291,-71.9541 L 4.64888,-72.5513 L 4.38153,-73.1194 L 4.04507,-73.6496
 L 3.64484,-74.1334 L 3.18712,-74.5632 L 2.67912,-74.9323 L 2.12889,-75.2348 L 1.54507,-75.466 L 0.936905,-75.6221
 L 0.31395,-75.7008 L -0.31395,-75.7008 L -0.936905,-75.6221 L -1.54507,-75.466 L -2.12889,-75.2348 L -2.67912,-74.9323
 L -3.18712,-74.5632 L -3.64484,-74.1334 L -4.04507,-73.6496 L -4.38153,-73.1194 L -4.64888,-72.5513 L -4.84291,-71.9541
 L -4.96057,-71.3373 L -5,-70.7107 L -5,-0 L -4.96057,0.626663 L -4.84291,1.24344 L -4.64888,1.84062
 L -4.38153,2.40877 L -4.04507,2.93892 L -3.64484,3.42273 L -3.18712,3.85255 L -2.67912,4.22163 L -2.12889,4.52412
 L -1.54507,4.75528 L -0.936905,4.91142 L -0.31395,4.99013 L 0.31395,4.99013 z
M -0.0941772,-69.2136 L -0.281067,-69.2372 L -0.463516,-69.2841 L -0.638657,-69.3534 L -0.803726,-69.4442 L -0.956131,-69.5549
 L -1.09344,-69.6839 L -1.21352,-69.829 L -1.31445,-69.988 L -1.39465,-70.1585 L -1.45287,-70.3376 L -1.48816,-70.5227
 L -1.5,-70.7107 L -1.48816,-70.8987 L -1.45287,-71.0837 L -1.39465,-71.2629 L -1.31445,-71.4333 L -1.21352,-71.5923
 L -1.09344,-71.7375 L -0.956131,-71.8664 L -0.803726,-71.9772 L -0.638657,-72.0679 L -0.463516,-72.1373 L -0.281067,-72.1841
 L -0.0941772,-72.2077 L 0.0941772,-72.2077 L 0.281067,-72.1841 L 0.463516,-72.1373 L 0.638657,-72.0679 L 0.803726,-71.9772
 L 0.956131,-71.8664 L 1.09344,-71.7375 L 1.21352,-71.5923 L 1.31445,-71.4333 L 1.39465,-71.2629 L 1.45287,-71.0837
 L 1.48816,-70.8987 L 1.5,-70.7107 L 1.48816,-70.5227 L 1.45287,-70.3376 L 1.39465,-70.1585 L 1.31445,-69.988
 L 1.21352,-69.829 L 1.09344,-69.6839 L 0.956131,-69.5549 L 0.803726,-69.4442 L 0.638657,-69.3534 L 0.463516,-69.2841
 L 0.281067,-69.2372 L 0.0941772,-69.2136 z
M -0.0941772,1.49704 L -0.281067,1.47342 L -0.463516,1.42657 L -0.638657,1.35724 L -0.803726,1.26648 L -0.956131,1.15576
 L -1.09344,1.02681 L -1.21352,0.881668 L -1.31445,0.722626 L -1.39465,0.552185 L -1.45287,0.373032 L -1.48816,0.187988
 L -1.5,-0 L -1.48816,-0.187988 L -1.45287,-0.373032 L -1.39465,-0.552185 L -1.31445,-0.722626 L -1.21352,-0.881668
 L -1.09344,-1.02681 L -0.956131,-1.15576 L -0.803726,-1.26648 L -0.638657,-1.35724 L -0.463516,-1.42657 L -0.281067,-1.47342
 L -0.0941772,-1.49704 L 0.0941772,-1.49704 L 0.281067,-1.47342 L 0.463516,-1.42657 L 0.638657,-1.35724 L 0.803726,-1.26648
 L 0.956131,-1.15576 L 1.09344,-1.02681 L 1.21352,-0.881668 L 1.31445,-0.722626 L 1.39465,-0.552185 L 1.45287,-0.373032
 L 1.48816,-0.187988 L 1.5,-0 L 1.48816,0.187988 L 1.45287,0.373032 L 1.39465,0.552185 L 1.31445,0.722626
 L 1.21352,0.881668 L 1.09344,1.02681 L 0.956131,1.15576 L 0.803726,1.26648 L 0.638657,1.35724 L 0.463516,1.42657
 L 0.281067,1.47342 L 0.0941772,1.49704 z
" stroke="black" fill="lightgray" stroke-width="0.5"/>
</svg>
