<?xml version="1.0" standalone="no"?>
<!DOCTYPE svg PUBLIC "-//W3C//DTD SVG 1.1//EN" "http://www.w3.org/Graphics/SVG/1.1/DTD/svg11.dtd">
<svg width="901mm" height="201mm" viewBox="0 -201 901 201" xmlns="http://www.w3.org/2000/svg" version="1.1">
<title>OpenSCAD Model</title>
<path d="
M 20.3636,-54.01 L 28.7273,-54.01 L 28.7273,-50.01 L 37.0909,-50.01 L 37.0909,-54.01 L 45.4545,-54.01
 L 45.4545,-50.01 L 53.8182,-50.01 L 53.8182,-54.01 L 62.1818,-54.01 L 62.1818,-50.01 L 70.5454,-50.01
 L 70.5454,-54.01 L 78.9091,-54.01 L 78.9091,-50.01 L 87.2727,-50.01 L 87.2727,-54.01 L 95.6364,-54.01
 L 95.6364,-50.01 L 104,-50.01 L 104,-54.01 L 112.364,-54.01 L 112.364,-50.01 L 120.727,-50.01
 L 120.727,-54.01 L 129.091,-54.01 L 129.091,-50.01 L 137.455,-50.01 L 137.455,-54.01 L 145.818,-54.01
 L 145.818,-50.01 L 154.182,-50.01 L 154.182,-54.01 L 162.545,-54.01 L 162.545,-50.01 L 170.909,-50.01
 L 170.909,-54.01 L 179.273,-54.01 L 179.273,-50.01 L 187.636,-50.01 L 187.636,-54.01 L 196,-54.01
 L 196,-50.01 L 204.364,-50.01 L 204.364,-54.01 L 212.727,-54.01 L 212.727,-50.01 L 221.091,-50.01
 L 221.091,-54.01 L 229.455,-54.01 L 229.455,-50.01 L 237.818,-50.01 L 237.818,-54.01 L 246.182,-54.01
 L 246.182,-50.01 L 254.545,-50.01 L 254.545,-54.01 L 262.909,-54.01 L 262.909,-50.01 L 271.273,-50.01
 L 271.273,-54.01 L 279.636,-54.01 L 279.636,-50.01 L 288,-50.01 L 288,-54.01 L 296,-54.01
 L 296,-66.01 L 300,-66.01 L 300,-75.0869 L 296,-75.0869 L 296,-84.1638 L 300,-84.1638
 L 300,-93.2408 L 296,-93.2408 L 296,-102.318 L 300,-102.318 L 300,-111.395 L 296,-111.395
 L 296,-120.472 L 300,-120.472 L 300,-129.548 L 296,-129.548 L 296,-138.625 L 300,-138.625
 L 300,-147.702 L 296,-147.702 L 296,-156.779 L 300,-156.779 L 300,-165.856 L 296,-165.856
 L 296,-174.933 L 300,-174.933 L 300,-184.01 L 296,-184.01 L 296,-196.01 L 288,-196.01
 L 288,-200.01 L 279.636,-200.01 L 279.636,-196.01 L 271.273,-196.01 L 271.273,-200.01 L 262.909,-200.01
 L 262.909,-196.01 L 254.545,-196.01 L 254.545,-200.01 L 246.182,-200.01 L 246.182,-196.01 L 237.818,-196.01
 L 237.818,-200.01 L 229.455,-200.01 L 229.455,-196.01 L 221.091,-196.01 L 221.091,-200.01 L 212.727,-200.01
 L 212.727,-196.01 L 204.364,-196.01 L 204.364,-200.01 L 196,-200.01 L 196,-196.01 L 187.636,-196.01
 L 187.636,-200.01 L 179.273,-200.01 L 179.273,-196.01 L 170.909,-196.01 L 170.909,-200.01 L 162.545,-200.01
 L 162.545,-196.01 L 154.182,-196.01 L 154.182,-200.01 L 145.818,-200.01 L 145.818,-196.01 L 137.455,-196.01
 L 137.455,-200.01 L 129.091,-200.01 L 129.091,-196.01 L 120.727,-196.01 L 120.727,-200.01 L 112.364,-200.01
 L 112.364,-196.01 L 104,-196.01 L 104,-200.01 L 95.6364,-200.01 L 95.6364,-196.01 L 87.2727,-196.01
 L 87.2727,-200.01 L 78.9091,-200.01 L 78.9091,-196.01 L 70.5455,-196.01 L 70.5455,-200.01 L 62.1818,-200.01
 L 62.1818,-196.01 L 53.8182,-196.01 L 53.8182,-200.01 L 45.4546,-200.01 L 45.4546,-196.01 L 37.0909,-196.01
 L 37.0909,-200.01 L 28.7273,-200.01 L 28.7273,-196.01 L 20.3636,-196.01 L 20.3636,-200.01 L 12,-200.01
 L 12,-196.01 L 3.99998,-196.01 L 3.99998,-184.01 L 0,-184.01 L 0,-174.933 L 3.99998,-174.933
 L 3.99998,-165.856 L 0,-165.856 L 0,-156.779 L 3.99998,-156.779 L 3.99998,-147.702 L 0,-147.702
 L 0,-138.625 L 3.99998,-138.625 L 3.99998,-129.548 L 0,-129.548 L 0,-120.472 L 4,-120.472
 L 4,-111.395 L 0,-111.395 L 0,-102.318 L 4,-102.318 L 4,-93.2408 L 0,-93.2408
 L 0,-84.1638 L 4,-84.1638 L 4,-75.0869 L 0,-75.0869 L 0,-66.01 L 4,-66.01
 L 4,-54.01 L 12,-54.01 L 12,-50.01 L 20.3636,-50.01 z
M 446.01,-70.01 L 450.01,-70.01 L 450.01,-88.01 L 446.01,-88.01 L 446.01,-100.01 L 304.01,-100.01
 L 304.01,-88.01 L 300.01,-88.01 L 300.01,-70.01 L 304.01,-70.01 L 304.01,-54.01 L 446.01,-54.01
 z
M 616.02,-4 L 625.097,-4 L 625.097,-0 L 634.174,-0 L 634.174,-4 L 643.251,-4
 L 643.251,-0 L 652.328,-0 L 652.328,-4 L 661.405,-4 L 661.405,-0 L 670.482,-0
 L 670.482,-4 L 679.558,-4 L 679.558,-0 L 688.635,-0 L 688.635,-4 L 697.712,-4
 L 697.712,-0 L 706.789,-0 L 706.789,-4 L 715.866,-4 L 715.866,-0 L 724.943,-0
 L 724.943,-4 L 734.02,-4 L 734.02,-0 L 746.02,-0 L 746.02,-12 L 750.02,-12
 L 750.02,-20.6667 L 746.02,-20.6667 L 746.02,-29.3333 L 750.02,-29.3333 L 750.02,-38 L 746.02,-38
 L 746.02,-50 L 604.02,-50 L 604.02,-38 L 600.02,-38 L 600.02,-29.3333 L 604.02,-29.3333
 L 604.02,-20.6667 L 600.02,-20.6667 L 600.02,-12 L 604.02,-12 L 604.02,-0 L 616.02,-0
 z
M 766.03,-4 L 775.107,-4 L 775.107,-0 L 784.184,-0 L 784.184,-4 L 793.261,-4
 L 793.261,-0 L 802.338,-0 L 802.338,-4 L 811.415,-4 L 811.415,-0 L 820.492,-0
 L 820.492,-4 L 829.568,-4 L 829.568,-0 L 838.645,-0 L 838.645,-4 L 847.722,-4
 L 847.722,-0 L 856.799,-0 L 856.799,-4 L 865.876,-4 L 865.876,-0 L 874.953,-0
 L 874.953,-4 L 884.03,-4 L 884.03,-0 L 896.03,-0 L 896.03,-12 L 900.03,-12
 L 900.03,-20.6667 L 896.03,-20.6667 L 896.03,-29.3333 L 900.03,-29.3333 L 900.03,-38 L 896.03,-38
 L 896.03,-50 L 754.03,-50 L 754.03,-38 L 750.03,-38 L 750.03,-29.3333 L 754.03,-29.3333
 L 754.03,-20.6667 L 750.03,-20.6667 L 750.03,-12 L 754.03,-12 L 754.03,-0 L 766.03,-0
 z
M 12,-4 L 20.3636,-4 L 20.3636,-0 L 28.7273,-0 L 28.7273,-4 L 37.0909,-4
 L 37.0909,-0 L 45.4545,-0 L 45.4545,-4 L 53.8182,-4 L 53.8182,-0 L 62.1818,-0
 L 62.1818,-4 L 70.5454,-4 L 70.5454,-0 L 78.9091,-0 L 78.9091,-4 L 87.2727,-4
 L 87.2727,-0 L 95.6364,-0 L 95.6364,-4 L 104,-4 L 104,-0 L 112.364,-0
 L 112.364,-4 L 120.727,-4 L 120.727,-0 L 129.091,-0 L 129.091,-4 L 137.455,-4
 L 137.455,-0 L 145.818,-0 L 145.818,-4 L 154.182,-4 L 154.182,-0 L 162.545,-0
 L 162.545,-4 L 170.909,-4 L 170.909,-0 L 179.273,-0 L 179.273,-4 L 187.636,-4
 L 187.636,-0 L 196,-0 L 196,-4 L 204.364,-4 L 204.364,-0 L 212.727,-0
 L 212.727,-4 L 221.091,-4 L 221.091,-0 L 229.455,-0 L 229.455,-4 L 237.818,-4
 L 237.818,-0 L 246.182,-0 L 246.182,-4 L 254.545,-4 L 254.545,-0 L 262.909,-0
 L 262.909,-4 L 271.273,-4 L 271.273,-0 L 279.636,-0 L 279.636,-4 L 288,-4
 L 288,-0 L 300,-0 L 300,-12 L 296,-12 L 296,-20.6667 L 300,-20.6667
 L 300,-29.3333 L 296,-29.3333 L 296,-38 L 300,-38 L 300,-50 L 0,-50
 L 0,-38 L 3.99998,-38 L 3.99998,-29.3333 L 0,-29.3333 L 0,-20.6667 L 4,-20.6667
 L 4,-12 L 0,-12 L 0,-0 L 12,-0 z
M 148,-20 L 148,-38 L 152.01,-38 L 152.01,-20 z
M 224.906,-23.5029 L 224.719,-23.5266 L 224.536,-23.5734 L 224.361,-23.6427 L 224.196,-23.7335 L 224.044,-23.8442
 L 223.907,-23.9732 L 223.786,-24.1183 L 223.686,-24.2774 L 223.605,-24.4478 L 223.547,-24.627 L 223.512,-24.812
 L 223.5,-25 L 223.512,-25.188 L 223.547,-25.373 L 223.605,-25.5522 L 223.686,-25.7226 L 223.786,-25.8817
 L 223.907,-26.0268 L 224.044,-26.1558 L 224.196,-26.2665 L 224.361,-26.3572 L 224.536,-26.4266 L 224.719,-26.4734
 L 224.906,-26.497 L 225.094,-26.497 L 225.281,-26.4734 L 225.464,-26.4266 L 225.639,-26.3572 L 225.804,-26.2665
 L 225.956,-26.1558 L 226.093,-26.0268 L 226.214,-25.8817 L 226.314,-25.7226 L 226.395,-25.5522 L 226.453,-25.373
 L 226.488,-25.188 L 226.5,-25 L 226.488,-24.812 L 226.453,-24.627 L 226.395,-24.4478 L 226.314,-24.2774
 L 226.214,-24.1183 L 226.093,-23.9732 L 225.956,-23.8442 L 225.804,-23.7335 L 225.639,-23.6427 L 225.464,-23.5734
 L 225.281,-23.5266 L 225.094,-23.5029 z
M 274.906,-23.5029 L 274.719,-23.5266 L 274.536,-23.5734 L 274.361,-23.6427 L 274.196,-23.7335 L 274.044,-23.8442
 L 273.907,-23.9732 L 273.786,-24.1183 L 273.686,-24.2774 L 273.605,-24.4478 L 273.547,-24.627 L 273.512,-24.812
 L 273.5,-25 L 273.512,-25.188 L 273.547,-25.373 L 273.605,-25.5522 L 273.686,-25.7226 L 273.786,-25.8817
 L 273.907,-26.0268 L 274.044,-26.1558 L 274.196,-26.2665 L 274.361,-26.3572 L 274.536,-26.4266 L 274.719,-26.4734
 L 274.906,-26.497 L 275.094,-26.497 L 275.281,-26.4734 L 275.464,-26.4266 L 275.639,-26.3572 L 275.804,-26.2665
 L 275.956,-26.1558 L 276.093,-26.0268 L 276.214,-25.8817 L 276.314,-25.7226 L 276.395,-25.5522 L 276.453,-25.373
 L 276.488,-25.188 L 276.5,-25 L 276.488,-24.812 L 276.453,-24.627 L 276.395,-24.4478 L 276.314,-24.2774
 L 276.214,-24.1183 L 276.093,-23.9732 L 275.956,-23.8442 L 275.804,-23.7335 L 275.639,-23.6427 L 275.464,-23.5734
 L 275.281,-23.5266 L 275.094,-23.5029 z
M 74.9058,-23.5029 L 74.7189,-23.5266 L 74.5365,-23.5734 L 74.3613,-23.6427 L 74.1963,-23.7335 L 74.0439,-23.8442
 L 73.9065,-23.9732 L 73.7865,-24.1183 L 73.6855,-24.2774 L 73.6053,-24.4478 L 73.5471,-24.627 L 73.5118,-24.812
 L 73.5,-25 L 73.5118,-25.188 L 73.5471,-25.373 L 73.6053,-25.5522 L 73.6855,-25.7226 L 73.7865,-25.8817
 L 73.9065,-26.0268 L 74.0439,-26.1558 L 74.1963,-26.2665 L 74.3613,-26.3572 L 74.5365,-26.4266 L 74.7189,-26.4734
 L 74.9058,-26.497 L 75.0942,-26.497 L 75.2811,-26.4734 L 75.4635,-26.4266 L 75.6387,-26.3572 L 75.8037,-26.2665
 L 75.9561,-26.1558 L 76.0934,-26.0268 L 76.2135,-25.8817 L 76.3145,-25.7226 L 76.3947,-25.5522 L 76.4529,-25.373
 L 76.4882,-25.188 L 76.5,-25 L 76.4882,-24.812 L 76.4529,-24.627 L 76.3947,-24.4478 L 76.3145,-24.2774
 L 76.2135,-24.1183 L 76.0934,-23.9732 L 75.9561,-23.8442 L 75.8037,-23.7335 L 75.6387,-23.6427 L 75.4635,-23.5734
 L 75.2811,-23.5266 L 75.0942,-23.5029 z
M 24.9058,-23.5029 L 24.7189,-23.5266 L 24.5365,-23.5734 L 24.3613,-23.6427 L 24.1963,-23.7335 L 24.0439,-23.8442
 L 23.9065,-23.9732 L 23.7865,-24.1183 L 23.6855,-24.2774 L 23.6053,-24.4478 L 23.5471,-24.627 L 23.5118,-24.812
 L 23.5,-25 L 23.5118,-25.188 L 23.5471,-25.373 L 23.6053,-25.5522 L 23.6855,-25.7226 L 23.7865,-25.8817
 L 23.9065,-26.0268 L 24.0439,-26.1558 L 24.1963,-26.2665 L 24.3613,-26.3572 L 24.5365,-26.4266 L 24.7189,-26.4734
 L 24.9058,-26.497 L 25.0942,-26.497 L 25.2811,-26.4734 L 25.4635,-26.4266 L 25.6387,-26.3572 L 25.8037,-26.2665
 L 25.9561,-26.1558 L 26.0934,-26.0268 L 26.2135,-25.8817 L 26.3145,-25.7226 L 26.3947,-25.5522 L 26.4529,-25.373
 L 26.4882,-25.188 L 26.5,-25 L 26.4882,-24.812 L 26.4529,-24.627 L 26.3947,-24.4478 L 26.3145,-24.2774
 L 26.2135,-24.1183 L 26.0934,-23.9732 L 25.9561,-23.8442 L 25.8037,-23.7335 L 25.6387,-23.6427 L 25.4635,-23.5734
 L 25.2811,-23.5266 L 25.0942,-23.5029 z
M 312.01,-4 L 320.374,-4 L 320.374,-0 L 328.737,-0 L 328.737,-4 L 337.101,-4
 L 337.101,-0 L 345.465,-0 L 345.465,-4 L 353.828,-4 L 353.828,-0 L 362.192,-0
 L 362.192,-4 L 370.555,-4 L 370.555,-0 L 378.919,-0 L 378.919,-4 L 387.283,-4
 L 387.283,-0 L 395.646,-0 L 395.646,-4 L 404.01,-4 L 404.01,-0 L 412.374,-0
 L 412.374,-4 L 420.737,-4 L 420.737,-0 L 429.101,-0 L 429.101,-4 L 437.465,-4
 L 437.465,-0 L 445.828,-0 L 445.828,-4 L 454.192,-4 L 454.192,-0 L 462.555,-0
 L 462.555,-4 L 470.919,-4 L 470.919,-0 L 479.283,-0 L 479.283,-4 L 487.646,-4
 L 487.646,-0 L 496.01,-0 L 496.01,-4 L 504.374,-4 L 504.374,-0 L 512.737,-0
 L 512.737,-4 L 521.101,-4 L 521.101,-0 L 529.465,-0 L 529.465,-4 L 537.828,-4
 L 537.828,-0 L 546.192,-0 L 546.192,-4 L 554.555,-4 L 554.555,-0 L 562.919,-0
 L 562.919,-4 L 571.283,-4 L 571.283,-0 L 579.646,-0 L 579.646,-4 L 588.01,-4
 L 588.01,-0 L 600.01,-0 L 600.01,-12 L 596.01,-12 L 596.01,-20.6667 L 600.01,-20.6667
 L 600.01,-29.3333 L 596.01,-29.3333 L 596.01,-38 L 600.01,-38 L 600.01,-50 L 300.01,-50
 L 300.01,-38 L 304.01,-38 L 304.01,-29.3333 L 300.01,-29.3333 L 300.01,-20.6667 L 304.01,-20.6667
 L 304.01,-12 L 300.01,-12 L 300.01,-0 L 312.01,-0 z
M 448.01,-20 L 448.01,-38 L 452.02,-38 L 452.02,-20 z
M 374.916,-23.5029 L 374.729,-23.5266 L 374.546,-23.5734 L 374.371,-23.6427 L 374.206,-23.7335 L 374.054,-23.8442
 L 373.917,-23.9732 L 373.796,-24.1183 L 373.696,-24.2774 L 373.615,-24.4478 L 373.557,-24.627 L 373.522,-24.812
 L 373.51,-25 L 373.522,-25.188 L 373.557,-25.373 L 373.615,-25.5522 L 373.696,-25.7226 L 373.796,-25.8817
 L 373.917,-26.0268 L 374.054,-26.1558 L 374.206,-26.2665 L 374.371,-26.3572 L 374.546,-26.4266 L 374.729,-26.4734
 L 374.916,-26.497 L 375.104,-26.497 L 375.291,-26.4734 L 375.474,-26.4266 L 375.649,-26.3572 L 375.814,-26.2665
 L 375.966,-26.1558 L 376.103,-26.0268 L 376.224,-25.8817 L 376.324,-25.7226 L 376.405,-25.5522 L 376.463,-25.373
 L 376.498,-25.188 L 376.51,-25 L 376.498,-24.812 L 376.463,-24.627 L 376.405,-24.4478 L 376.324,-24.2774
 L 376.224,-24.1183 L 376.103,-23.9732 L 375.966,-23.8442 L 375.814,-23.7335 L 375.649,-23.6427 L 375.474,-23.5734
 L 375.291,-23.5266 L 375.104,-23.5029 z
M 574.916,-23.5029 L 574.729,-23.5266 L 574.546,-23.5734 L 574.371,-23.6427 L 574.206,-23.7335 L 574.054,-23.8442
 L 573.917,-23.9732 L 573.796,-24.1183 L 573.696,-24.2774 L 573.615,-24.4478 L 573.557,-24.627 L 573.522,-24.812
 L 573.51,-25 L 573.522,-25.188 L 573.557,-25.373 L 573.615,-25.5522 L 573.696,-25.7226 L 573.796,-25.8817
 L 573.917,-26.0268 L 574.054,-26.1558 L 574.206,-26.2665 L 574.371,-26.3572 L 574.546,-26.4266 L 574.729,-26.4734
 L 574.916,-26.497 L 575.104,-26.497 L 575.291,-26.4734 L 575.474,-26.4266 L 575.649,-26.3572 L 575.814,-26.2665
 L 575.966,-26.1558 L 576.103,-26.0268 L 576.224,-25.8817 L 576.324,-25.7226 L 576.405,-25.5522 L 576.463,-25.373
 L 576.498,-25.188 L 576.51,-25 L 576.498,-24.812 L 576.463,-24.627 L 576.405,-24.4478 L 576.324,-24.2774
 L 576.224,-24.1183 L 576.103,-23.9732 L 575.966,-23.8442 L 575.814,-23.7335 L 575.649,-23.6427 L 575.474,-23.5734
 L 575.291,-23.5266 L 575.104,-23.5029 z
M 524.916,-23.5029 L 524.729,-23.5266 L 524.546,-23.5734 L 524.371,-23.6427 L 524.206,-23.7335 L 524.054,-23.8442
 L 523.917,-23.9732 L 523.796,-24.1183 L 523.696,-24.2774 L 523.615,-24.4478 L 523.557,-24.627 L 523.522,-24.812
 L 523.51,-25 L 523.522,-25.188 L 523.557,-25.373 L 523.615,-25.5522 L 523.696,-25.7226 L 523.796,-25.8817
 L 523.917,-26.0268 L 524.054,-26.1558 L 524.206,-26.2665 L 524.371,-26.3572 L 524.546,-26.4266 L 524.729,-26.4734
 L 524.916,-26.497 L 525.104,-26.497 L 525.291,-26.4734 L 525.474,-26.4266 L 525.649,-26.3572 L 525.814,-26.2665
 L 525.966,-26.1558 L 526.103,-26.0268 L 526.224,-25.8817 L 526.324,-25.7226 L 526.405,-25.5522 L 526.463,-25.373
 L 526.498,-25.188 L 526.51,-25 L 526.498,-24.812 L 526.463,-24.627 L 526.405,-24.4478 L 526.324,-24.2774
 L 526.224,-24.1183 L 526.103,-23.9732 L 525.966,-23.8442 L 525.814,-23.7335 L 525.649,-23.6427 L 525.474,-23.5734
 L 525.291,-23.5266 L 525.104,-23.5029 z
M 324.916,-23.5029 L 324.729,-23.5266 L 324.546,-23.5734 L 324.371,-23.6427 L 324.206,-23.7335 L 324.054,-23.8442
 L 323.917,-23.9732 L 323.796,-24.1183 L 323.696,-24.2774 L 323.615,-24.4478 L 323.557,-24.627 L 323.522,-24.812
 L 323.51,-25 L 323.522,-25.188 L 323.557,-25.373 L 323.615,-25.5522 L 323.696,-25.7226 L 323.796,-25.8817
 L 323.917,-26.0268 L 324.054,-26.1558 L 324.206,-26.2665 L 324.371,-26.3572 L 324.546,-26.4266 L 324.729,-26.4734
 L 324.916,-26.497 L 325.104,-26.497 L 325.291,-26.4734 L 325.474,-26.4266 L 325.649,-26.3572 L 325.814,-26.2665
 L 325.966,-26.1558 L 326.103,-26.0268 L 326.224,-25.8817 L 326.324,-25.7226 L 326.405,-25.5522 L 326.463,-25.373
 L 326.498,-25.188 L 326.51,-25 L 326.498,-24.812 L 326.463,-24.627 L 326.405,-24.4478 L 326.324,-24.2774
 L 326.224,-24.1183 L 326.103,-23.9732 L 325.966,-23.8442 L 325.814,-23.7335 L 325.649,-23.6427 L 325.474,-23.5734
 L 325.291,-23.5266 L 325.104,-23.5029 z
" stroke="black" fill="lightgray" stroke-width="0.5"/>
</svg>
