<?xml version="1.0" standalone="no"?>
<!DOCTYPE svg PUBLIC "-//W3C//DTD SVG 1.1//EN" "http://www.w3.org/Graphics/SVG/1.1/DTD/svg11.dtd">
<svg width="621mm" height="211mm" viewBox="-10 -211 621 211" xmlns="http://www.w3.org/2000/svg" version="1.1">
<title>OpenSCAD Model</title>
<path d="
M 20.4,-64.01 L 28.8,-64.01 L 28.8,-60.01 L 37.2,-60.01 L 37.2,-64.01 L 45.6,-64.01
 L 45.6,-60.01 L 54,-60.01 L 54,-64.01 L 62.4,-64.01 L 62.4,-60.01 L 70.8,-60.01
 L 70.8,-64.01 L 79.2,-64.01 L 79.2,-60.01 L 87.6,-60.01 L 87.6,-64.01 L 96,-64.01
 L 96,-60.01 L 104.4,-60.01 L 104.4,-64.01 L 112.8,-64.01 L 112.8,-60.01 L 121.2,-60.01
 L 121.2,-64.01 L 129.6,-64.01 L 129.6,-60.01 L 138,-60.01 L 138,-64.01 L 146,-64.01
 L 146,-76.01 L 150,-76.01 L 150,-85.0869 L 146,-85.0869 L 146,-94.1638 L 150,-94.1638
 L 150,-103.241 L 146,-103.241 L 146,-112.318 L 150,-112.318 L 150,-121.395 L 146,-121.395
 L 146,-130.472 L 150,-130.472 L 150,-139.548 L 146,-139.548 L 146,-148.625 L 150,-148.625
 L 150,-157.702 L 146,-157.702 L 146,-166.779 L 150,-166.779 L 150,-175.856 L 146,-175.856
 L 146,-184.933 L 150,-184.933 L 150,-194.01 L 146,-194.01 L 146,-206.01 L 138,-206.01
 L 138,-210.01 L 129.6,-210.01 L 129.6,-206.01 L 121.2,-206.01 L 121.2,-210.01 L 112.8,-210.01
 L 112.8,-206.01 L 104.4,-206.01 L 104.4,-210.01 L 96,-210.01 L 96,-206.01 L 87.6,-206.01
 L 87.6,-210.01 L 79.2,-210.01 L 79.2,-206.01 L 70.8,-206.01 L 70.8,-210.01 L 62.4,-210.01
 L 62.4,-206.01 L 54,-206.01 L 54,-210.01 L 45.6,-210.01 L 45.6,-206.01 L 37.2,-206.01
 L 37.2,-210.01 L 28.8,-210.01 L 28.8,-206.01 L 20.4,-206.01 L 20.4,-210.01 L 12,-210.01
 L 12,-206.01 L 3.99998,-206.01 L 3.99998,-194.01 L 0,-194.01 L 0,-184.933 L 3.99998,-184.933
 L 3.99998,-175.856 L 0,-175.856 L 0,-166.779 L 3.99998,-166.779 L 3.99998,-157.702 L 0,-157.702
 L 0,-148.625 L 3.99998,-148.625 L 3.99998,-139.548 L 0,-139.548 L 0,-130.472 L 4,-130.472
 L 4,-121.395 L 0,-121.395 L 0,-112.318 L 4,-112.318 L 4,-103.241 L 0,-103.241
 L 0,-94.1638 L 4,-94.1638 L 4,-85.0869 L 0,-85.0869 L 0,-76.01 L 4,-76.01
 L 4,-64.01 L 12,-64.01 L 12,-60.01 L 20.4,-60.01 z
M 154.01,-64 L 162.01,-64 L 162.01,-60.01 L 300.01,-60.01 L 300.01,-210.01 L 162.01,-210.01
 L 162.01,-206.02 L 154.01,-206.02 L 154.01,-210.01 L 150.01,-210.01 L 150.01,-60.01 L 154.01,-60.01
 z
M 446.02,-80.01 L 450.02,-80.01 L 450.02,-98.01 L 446.02,-98.01 L 446.02,-110.01 L 304.02,-110.01
 L 304.02,-98.01 L 300.02,-98.01 L 300.02,-80.01 L 304.02,-80.01 L 304.02,-64.01 L 446.02,-64.01
 z
M 162.01,-4 L 170.41,-4 L 170.41,-0 L 178.81,-0 L 178.81,-4 L 187.21,-4
 L 187.21,-0 L 195.61,-0 L 195.61,-4 L 204.01,-4 L 204.01,-0 L 212.41,-0
 L 212.41,-4 L 220.81,-4 L 220.81,-0 L 229.21,-0 L 229.21,-4 L 237.61,-4
 L 237.61,-0 L 246.01,-0 L 246.01,-4 L 254.41,-4 L 254.41,-0 L 262.81,-0
 L 262.81,-4 L 271.21,-4 L 271.21,-0 L 279.61,-0 L 279.61,-4 L 288.01,-4
 L 288.01,-0 L 300.01,-0 L 300.01,-12 L 296.01,-12 L 296.01,-20.6667 L 300.01,-20.6667
 L 300.01,-29.3333 L 296.01,-29.3333 L 296.01,-38 L 300.01,-38 L 300.01,-40.0197 L 300.638,-40.0197
 L 301.884,-40.1771 L 303.1,-40.4894 L 304.268,-40.9517 L 305.368,-41.5567 L 306.384,-42.2949 L 307.3,-43.1545
 L 308.1,-44.1221 L 308.773,-45.1824 L 309.308,-46.3187 L 309.696,-47.5131 L 309.931,-48.7467 L 310.01,-50
 L 309.931,-51.2533 L 309.696,-52.4869 L 309.308,-53.6812 L 308.773,-54.8175 L 308.1,-55.8778 L 307.3,-56.8455
 L 306.384,-57.7051 L 305.368,-58.4433 L 304.268,-59.0483 L 303.1,-59.5106 L 301.884,-59.8229 L 300.638,-59.9803
 L 299.382,-59.9803 L 298.136,-59.8229 L 296.92,-59.5106 L 295.752,-59.0483 L 294.652,-58.4433 L 293.636,-57.7051
 L 292.72,-56.8455 L 291.92,-55.8778 L 291.247,-54.8175 L 290.712,-53.6812 L 290.324,-52.4869 L 290.089,-51.2533
 L 290.01,-50 L 150.01,-50 L 150.01,-38 L 154.01,-38 L 154.01,-29.3333 L 150.01,-29.3333
 L 150.01,-20.6667 L 154.01,-20.6667 L 154.01,-12 L 150.01,-12 L 150.01,-0 L 162.01,-0
 z
M 299.57,-43.0138 L 298.698,-43.124 L 297.847,-43.3426 L 297.03,-43.6662 L 296.259,-44.0897 L 295.548,-44.6064
 L 294.907,-45.2082 L 294.347,-45.8855 L 293.876,-46.6277 L 293.502,-47.4231 L 293.23,-48.2592 L 293.065,-49.1227
 L 293.01,-50 L 293.065,-50.8773 L 293.23,-51.7408 L 293.502,-52.5769 L 293.876,-53.3723 L 294.347,-54.1145
 L 294.907,-54.7918 L 295.548,-55.3936 L 296.259,-55.9103 L 297.03,-56.3338 L 297.847,-56.6574 L 298.698,-56.876
 L 299.57,-56.9862 L 300.45,-56.9862 L 301.322,-56.876 L 302.173,-56.6574 L 302.99,-56.3338 L 303.761,-55.9103
 L 304.472,-55.3936 L 305.113,-54.7918 L 305.673,-54.1145 L 306.144,-53.3723 L 306.518,-52.5769 L 306.79,-51.7408
 L 306.955,-50.8773 L 307.01,-50 L 306.955,-49.1227 L 306.79,-48.2592 L 306.518,-47.4231 L 306.144,-46.6277
 L 305.673,-45.8855 L 305.113,-45.2082 L 304.472,-44.6064 L 303.761,-44.0897 L 302.99,-43.6662 L 302.173,-43.3426
 L 301.322,-43.124 L 300.45,-43.0138 z
M 304.01,-54 L 300.01,-54 L 300.01,-50 L 304.01,-50 z
M 174.916,-23.5029 L 174.729,-23.5266 L 174.546,-23.5734 L 174.371,-23.6427 L 174.206,-23.7335 L 174.054,-23.8442
 L 173.917,-23.9732 L 173.796,-24.1183 L 173.696,-24.2774 L 173.615,-24.4478 L 173.557,-24.627 L 173.522,-24.812
 L 173.51,-25 L 173.522,-25.188 L 173.557,-25.373 L 173.615,-25.5522 L 173.696,-25.7226 L 173.796,-25.8817
 L 173.917,-26.0268 L 174.054,-26.1558 L 174.206,-26.2665 L 174.371,-26.3572 L 174.546,-26.4266 L 174.729,-26.4734
 L 174.916,-26.497 L 175.104,-26.497 L 175.291,-26.4734 L 175.474,-26.4266 L 175.649,-26.3572 L 175.814,-26.2665
 L 175.966,-26.1558 L 176.103,-26.0268 L 176.224,-25.8817 L 176.324,-25.7226 L 176.405,-25.5522 L 176.463,-25.373
 L 176.498,-25.188 L 176.51,-25 L 176.498,-24.812 L 176.463,-24.627 L 176.405,-24.4478 L 176.324,-24.2774
 L 176.224,-24.1183 L 176.103,-23.9732 L 175.966,-23.8442 L 175.814,-23.7335 L 175.649,-23.6427 L 175.474,-23.5734
 L 175.291,-23.5266 L 175.104,-23.5029 z
M 224.916,-23.5029 L 224.729,-23.5266 L 224.546,-23.5734 L 224.371,-23.6427 L 224.206,-23.7335 L 224.054,-23.8442
 L 223.917,-23.9732 L 223.796,-24.1183 L 223.696,-24.2774 L 223.615,-24.4478 L 223.557,-24.627 L 223.522,-24.812
 L 223.51,-25 L 223.522,-25.188 L 223.557,-25.373 L 223.615,-25.5522 L 223.696,-25.7226 L 223.796,-25.8817
 L 223.917,-26.0268 L 224.054,-26.1558 L 224.206,-26.2665 L 224.371,-26.3572 L 224.546,-26.4266 L 224.729,-26.4734
 L 224.916,-26.497 L 225.104,-26.497 L 225.291,-26.4734 L 225.474,-26.4266 L 225.649,-26.3572 L 225.814,-26.2665
 L 225.966,-26.1558 L 226.103,-26.0268 L 226.224,-25.8817 L 226.324,-25.7226 L 226.405,-25.5522 L 226.463,-25.373
 L 226.498,-25.188 L 226.51,-25 L 226.498,-24.812 L 226.463,-24.627 L 226.405,-24.4478 L 226.324,-24.2774
 L 226.224,-24.1183 L 226.103,-23.9732 L 225.966,-23.8442 L 225.814,-23.7335 L 225.649,-23.6427 L 225.474,-23.5734
 L 225.291,-23.5266 L 225.104,-23.5029 z
M 12,-4 L 20.4,-4 L 20.4,-0 L 28.8,-0 L 28.8,-4 L 37.2,-4
 L 37.2,-0 L 45.6,-0 L 45.6,-4 L 54,-4 L 54,-0 L 62.4,-0
 L 62.4,-4 L 70.8,-4 L 70.8,-0 L 79.2,-0 L 79.2,-4 L 87.6,-4
 L 87.6,-0 L 96,-0 L 96,-4 L 104.4,-4 L 104.4,-0 L 112.8,-0
 L 112.8,-4 L 121.2,-4 L 121.2,-0 L 129.6,-0 L 129.6,-4 L 138,-4
 L 138,-0 L 150,-0 L 150,-12 L 146,-12 L 146,-20.6667 L 150,-20.6667
 L 150,-29.3333 L 146,-29.3333 L 146,-38 L 150,-38 L 150,-50 L 10,-50
 L 9.92114,-51.2533 L 9.68582,-52.4869 L 9.29776,-53.6812 L 8.76306,-54.8175 L 8.09016,-55.8778 L 7.28967,-56.8455
 L 6.37424,-57.7051 L 5.35826,-58.4433 L 4.25778,-59.0483 L 3.09016,-59.5106 L 1.87381,-59.8229 L 0.627899,-59.9803
 L -0.627899,-59.9803 L -1.87381,-59.8229 L -3.09016,-59.5106 L -4.25778,-59.0483 L -5.35826,-58.4433 L -6.37424,-57.7051
 L -7.28967,-56.8455 L -8.09016,-55.8778 L -8.76306,-54.8175 L -9.29776,-53.6812 L -9.68582,-52.4869 L -9.92114,-51.2533
 L -10,-50 L -9.92114,-48.7467 L -9.68582,-47.5131 L -9.29776,-46.3187 L -8.76306,-45.1824 L -8.09016,-44.1221
 L -7.28967,-43.1545 L -6.37424,-42.2949 L -5.35826,-41.5567 L -4.25778,-40.9517 L -3.09016,-40.4894 L -1.87381,-40.1771
 L -0.627899,-40.0197 L 0,-40.0197 L 0,-38 L 3.99998,-38 L 3.99998,-29.3333 L 0,-29.3333
 L 0,-20.6667 L 4,-20.6667 L 4,-12 L 0,-12 L 0,-0 L 12,-0
 z
M -0.439529,-43.0138 L -1.31166,-43.124 L -2.16312,-43.3426 L -2.98045,-43.6662 L -3.75078,-44.0897 L -4.46196,-44.6064
 L -5.10277,-45.2082 L -5.66312,-45.8855 L -6.13414,-46.6277 L -6.50842,-47.4231 L -6.78008,-48.2592 L -6.94479,-49.1227
 L -7,-50 L -6.94479,-50.8773 L -6.78008,-51.7408 L -6.50842,-52.5769 L -6.13414,-53.3723 L -5.66312,-54.1145
 L -5.10277,-54.7918 L -4.46196,-55.3936 L -3.75078,-55.9103 L -2.98045,-56.3338 L -2.16312,-56.6574 L -1.31166,-56.876
 L -0.439529,-56.9862 L 0.439529,-56.9862 L 1.31166,-56.876 L 2.16312,-56.6574 L 2.98045,-56.3338 L 3.75078,-55.9103
 L 4.46196,-55.3936 L 5.10277,-54.7918 L 5.66312,-54.1145 L 6.13414,-53.3723 L 6.50842,-52.5769 L 6.78008,-51.7408
 L 6.94479,-50.8773 L 7,-50 L 6.94479,-49.1227 L 6.78008,-48.2592 L 6.50842,-47.4231 L 6.13414,-46.6277
 L 5.66312,-45.8855 L 5.10277,-45.2082 L 4.46196,-44.6064 L 3.75078,-44.0897 L 2.98045,-43.6662 L 2.16312,-43.3426
 L 1.31166,-43.124 L 0.439529,-43.0138 z
M 4,-54 L 0,-54 L 0,-50 L 4,-50 z
M 74.9058,-23.5029 L 74.7189,-23.5266 L 74.5365,-23.5734 L 74.3613,-23.6427 L 74.1963,-23.7335 L 74.0439,-23.8442
 L 73.9065,-23.9732 L 73.7865,-24.1183 L 73.6855,-24.2774 L 73.6053,-24.4478 L 73.5471,-24.627 L 73.5118,-24.812
 L 73.5,-25 L 73.5118,-25.188 L 73.5471,-25.373 L 73.6053,-25.5522 L 73.6855,-25.7226 L 73.7865,-25.8817
 L 73.9065,-26.0268 L 74.0439,-26.1558 L 74.1963,-26.2665 L 74.3613,-26.3572 L 74.5365,-26.4266 L 74.7189,-26.4734
 L 74.9058,-26.497 L 75.0942,-26.497 L 75.2811,-26.4734 L 75.4635,-26.4266 L 75.6387,-26.3572 L 75.8037,-26.2665
 L 75.9561,-26.1558 L 76.0934,-26.0268 L 76.2135,-25.8817 L 76.3145,-25.7226 L 76.3947,-25.5522 L 76.4529,-25.373
 L 76.4882,-25.188 L 76.5,-25 L 76.4882,-24.812 L 76.4529,-24.627 L 76.3947,-24.4478 L 76.3145,-24.2774
 L 76.2135,-24.1183 L 76.0934,-23.9732 L 75.9561,-23.8442 L 75.8037,-23.7335 L 75.6387,-23.6427 L 75.4635,-23.5734
 L 75.2811,-23.5266 L 75.0942,-23.5029 z
M 124.906,-23.5029 L 124.719,-23.5266 L 124.536,-23.5734 L 124.361,-23.6427 L 124.196,-23.7335 L 124.044,-23.8442
 L 123.907,-23.9732 L 123.786,-24.1183 L 123.686,-24.2774 L 123.605,-24.4478 L 123.547,-24.627 L 123.512,-24.812
 L 123.5,-25 L 123.512,-25.188 L 123.547,-25.373 L 123.605,-25.5522 L 123.686,-25.7226 L 123.786,-25.8817
 L 123.907,-26.0268 L 124.044,-26.1558 L 124.196,-26.2665 L 124.361,-26.3572 L 124.536,-26.4266 L 124.719,-26.4734
 L 124.906,-26.497 L 125.094,-26.497 L 125.281,-26.4734 L 125.464,-26.4266 L 125.639,-26.3572 L 125.804,-26.2665
 L 125.956,-26.1558 L 126.093,-26.0268 L 126.214,-25.8817 L 126.314,-25.7226 L 126.395,-25.5522 L 126.453,-25.373
 L 126.488,-25.188 L 126.5,-25 L 126.488,-24.812 L 126.453,-24.627 L 126.395,-24.4478 L 126.314,-24.2774
 L 126.214,-24.1183 L 126.093,-23.9732 L 125.956,-23.8442 L 125.804,-23.7335 L 125.639,-23.6427 L 125.464,-23.5734
 L 125.281,-23.5266 L 125.094,-23.5029 z
M 326.02,-4 L 335.097,-4 L 335.097,-0 L 344.174,-0 L 344.174,-4 L 353.251,-4
 L 353.251,-0 L 362.328,-0 L 362.328,-4 L 371.405,-4 L 371.405,-0 L 380.482,-0
 L 380.482,-4 L 389.558,-4 L 389.558,-0 L 398.635,-0 L 398.635,-4 L 407.712,-4
 L 407.712,-0 L 416.789,-0 L 416.789,-4 L 425.866,-4 L 425.866,-0 L 434.943,-0
 L 434.943,-4 L 444.02,-4 L 444.02,-0 L 456.02,-0 L 456.02,-12 L 460.02,-12
 L 460.02,-20.6667 L 456.02,-20.6667 L 456.02,-29.3333 L 460.02,-29.3333 L 460.02,-38 L 456.02,-38
 L 456.02,-50 L 314.02,-50 L 314.02,-38 L 310.02,-38 L 310.02,-29.3333 L 314.02,-29.3333
 L 314.02,-20.6667 L 310.02,-20.6667 L 310.02,-12 L 314.02,-12 L 314.02,-0 L 326.02,-0
 z
M 383.02,-20 L 383.02,-38 L 387.03,-38 L 387.03,-20 z
M 476.03,-4 L 485.107,-4 L 485.107,-0 L 494.184,-0 L 494.184,-4 L 503.261,-4
 L 503.261,-0 L 512.338,-0 L 512.338,-4 L 521.415,-4 L 521.415,-0 L 530.492,-0
 L 530.492,-4 L 539.568,-4 L 539.568,-0 L 548.645,-0 L 548.645,-4 L 557.722,-4
 L 557.722,-0 L 566.799,-0 L 566.799,-4 L 575.876,-4 L 575.876,-0 L 584.953,-0
 L 584.953,-4 L 594.03,-4 L 594.03,-0 L 606.03,-0 L 606.03,-12 L 610.03,-12
 L 610.03,-20.6667 L 606.03,-20.6667 L 606.03,-29.3333 L 610.03,-29.3333 L 610.03,-38 L 606.03,-38
 L 606.03,-50 L 464.03,-50 L 464.03,-38 L 460.03,-38 L 460.03,-29.3333 L 464.03,-29.3333
 L 464.03,-20.6667 L 460.03,-20.6667 L 460.03,-12 L 464.03,-12 L 464.03,-0 L 476.03,-0
 z
M 533.03,-20 L 533.03,-38 L 537.04,-38 L 537.04,-20 z
" stroke="black" fill="lightgray" stroke-width="0.5"/>
</svg>
