<?xml version="1.0" standalone="no"?>
<!DOCTYPE svg PUBLIC "-//W3C//DTD SVG 1.1//EN" "http://www.w3.org/Graphics/SVG/1.1/DTD/svg11.dtd">
<svg width="601mm" height="201mm" viewBox="0 -201 601 201" xmlns="http://www.w3.org/2000/svg" version="1.1">
<title>OpenSCAD Model</title>
<path d="
M 20.4,-54.01 L 28.8,-54.01 L 28.8,-50.01 L 37.2,-50.01 L 37.2,-54.01 L 45.6,-54.01
 L 45.6,-50.01 L 54,-50.01 L 54,-54.01 L 62.4,-54.01 L 62.4,-50.01 L 70.8,-50.01
 L 70.8,-54.01 L 79.2,-54.01 L 79.2,-50.01 L 87.6,-50.01 L 87.6,-54.01 L 96,-54.01
 L 96,-50.01 L 104.4,-50.01 L 104.4,-54.01 L 112.8,-54.01 L 112.8,-50.01 L 121.2,-50.01
 L 121.2,-54.01 L 129.6,-54.01 L 129.6,-50.01 L 138,-50.01 L 138,-54.01 L 146,-54.01
 L 146,-66.01 L 150,-66.01 L 150,-75.0869 L 146,-75.0869 L 146,-84.1638 L 150,-84.1638
 L 150,-93.2408 L 146,-93.2408 L 146,-102.318 L 150,-102.318 L 150,-111.395 L 146,-111.395
 L 146,-120.472 L 150,-120.472 L 150,-129.548 L 146,-129.548 L 146,-138.625 L 150,-138.625
 L 150,-147.702 L 146,-147.702 L 146,-156.779 L 150,-156.779 L 150,-165.856 L 146,-165.856
 L 146,-174.933 L 150,-174.933 L 150,-184.01 L 146,-184.01 L 146,-196.01 L 138,-196.01
 L 138,-200.01 L 129.6,-200.01 L 129.6,-196.01 L 121.2,-196.01 L 121.2,-200.01 L 112.8,-200.01
 L 112.8,-196.01 L 104.4,-196.01 L 104.4,-200.01 L 96,-200.01 L 96,-196.01 L 87.6,-196.01
 L 87.6,-200.01 L 79.2,-200.01 L 79.2,-196.01 L 70.8,-196.01 L 70.8,-200.01 L 62.4,-200.01
 L 62.4,-196.01 L 54,-196.01 L 54,-200.01 L 45.6,-200.01 L 45.6,-196.01 L 37.2,-196.01
 L 37.2,-200.01 L 28.8,-200.01 L 28.8,-196.01 L 20.4,-196.01 L 20.4,-200.01 L 12,-200.01
 L 12,-196.01 L 3.99998,-196.01 L 3.99998,-184.01 L 0,-184.01 L 0,-174.933 L 3.99998,-174.933
 L 3.99998,-165.856 L 0,-165.856 L 0,-156.779 L 3.99998,-156.779 L 3.99998,-147.702 L 0,-147.702
 L 0,-138.625 L 3.99998,-138.625 L 3.99998,-129.548 L 0,-129.548 L 0,-120.472 L 4,-120.472
 L 4,-111.395 L 0,-111.395 L 0,-102.318 L 4,-102.318 L 4,-93.2408 L 0,-93.2408
 L 0,-84.1638 L 4,-84.1638 L 4,-75.0869 L 0,-75.0869 L 0,-66.01 L 4,-66.01
 L 4,-54.01 L 12,-54.01 L 12,-50.01 L 20.4,-50.01 z
M 446.02,-70.01 L 450.02,-70.01 L 450.02,-88.01 L 446.02,-88.01 L 446.02,-100.01 L 304.02,-100.01
 L 304.02,-88.01 L 300.02,-88.01 L 300.02,-70.01 L 304.02,-70.01 L 304.02,-54.01 L 446.02,-54.01
 z
M 296.01,-70.01 L 300.01,-70.01 L 300.01,-88.01 L 296.01,-88.01 L 296.01,-100.01 L 154.01,-100.01
 L 154.01,-88.01 L 150.01,-88.01 L 150.01,-70.01 L 154.01,-70.01 L 154.01,-54.01 L 296.01,-54.01
 z
M 162.01,-4 L 170.41,-4 L 170.41,-0 L 178.81,-0 L 178.81,-4 L 187.21,-4
 L 187.21,-0 L 195.61,-0 L 195.61,-4 L 204.01,-4 L 204.01,-0 L 212.41,-0
 L 212.41,-4 L 220.81,-4 L 220.81,-0 L 229.21,-0 L 229.21,-4 L 237.61,-4
 L 237.61,-0 L 246.01,-0 L 246.01,-4 L 254.41,-4 L 254.41,-0 L 262.81,-0
 L 262.81,-4 L 271.21,-4 L 271.21,-0 L 279.61,-0 L 279.61,-4 L 288.01,-4
 L 288.01,-0 L 300.01,-0 L 300.01,-12 L 296.01,-12 L 296.01,-20.6667 L 300.01,-20.6667
 L 300.01,-29.3333 L 296.01,-29.3333 L 296.01,-38 L 300.01,-38 L 300.01,-50 L 150.01,-50
 L 150.01,-38 L 154.01,-38 L 154.01,-29.3333 L 150.01,-29.3333 L 150.01,-20.6667 L 154.01,-20.6667
 L 154.01,-12 L 150.01,-12 L 150.01,-0 L 162.01,-0 z
M 174.759,-21.0079 L 174.26,-21.0708 L 173.774,-21.1958 L 173.307,-21.3807 L 172.867,-21.6227 L 172.46,-21.9179
 L 172.094,-22.2618 L 171.774,-22.6488 L 171.505,-23.073 L 171.291,-23.5275 L 171.136,-24.0052 L 171.042,-24.4987
 L 171.01,-25 L 171.042,-25.5013 L 171.136,-25.9948 L 171.291,-26.4725 L 171.505,-26.927 L 171.774,-27.3511
 L 172.094,-27.7382 L 172.46,-28.082 L 172.867,-28.3773 L 173.307,-28.6193 L 173.774,-28.8042 L 174.26,-28.9291
 L 174.759,-28.9921 L 175.261,-28.9921 L 175.76,-28.9291 L 176.246,-28.8042 L 176.713,-28.6193 L 177.153,-28.3773
 L 177.56,-28.082 L 177.926,-27.7382 L 178.246,-27.3511 L 178.515,-26.927 L 178.729,-26.4725 L 178.884,-25.9948
 L 178.978,-25.5013 L 179.01,-25 L 178.978,-24.4987 L 178.884,-24.0052 L 178.729,-23.5275 L 178.515,-23.073
 L 178.246,-22.6488 L 177.926,-22.2618 L 177.56,-21.9179 L 177.153,-21.6227 L 176.713,-21.3807 L 176.246,-21.1958
 L 175.76,-21.0708 L 175.261,-21.0079 z
M 224.759,-21.0079 L 224.26,-21.0708 L 223.774,-21.1958 L 223.307,-21.3807 L 222.867,-21.6227 L 222.46,-21.9179
 L 222.094,-22.2618 L 221.774,-22.6488 L 221.505,-23.073 L 221.291,-23.5275 L 221.136,-24.0052 L 221.042,-24.4987
 L 221.01,-25 L 221.042,-25.5013 L 221.136,-25.9948 L 221.291,-26.4725 L 221.505,-26.927 L 221.774,-27.3511
 L 222.094,-27.7382 L 222.46,-28.082 L 222.867,-28.3773 L 223.307,-28.6193 L 223.774,-28.8042 L 224.26,-28.9291
 L 224.759,-28.9921 L 225.261,-28.9921 L 225.76,-28.9291 L 226.246,-28.8042 L 226.713,-28.6193 L 227.153,-28.3773
 L 227.56,-28.082 L 227.926,-27.7382 L 228.246,-27.3511 L 228.515,-26.927 L 228.729,-26.4725 L 228.884,-25.9948
 L 228.978,-25.5013 L 229.01,-25 L 228.978,-24.4987 L 228.884,-24.0052 L 228.729,-23.5275 L 228.515,-23.073
 L 228.246,-22.6488 L 227.926,-22.2618 L 227.56,-21.9179 L 227.153,-21.6227 L 226.713,-21.3807 L 226.246,-21.1958
 L 225.76,-21.0708 L 225.261,-21.0079 z
M 274.759,-21.0079 L 274.26,-21.0708 L 273.774,-21.1958 L 273.307,-21.3807 L 272.867,-21.6227 L 272.46,-21.9179
 L 272.094,-22.2618 L 271.774,-22.6488 L 271.505,-23.073 L 271.291,-23.5275 L 271.136,-24.0052 L 271.042,-24.4987
 L 271.01,-25 L 271.042,-25.5013 L 271.136,-25.9948 L 271.291,-26.4725 L 271.505,-26.927 L 271.774,-27.3511
 L 272.094,-27.7382 L 272.46,-28.082 L 272.867,-28.3773 L 273.307,-28.6193 L 273.774,-28.8042 L 274.26,-28.9291
 L 274.759,-28.9921 L 275.261,-28.9921 L 275.76,-28.9291 L 276.246,-28.8042 L 276.713,-28.6193 L 277.153,-28.3773
 L 277.56,-28.082 L 277.926,-27.7382 L 278.246,-27.3511 L 278.515,-26.927 L 278.729,-26.4725 L 278.884,-25.9948
 L 278.978,-25.5013 L 279.01,-25 L 278.978,-24.4987 L 278.884,-24.0052 L 278.729,-23.5275 L 278.515,-23.073
 L 278.246,-22.6488 L 277.926,-22.2618 L 277.56,-21.9179 L 277.153,-21.6227 L 276.713,-21.3807 L 276.246,-21.1958
 L 275.76,-21.0708 L 275.261,-21.0079 z
M 316.02,-4 L 325.097,-4 L 325.097,-0 L 334.174,-0 L 334.174,-4 L 343.251,-4
 L 343.251,-0 L 352.328,-0 L 352.328,-4 L 361.405,-4 L 361.405,-0 L 370.482,-0
 L 370.482,-4 L 379.558,-4 L 379.558,-0 L 388.635,-0 L 388.635,-4 L 397.712,-4
 L 397.712,-0 L 406.789,-0 L 406.789,-4 L 415.866,-4 L 415.866,-0 L 424.943,-0
 L 424.943,-4 L 434.02,-4 L 434.02,-0 L 446.02,-0 L 446.02,-12 L 450.02,-12
 L 450.02,-20.6667 L 446.02,-20.6667 L 446.02,-29.3333 L 450.02,-29.3333 L 450.02,-38 L 446.02,-38
 L 446.02,-50 L 304.02,-50 L 304.02,-38 L 300.02,-38 L 300.02,-29.3333 L 304.02,-29.3333
 L 304.02,-20.6667 L 300.02,-20.6667 L 300.02,-12 L 304.02,-12 L 304.02,-0 L 316.02,-0
 z
M 398.02,-20 L 398.02,-38 L 402.03,-38 L 402.03,-20 z
M 348.02,-20 L 348.02,-38 L 352.03,-38 L 352.03,-20 z
M 466.03,-4 L 475.107,-4 L 475.107,-0 L 484.184,-0 L 484.184,-4 L 493.261,-4
 L 493.261,-0 L 502.338,-0 L 502.338,-4 L 511.415,-4 L 511.415,-0 L 520.492,-0
 L 520.492,-4 L 529.568,-4 L 529.568,-0 L 538.645,-0 L 538.645,-4 L 547.722,-4
 L 547.722,-0 L 556.799,-0 L 556.799,-4 L 565.876,-4 L 565.876,-0 L 574.953,-0
 L 574.953,-4 L 584.03,-4 L 584.03,-0 L 596.03,-0 L 596.03,-12 L 600.03,-12
 L 600.03,-20.6667 L 596.03,-20.6667 L 596.03,-29.3333 L 600.03,-29.3333 L 600.03,-38 L 596.03,-38
 L 596.03,-50 L 454.03,-50 L 454.03,-38 L 450.03,-38 L 450.03,-29.3333 L 454.03,-29.3333
 L 454.03,-20.6667 L 450.03,-20.6667 L 450.03,-12 L 454.03,-12 L 454.03,-0 L 466.03,-0
 z
M 498.03,-20 L 498.03,-38 L 502.04,-38 L 502.04,-20 z
M 548.03,-20 L 548.03,-38 L 552.04,-38 L 552.04,-20 z
M 12,-4 L 20.4,-4 L 20.4,-0 L 28.8,-0 L 28.8,-4 L 37.2,-4
 L 37.2,-0 L 45.6,-0 L 45.6,-4 L 54,-4 L 54,-0 L 62.4,-0
 L 62.4,-4 L 70.8,-4 L 70.8,-0 L 79.2,-0 L 79.2,-4 L 87.6,-4
 L 87.6,-0 L 96,-0 L 96,-4 L 104.4,-4 L 104.4,-0 L 112.8,-0
 L 112.8,-4 L 121.2,-4 L 121.2,-0 L 129.6,-0 L 129.6,-4 L 138,-4
 L 138,-0 L 150,-0 L 150,-12 L 146,-12 L 146,-20.6667 L 150,-20.6667
 L 150,-29.3333 L 146,-29.3333 L 146,-38 L 150,-38 L 150,-50 L 0,-50
 L 0,-38 L 3.99998,-38 L 3.99998,-29.3333 L 0,-29.3333 L 0,-20.6667 L 4,-20.6667
 L 4,-12 L 0,-12 L 0,-0 L 12,-0 z
M 124.749,-21.0079 L 124.25,-21.0708 L 123.764,-21.1958 L 123.297,-21.3807 L 122.857,-21.6227 L 122.45,-21.9179
 L 122.084,-22.2618 L 121.764,-22.6488 L 121.495,-23.073 L 121.281,-23.5275 L 121.126,-24.0052 L 121.032,-24.4987
 L 121,-25 L 121.032,-25.5013 L 121.126,-25.9948 L 121.281,-26.4725 L 121.495,-26.927 L 121.764,-27.3511
 L 122.084,-27.7382 L 122.45,-28.082 L 122.857,-28.3773 L 123.297,-28.6193 L 123.764,-28.8042 L 124.25,-28.9291
 L 124.749,-28.9921 L 125.251,-28.9921 L 125.75,-28.9291 L 126.236,-28.8042 L 126.703,-28.6193 L 127.143,-28.3773
 L 127.55,-28.082 L 127.916,-27.7382 L 128.236,-27.3511 L 128.505,-26.927 L 128.719,-26.4725 L 128.874,-25.9948
 L 128.968,-25.5013 L 129,-25 L 128.968,-24.4987 L 128.874,-24.0052 L 128.719,-23.5275 L 128.505,-23.073
 L 128.236,-22.6488 L 127.916,-22.2618 L 127.55,-21.9179 L 127.143,-21.6227 L 126.703,-21.3807 L 126.236,-21.1958
 L 125.75,-21.0708 L 125.251,-21.0079 z
M 24.7488,-21.0079 L 24.2505,-21.0708 L 23.7639,-21.1958 L 23.2969,-21.3807 L 22.8567,-21.6227 L 22.4503,-21.9179
 L 22.0841,-22.2618 L 21.7639,-22.6488 L 21.4948,-23.073 L 21.2809,-23.5275 L 21.1257,-24.0052 L 21.0315,-24.4987
 L 21,-25 L 21.0315,-25.5013 L 21.1257,-25.9948 L 21.2809,-26.4725 L 21.4948,-26.927 L 21.7639,-27.3511
 L 22.0841,-27.7382 L 22.4503,-28.082 L 22.8567,-28.3773 L 23.2969,-28.6193 L 23.7639,-28.8042 L 24.2505,-28.9291
 L 24.7488,-28.9921 L 25.2512,-28.9921 L 25.7495,-28.9291 L 26.2361,-28.8042 L 26.7031,-28.6193 L 27.1433,-28.3773
 L 27.5497,-28.082 L 27.9159,-27.7382 L 28.2361,-27.3511 L 28.5052,-26.927 L 28.7191,-26.4725 L 28.8743,-25.9948
 L 28.9684,-25.5013 L 29,-25 L 28.9684,-24.4987 L 28.8743,-24.0052 L 28.7191,-23.5275 L 28.5052,-23.073
 L 28.2361,-22.6488 L 27.9159,-22.2618 L 27.5497,-21.9179 L 27.1433,-21.6227 L 26.7031,-21.3807 L 26.2361,-21.1958
 L 25.7495,-21.0708 L 25.2512,-21.0079 z
M 74.7488,-21.0079 L 74.2505,-21.0708 L 73.7639,-21.1958 L 73.2969,-21.3807 L 72.8567,-21.6227 L 72.4503,-21.9179
 L 72.0841,-22.2618 L 71.7639,-22.6488 L 71.4948,-23.073 L 71.2809,-23.5275 L 71.1257,-24.0052 L 71.0315,-24.4987
 L 71,-25 L 71.0315,-25.5013 L 71.1257,-25.9948 L 71.2809,-26.4725 L 71.4948,-26.927 L 71.7639,-27.3511
 L 72.0841,-27.7382 L 72.4503,-28.082 L 72.8567,-28.3773 L 73.2969,-28.6193 L 73.7639,-28.8042 L 74.2505,-28.9291
 L 74.7488,-28.9921 L 75.2512,-28.9921 L 75.7495,-28.9291 L 76.2361,-28.8042 L 76.7031,-28.6193 L 77.1433,-28.3773
 L 77.5497,-28.082 L 77.9159,-27.7382 L 78.2361,-27.3511 L 78.5052,-26.927 L 78.7191,-26.4725 L 78.8743,-25.9948
 L 78.9684,-25.5013 L 79,-25 L 78.9684,-24.4987 L 78.8743,-24.0052 L 78.7191,-23.5275 L 78.5052,-23.073
 L 78.2361,-22.6488 L 77.9159,-22.2618 L 77.5497,-21.9179 L 77.1433,-21.6227 L 76.7031,-21.3807 L 76.2361,-21.1958
 L 75.7495,-21.0708 L 75.2512,-21.0079 z
" stroke="black" fill="lightgray" stroke-width="0.5"/>
</svg>
