<?xml version="1.0" standalone="no"?>
<!DOCTYPE svg PUBLIC "-//W3C//DTD SVG 1.1//EN" "http://www.w3.org/Graphics/SVG/1.1/DTD/svg11.dtd">
<svg width="901mm" height="201mm" viewBox="0 -201 901 201" xmlns="http://www.w3.org/2000/svg" version="1.1">
<title>OpenSCAD Model</title>
<path d="
M 20.3636,-54.01 L 28.7273,-54.01 L 28.7273,-50.01 L 37.0909,-50.01 L 37.0909,-54.01 L 45.4545,-54.01
 L 45.4545,-50.01 L 53.8182,-50.01 L 53.8182,-54.01 L 62.1818,-54.01 L 62.1818,-50.01 L 70.5454,-50.01
 L 70.5454,-54.01 L 78.9091,-54.01 L 78.9091,-50.01 L 87.2727,-50.01 L 87.2727,-54.01 L 95.6364,-54.01
 L 95.6364,-50.01 L 104,-50.01 L 104,-54.01 L 112.364,-54.01 L 112.364,-50.01 L 120.727,-50.01
 L 120.727,-54.01 L 129.091,-54.01 L 129.091,-50.01 L 137.455,-50.01 L 137.455,-54.01 L 145.818,-54.01
 L 145.818,-50.01 L 154.182,-50.01 L 154.182,-54.01 L 162.545,-54.01 L 162.545,-50.01 L 170.909,-50.01
 L 170.909,-54.01 L 179.273,-54.01 L 179.273,-50.01 L 187.636,-50.01 L 187.636,-54.01 L 196,-54.01
 L 196,-50.01 L 204.364,-50.01 L 204.364,-54.01 L 212.727,-54.01 L 212.727,-50.01 L 221.091,-50.01
 L 221.091,-54.01 L 229.455,-54.01 L 229.455,-50.01 L 237.818,-50.01 L 237.818,-54.01 L 246.182,-54.01
 L 246.182,-50.01 L 254.545,-50.01 L 254.545,-54.01 L 262.909,-54.01 L 262.909,-50.01 L 271.273,-50.01
 L 271.273,-54.01 L 279.636,-54.01 L 279.636,-50.01 L 288,-50.01 L 288,-54.01 L 296,-54.01
 L 296,-66.01 L 300,-66.01 L 300,-75.0869 L 296,-75.0869 L 296,-84.1638 L 300,-84.1638
 L 300,-93.2408 L 296,-93.2408 L 296,-102.318 L 300,-102.318 L 300,-111.395 L 296,-111.395
 L 296,-120.472 L 300,-120.472 L 300,-129.548 L 296,-129.548 L 296,-138.625 L 300,-138.625
 L 300,-147.702 L 296,-147.702 L 296,-156.779 L 300,-156.779 L 300,-165.856 L 296,-165.856
 L 296,-174.933 L 300,-174.933 L 300,-184.01 L 296,-184.01 L 296,-196.01 L 288,-196.01
 L 288,-200.01 L 279.636,-200.01 L 279.636,-196.01 L 271.273,-196.01 L 271.273,-200.01 L 262.909,-200.01
 L 262.909,-196.01 L 254.545,-196.01 L 254.545,-200.01 L 246.182,-200.01 L 246.182,-196.01 L 237.818,-196.01
 L 237.818,-200.01 L 229.455,-200.01 L 229.455,-196.01 L 221.091,-196.01 L 221.091,-200.01 L 212.727,-200.01
 L 212.727,-196.01 L 204.364,-196.01 L 204.364,-200.01 L 196,-200.01 L 196,-196.01 L 187.636,-196.01
 L 187.636,-200.01 L 179.273,-200.01 L 179.273,-196.01 L 170.909,-196.01 L 170.909,-200.01 L 162.545,-200.01
 L 162.545,-196.01 L 154.182,-196.01 L 154.182,-200.01 L 145.818,-200.01 L 145.818,-196.01 L 137.455,-196.01
 L 137.455,-200.01 L 129.091,-200.01 L 129.091,-196.01 L 120.727,-196.01 L 120.727,-200.01 L 112.364,-200.01
 L 112.364,-196.01 L 104,-196.01 L 104,-200.01 L 95.6364,-200.01 L 95.6364,-196.01 L 87.2727,-196.01
 L 87.2727,-200.01 L 78.9091,-200.01 L 78.9091,-196.01 L 70.5455,-196.01 L 70.5455,-200.01 L 62.1818,-200.01
 L 62.1818,-196.01 L 53.8182,-196.01 L 53.8182,-200.01 L 45.4546,-200.01 L 45.4546,-196.01 L 37.0909,-196.01
 L 37.0909,-200.01 L 28.7273,-200.01 L 28.7273,-196.01 L 20.3636,-196.01 L 20.3636,-200.01 L 12,-200.01
 L 12,-196.01 L 3.99998,-196.01 L 3.99998,-184.01 L 0,-184.01 L 0,-174.933 L 3.99998,-174.933
 L 3.99998,-165.856 L 0,-165.856 L 0,-156.779 L 3.99998,-156.779 L 3.99998,-147.702 L 0,-147.702
 L 0,-138.625 L 3.99998,-138.625 L 3.99998,-129.548 L 0,-129.548 L 0,-120.472 L 4,-120.472
 L 4,-111.395 L 0,-111.395 L 0,-102.318 L 4,-102.318 L 4,-93.2408 L 0,-93.2408
 L 0,-84.1638 L 4,-84.1638 L 4,-75.0869 L 0,-75.0869 L 0,-66.01 L 4,-66.01
 L 4,-54.01 L 12,-54.01 L 12,-50.01 L 20.3636,-50.01 z
M 446.01,-70.01 L 450.01,-70.01 L 450.01,-88.01 L 446.01,-88.01 L 446.01,-100.01 L 304.01,-100.01
 L 304.01,-88.01 L 300.01,-88.01 L 300.01,-70.01 L 304.01,-70.01 L 304.01,-54.01 L 446.01,-54.01
 z
M 616.02,-4 L 625.097,-4 L 625.097,-0 L 634.174,-0 L 634.174,-4 L 643.251,-4
 L 643.251,-0 L 652.328,-0 L 652.328,-4 L 661.405,-4 L 661.405,-0 L 670.482,-0
 L 670.482,-4 L 679.558,-4 L 679.558,-0 L 688.635,-0 L 688.635,-4 L 697.712,-4
 L 697.712,-0 L 706.789,-0 L 706.789,-4 L 715.866,-4 L 715.866,-0 L 724.943,-0
 L 724.943,-4 L 734.02,-4 L 734.02,-0 L 746.02,-0 L 746.02,-12 L 750.02,-12
 L 750.02,-20.6667 L 746.02,-20.6667 L 746.02,-29.3333 L 750.02,-29.3333 L 750.02,-38 L 746.02,-38
 L 746.02,-50 L 604.02,-50 L 604.02,-38 L 600.02,-38 L 600.02,-29.3333 L 604.02,-29.3333
 L 604.02,-20.6667 L 600.02,-20.6667 L 600.02,-12 L 604.02,-12 L 604.02,-0 L 616.02,-0
 z
M 766.03,-4 L 775.107,-4 L 775.107,-0 L 784.184,-0 L 784.184,-4 L 793.261,-4
 L 793.261,-0 L 802.338,-0 L 802.338,-4 L 811.415,-4 L 811.415,-0 L 820.492,-0
 L 820.492,-4 L 829.568,-4 L 829.568,-0 L 838.645,-0 L 838.645,-4 L 847.722,-4
 L 847.722,-0 L 856.799,-0 L 856.799,-4 L 865.876,-4 L 865.876,-0 L 874.953,-0
 L 874.953,-4 L 884.03,-4 L 884.03,-0 L 896.03,-0 L 896.03,-12 L 900.03,-12
 L 900.03,-20.6667 L 896.03,-20.6667 L 896.03,-29.3333 L 900.03,-29.3333 L 900.03,-38 L 896.03,-38
 L 896.03,-50 L 754.03,-50 L 754.03,-38 L 750.03,-38 L 750.03,-29.3333 L 754.03,-29.3333
 L 754.03,-20.6667 L 750.03,-20.6667 L 750.03,-12 L 754.03,-12 L 754.03,-0 L 766.03,-0
 z
M 12,-4 L 20.3636,-4 L 20.3636,-0 L 28.7273,-0 L 28.7273,-4 L 37.0909,-4
 L 37.0909,-0 L 45.4545,-0 L 45.4545,-4 L 53.8182,-4 L 53.8182,-0 L 62.1818,-0
 L 62.1818,-4 L 70.5454,-4 L 70.5454,-0 L 78.9091,-0 L 78.9091,-4 L 87.2727,-4
 L 87.2727,-0 L 95.6364,-0 L 95.6364,-4 L 104,-4 L 104,-0 L 112.364,-0
 L 112.364,-4 L 120.727,-4 L 120.727,-0 L 129.091,-0 L 129.091,-4 L 137.455,-4
 L 137.455,-0 L 145.818,-0 L 145.818,-4 L 154.182,-4 L 154.182,-0 L 162.545,-0
 L 162.545,-4 L 170.909,-4 L 170.909,-0 L 179.273,-0 L 179.273,-4 L 187.636,-4
 L 187.636,-0 L 196,-0 L 196,-4 L 204.364,-4 L 204.364,-0 L 212.727,-0
 L 212.727,-4 L 221.091,-4 L 221.091,-0 L 229.455,-0 L 229.455,-4 L 237.818,-4
 L 237.818,-0 L 246.182,-0 L 246.182,-4 L 254.545,-4 L 254.545,-0 L 262.909,-0
 L 262.909,-4 L 271.273,-4 L 271.273,-0 L 279.636,-0 L 279.636,-4 L 288,-4
 L 288,-0 L 300,-0 L 300,-12 L 296,-12 L 296,-20.6667 L 300,-20.6667
 L 300,-29.3333 L 296,-29.3333 L 296,-38 L 300,-38 L 300,-50 L 0,-50
 L 0,-38 L 3.99998,-38 L 3.99998,-29.3333 L 0,-29.3333 L 0,-20.6667 L 4,-20.6667
 L 4,-12 L 0,-12 L 0,-0 L 12,-0 z
M 148,-20 L 148,-38 L 152.01,-38 L 152.01,-20 z
M 224.749,-21.0079 L 224.25,-21.0708 L 223.764,-21.1958 L 223.297,-21.3807 L 222.857,-21.6227 L 222.45,-21.9179
 L 222.084,-22.2618 L 221.764,-22.6488 L 221.495,-23.073 L 221.281,-23.5275 L 221.126,-24.0052 L 221.032,-24.4987
 L 221,-25 L 221.032,-25.5013 L 221.126,-25.9948 L 221.281,-26.4725 L 221.495,-26.927 L 221.764,-27.3511
 L 222.084,-27.7382 L 222.45,-28.082 L 222.857,-28.3773 L 223.297,-28.6193 L 223.764,-28.8042 L 224.25,-28.9291
 L 224.749,-28.9921 L 225.251,-28.9921 L 225.75,-28.9291 L 226.236,-28.8042 L 226.703,-28.6193 L 227.143,-28.3773
 L 227.55,-28.082 L 227.916,-27.7382 L 228.236,-27.3511 L 228.505,-26.927 L 228.719,-26.4725 L 228.874,-25.9948
 L 228.968,-25.5013 L 229,-25 L 228.968,-24.4987 L 228.874,-24.0052 L 228.719,-23.5275 L 228.505,-23.073
 L 228.236,-22.6488 L 227.916,-22.2618 L 227.55,-21.9179 L 227.143,-21.6227 L 226.703,-21.3807 L 226.236,-21.1958
 L 225.75,-21.0708 L 225.251,-21.0079 z
M 274.749,-21.0079 L 274.25,-21.0708 L 273.764,-21.1958 L 273.297,-21.3807 L 272.857,-21.6227 L 272.45,-21.9179
 L 272.084,-22.2618 L 271.764,-22.6488 L 271.495,-23.073 L 271.281,-23.5275 L 271.126,-24.0052 L 271.032,-24.4987
 L 271,-25 L 271.032,-25.5013 L 271.126,-25.9948 L 271.281,-26.4725 L 271.495,-26.927 L 271.764,-27.3511
 L 272.084,-27.7382 L 272.45,-28.082 L 272.857,-28.3773 L 273.297,-28.6193 L 273.764,-28.8042 L 274.25,-28.9291
 L 274.749,-28.9921 L 275.251,-28.9921 L 275.75,-28.9291 L 276.236,-28.8042 L 276.703,-28.6193 L 277.143,-28.3773
 L 277.55,-28.082 L 277.916,-27.7382 L 278.236,-27.3511 L 278.505,-26.927 L 278.719,-26.4725 L 278.874,-25.9948
 L 278.968,-25.5013 L 279,-25 L 278.968,-24.4987 L 278.874,-24.0052 L 278.719,-23.5275 L 278.505,-23.073
 L 278.236,-22.6488 L 277.916,-22.2618 L 277.55,-21.9179 L 277.143,-21.6227 L 276.703,-21.3807 L 276.236,-21.1958
 L 275.75,-21.0708 L 275.251,-21.0079 z
M 74.7488,-21.0079 L 74.2505,-21.0708 L 73.7639,-21.1958 L 73.2969,-21.3807 L 72.8567,-21.6227 L 72.4503,-21.9179
 L 72.0841,-22.2618 L 71.7639,-22.6488 L 71.4948,-23.073 L 71.2809,-23.5275 L 71.1257,-24.0052 L 71.0315,-24.4987
 L 71,-25 L 71.0315,-25.5013 L 71.1257,-25.9948 L 71.2809,-26.4725 L 71.4948,-26.927 L 71.7639,-27.3511
 L 72.0841,-27.7382 L 72.4503,-28.082 L 72.8567,-28.3773 L 73.2969,-28.6193 L 73.7639,-28.8042 L 74.2505,-28.9291
 L 74.7488,-28.9921 L 75.2512,-28.9921 L 75.7495,-28.9291 L 76.2361,-28.8042 L 76.7031,-28.6193 L 77.1433,-28.3773
 L 77.5497,-28.082 L 77.9159,-27.7382 L 78.2361,-27.3511 L 78.5052,-26.927 L 78.7191,-26.4725 L 78.8743,-25.9948
 L 78.9684,-25.5013 L 79,-25 L 78.9684,-24.4987 L 78.8743,-24.0052 L 78.7191,-23.5275 L 78.5052,-23.073
 L 78.2361,-22.6488 L 77.9159,-22.2618 L 77.5497,-21.9179 L 77.1433,-21.6227 L 76.7031,-21.3807 L 76.2361,-21.1958
 L 75.7495,-21.0708 L 75.2512,-21.0079 z
M 24.7488,-21.0079 L 24.2505,-21.0708 L 23.7639,-21.1958 L 23.2969,-21.3807 L 22.8567,-21.6227 L 22.4503,-21.9179
 L 22.0841,-22.2618 L 21.7639,-22.6488 L 21.4948,-23.073 L 21.2809,-23.5275 L 21.1257,-24.0052 L 21.0315,-24.4987
 L 21,-25 L 21.0315,-25.5013 L 21.1257,-25.9948 L 21.2809,-26.4725 L 21.4948,-26.927 L 21.7639,-27.3511
 L 22.0841,-27.7382 L 22.4503,-28.082 L 22.8567,-28.3773 L 23.2969,-28.6193 L 23.7639,-28.8042 L 24.2505,-28.9291
 L 24.7488,-28.9921 L 25.2512,-28.9921 L 25.7495,-28.9291 L 26.2361,-28.8042 L 26.7031,-28.6193 L 27.1433,-28.3773
 L 27.5497,-28.082 L 27.9159,-27.7382 L 28.2361,-27.3511 L 28.5052,-26.927 L 28.7191,-26.4725 L 28.8743,-25.9948
 L 28.9684,-25.5013 L 29,-25 L 28.9684,-24.4987 L 28.8743,-24.0052 L 28.7191,-23.5275 L 28.5052,-23.073
 L 28.2361,-22.6488 L 27.9159,-22.2618 L 27.5497,-21.9179 L 27.1433,-21.6227 L 26.7031,-21.3807 L 26.2361,-21.1958
 L 25.7495,-21.0708 L 25.2512,-21.0079 z
M 312.01,-4 L 320.374,-4 L 320.374,-0 L 328.737,-0 L 328.737,-4 L 337.101,-4
 L 337.101,-0 L 345.465,-0 L 345.465,-4 L 353.828,-4 L 353.828,-0 L 362.192,-0
 L 362.192,-4 L 370.555,-4 L 370.555,-0 L 378.919,-0 L 378.919,-4 L 387.283,-4
 L 387.283,-0 L 395.646,-0 L 395.646,-4 L 404.01,-4 L 404.01,-0 L 412.374,-0
 L 412.374,-4 L 420.737,-4 L 420.737,-0 L 429.101,-0 L 429.101,-4 L 437.465,-4
 L 437.465,-0 L 445.828,-0 L 445.828,-4 L 454.192,-4 L 454.192,-0 L 462.555,-0
 L 462.555,-4 L 470.919,-4 L 470.919,-0 L 479.283,-0 L 479.283,-4 L 487.646,-4
 L 487.646,-0 L 496.01,-0 L 496.01,-4 L 504.374,-4 L 504.374,-0 L 512.737,-0
 L 512.737,-4 L 521.101,-4 L 521.101,-0 L 529.465,-0 L 529.465,-4 L 537.828,-4
 L 537.828,-0 L 546.192,-0 L 546.192,-4 L 554.555,-4 L 554.555,-0 L 562.919,-0
 L 562.919,-4 L 571.283,-4 L 571.283,-0 L 579.646,-0 L 579.646,-4 L 588.01,-4
 L 588.01,-0 L 600.01,-0 L 600.01,-12 L 596.01,-12 L 596.01,-20.6667 L 600.01,-20.6667
 L 600.01,-29.3333 L 596.01,-29.3333 L 596.01,-38 L 600.01,-38 L 600.01,-50 L 300.01,-50
 L 300.01,-38 L 304.01,-38 L 304.01,-29.3333 L 300.01,-29.3333 L 300.01,-20.6667 L 304.01,-20.6667
 L 304.01,-12 L 300.01,-12 L 300.01,-0 L 312.01,-0 z
M 448.01,-20 L 448.01,-38 L 452.02,-38 L 452.02,-20 z
M 374.759,-21.0079 L 374.26,-21.0708 L 373.774,-21.1958 L 373.307,-21.3807 L 372.867,-21.6227 L 372.46,-21.9179
 L 372.094,-22.2618 L 371.774,-22.6488 L 371.505,-23.073 L 371.291,-23.5275 L 371.136,-24.0052 L 371.042,-24.4987
 L 371.01,-25 L 371.042,-25.5013 L 371.136,-25.9948 L 371.291,-26.4725 L 371.505,-26.927 L 371.774,-27.3511
 L 372.094,-27.7382 L 372.46,-28.082 L 372.867,-28.3773 L 373.307,-28.6193 L 373.774,-28.8042 L 374.26,-28.9291
 L 374.759,-28.9921 L 375.261,-28.9921 L 375.76,-28.9291 L 376.246,-28.8042 L 376.713,-28.6193 L 377.153,-28.3773
 L 377.56,-28.082 L 377.926,-27.7382 L 378.246,-27.3511 L 378.515,-26.927 L 378.729,-26.4725 L 378.884,-25.9948
 L 378.978,-25.5013 L 379.01,-25 L 378.978,-24.4987 L 378.884,-24.0052 L 378.729,-23.5275 L 378.515,-23.073
 L 378.246,-22.6488 L 377.926,-22.2618 L 377.56,-21.9179 L 377.153,-21.6227 L 376.713,-21.3807 L 376.246,-21.1958
 L 375.76,-21.0708 L 375.261,-21.0079 z
M 574.759,-21.0079 L 574.26,-21.0708 L 573.774,-21.1958 L 573.307,-21.3807 L 572.867,-21.6227 L 572.46,-21.9179
 L 572.094,-22.2618 L 571.774,-22.6488 L 571.505,-23.073 L 571.291,-23.5275 L 571.136,-24.0052 L 571.042,-24.4987
 L 571.01,-25 L 571.042,-25.5013 L 571.136,-25.9948 L 571.291,-26.4725 L 571.505,-26.927 L 571.774,-27.3511
 L 572.094,-27.7382 L 572.46,-28.082 L 572.867,-28.3773 L 573.307,-28.6193 L 573.774,-28.8042 L 574.26,-28.9291
 L 574.759,-28.9921 L 575.261,-28.9921 L 575.76,-28.9291 L 576.246,-28.8042 L 576.713,-28.6193 L 577.153,-28.3773
 L 577.56,-28.082 L 577.926,-27.7382 L 578.246,-27.3511 L 578.515,-26.927 L 578.729,-26.4725 L 578.884,-25.9948
 L 578.978,-25.5013 L 579.01,-25 L 578.978,-24.4987 L 578.884,-24.0052 L 578.729,-23.5275 L 578.515,-23.073
 L 578.246,-22.6488 L 577.926,-22.2618 L 577.56,-21.9179 L 577.153,-21.6227 L 576.713,-21.3807 L 576.246,-21.1958
 L 575.76,-21.0708 L 575.261,-21.0079 z
M 524.759,-21.0079 L 524.26,-21.0708 L 523.774,-21.1958 L 523.307,-21.3807 L 522.867,-21.6227 L 522.46,-21.9179
 L 522.094,-22.2618 L 521.774,-22.6488 L 521.505,-23.073 L 521.291,-23.5275 L 521.136,-24.0052 L 521.042,-24.4987
 L 521.01,-25 L 521.042,-25.5013 L 521.136,-25.9948 L 521.291,-26.4725 L 521.505,-26.927 L 521.774,-27.3511
 L 522.094,-27.7382 L 522.46,-28.082 L 522.867,-28.3773 L 523.307,-28.6193 L 523.774,-28.8042 L 524.26,-28.9291
 L 524.759,-28.9921 L 525.261,-28.9921 L 525.76,-28.9291 L 526.246,-28.8042 L 526.713,-28.6193 L 527.153,-28.3773
 L 527.56,-28.082 L 527.926,-27.7382 L 528.246,-27.3511 L 528.515,-26.927 L 528.729,-26.4725 L 528.884,-25.9948
 L 528.978,-25.5013 L 529.01,-25 L 528.978,-24.4987 L 528.884,-24.0052 L 528.729,-23.5275 L 528.515,-23.073
 L 528.246,-22.6488 L 527.926,-22.2618 L 527.56,-21.9179 L 527.153,-21.6227 L 526.713,-21.3807 L 526.246,-21.1958
 L 525.76,-21.0708 L 525.261,-21.0079 z
M 324.759,-21.0079 L 324.26,-21.0708 L 323.774,-21.1958 L 323.307,-21.3807 L 322.867,-21.6227 L 322.46,-21.9179
 L 322.094,-22.2618 L 321.774,-22.6488 L 321.505,-23.073 L 321.291,-23.5275 L 321.136,-24.0052 L 321.042,-24.4987
 L 321.01,-25 L 321.042,-25.5013 L 321.136,-25.9948 L 321.291,-26.4725 L 321.505,-26.927 L 321.774,-27.3511
 L 322.094,-27.7382 L 322.46,-28.082 L 322.867,-28.3773 L 323.307,-28.6193 L 323.774,-28.8042 L 324.26,-28.9291
 L 324.759,-28.9921 L 325.261,-28.9921 L 325.76,-28.9291 L 326.246,-28.8042 L 326.713,-28.6193 L 327.153,-28.3773
 L 327.56,-28.082 L 327.926,-27.7382 L 328.246,-27.3511 L 328.515,-26.927 L 328.729,-26.4725 L 328.884,-25.9948
 L 328.978,-25.5013 L 329.01,-25 L 328.978,-24.4987 L 328.884,-24.0052 L 328.729,-23.5275 L 328.515,-23.073
 L 328.246,-22.6488 L 327.926,-22.2618 L 327.56,-21.9179 L 327.153,-21.6227 L 326.713,-21.3807 L 326.246,-21.1958
 L 325.76,-21.0708 L 325.261,-21.0079 z
" stroke="black" fill="lightgray" stroke-width="0.5"/>
</svg>
