<?xml version="1.0" standalone="no"?>
<!DOCTYPE svg PUBLIC "-//W3C//DTD SVG 1.1//EN" "http://www.w3.org/Graphics/SVG/1.1/DTD/svg11.dtd">
<svg width="621mm" height="211mm" viewBox="-10 -211 621 211" xmlns="http://www.w3.org/2000/svg" version="1.1">
<title>OpenSCAD Model</title>
<path d="
M 20.4,-64.01 L 28.8,-64.01 L 28.8,-60.01 L 37.2,-60.01 L 37.2,-64.01 L 45.6,-64.01
 L 45.6,-60.01 L 54,-60.01 L 54,-64.01 L 62.4,-64.01 L 62.4,-60.01 L 70.8,-60.01
 L 70.8,-64.01 L 79.2,-64.01 L 79.2,-60.01 L 87.6,-60.01 L 87.6,-64.01 L 96,-64.01
 L 96,-60.01 L 104.4,-60.01 L 104.4,-64.01 L 112.8,-64.01 L 112.8,-60.01 L 121.2,-60.01
 L 121.2,-64.01 L 129.6,-64.01 L 129.6,-60.01 L 138,-60.01 L 138,-64.01 L 146,-64.01
 L 146,-76.01 L 150,-76.01 L 150,-85.0869 L 146,-85.0869 L 146,-94.1638 L 150,-94.1638
 L 150,-103.241 L 146,-103.241 L 146,-112.318 L 150,-112.318 L 150,-121.395 L 146,-121.395
 L 146,-130.472 L 150,-130.472 L 150,-139.548 L 146,-139.548 L 146,-148.625 L 150,-148.625
 L 150,-157.702 L 146,-157.702 L 146,-166.779 L 150,-166.779 L 150,-175.856 L 146,-175.856
 L 146,-184.933 L 150,-184.933 L 150,-194.01 L 146,-194.01 L 146,-206.01 L 138,-206.01
 L 138,-210.01 L 129.6,-210.01 L 129.6,-206.01 L 121.2,-206.01 L 121.2,-210.01 L 112.8,-210.01
 L 112.8,-206.01 L 104.4,-206.01 L 104.4,-210.01 L 96,-210.01 L 96,-206.01 L 87.6,-206.01
 L 87.6,-210.01 L 79.2,-210.01 L 79.2,-206.01 L 70.8,-206.01 L 70.8,-210.01 L 62.4,-210.01
 L 62.4,-206.01 L 54,-206.01 L 54,-210.01 L 45.6,-210.01 L 45.6,-206.01 L 37.2,-206.01
 L 37.2,-210.01 L 28.8,-210.01 L 28.8,-206.01 L 20.4,-206.01 L 20.4,-210.01 L 12,-210.01
 L 12,-206.01 L 3.99998,-206.01 L 3.99998,-194.01 L 0,-194.01 L 0,-184.933 L 3.99998,-184.933
 L 3.99998,-175.856 L 0,-175.856 L 0,-166.779 L 3.99998,-166.779 L 3.99998,-157.702 L 0,-157.702
 L 0,-148.625 L 3.99998,-148.625 L 3.99998,-139.548 L 0,-139.548 L 0,-130.472 L 4,-130.472
 L 4,-121.395 L 0,-121.395 L 0,-112.318 L 4,-112.318 L 4,-103.241 L 0,-103.241
 L 0,-94.1638 L 4,-94.1638 L 4,-85.0869 L 0,-85.0869 L 0,-76.01 L 4,-76.01
 L 4,-64.01 L 12,-64.01 L 12,-60.01 L 20.4,-60.01 z
M 154.01,-64 L 162.01,-64 L 162.01,-60.01 L 300.01,-60.01 L 300.01,-210.01 L 162.01,-210.01
 L 162.01,-206.02 L 154.01,-206.02 L 154.01,-210.01 L 150.01,-210.01 L 150.01,-60.01 L 154.01,-60.01
 z
M 446.02,-80.01 L 450.02,-80.01 L 450.02,-98.01 L 446.02,-98.01 L 446.02,-110.01 L 304.02,-110.01
 L 304.02,-98.01 L 300.02,-98.01 L 300.02,-80.01 L 304.02,-80.01 L 304.02,-64.01 L 446.02,-64.01
 z
M 162.01,-4 L 170.41,-4 L 170.41,-0 L 178.81,-0 L 178.81,-4 L 187.21,-4
 L 187.21,-0 L 195.61,-0 L 195.61,-4 L 204.01,-4 L 204.01,-0 L 212.41,-0
 L 212.41,-4 L 220.81,-4 L 220.81,-0 L 229.21,-0 L 229.21,-4 L 237.61,-4
 L 237.61,-0 L 246.01,-0 L 246.01,-4 L 254.41,-4 L 254.41,-0 L 262.81,-0
 L 262.81,-4 L 271.21,-4 L 271.21,-0 L 279.61,-0 L 279.61,-4 L 288.01,-4
 L 288.01,-0 L 300.01,-0 L 300.01,-12 L 296.01,-12 L 296.01,-20.6667 L 300.01,-20.6667
 L 300.01,-29.3333 L 296.01,-29.3333 L 296.01,-38 L 300.01,-38 L 300.01,-40.0197 L 300.638,-40.0197
 L 301.884,-40.1771 L 303.1,-40.4894 L 304.268,-40.9517 L 305.368,-41.5567 L 306.384,-42.2949 L 307.3,-43.1545
 L 308.1,-44.1221 L 308.773,-45.1824 L 309.308,-46.3187 L 309.696,-47.5131 L 309.931,-48.7467 L 310.01,-50
 L 309.931,-51.2533 L 309.696,-52.4869 L 309.308,-53.6812 L 308.773,-54.8175 L 308.1,-55.8778 L 307.3,-56.8455
 L 306.384,-57.7051 L 305.368,-58.4433 L 304.268,-59.0483 L 303.1,-59.5106 L 301.884,-59.8229 L 300.638,-59.9803
 L 299.382,-59.9803 L 298.136,-59.8229 L 296.92,-59.5106 L 295.752,-59.0483 L 294.652,-58.4433 L 293.636,-57.7051
 L 292.72,-56.8455 L 291.92,-55.8778 L 291.247,-54.8175 L 290.712,-53.6812 L 290.324,-52.4869 L 290.089,-51.2533
 L 290.01,-50 L 150.01,-50 L 150.01,-38 L 154.01,-38 L 154.01,-29.3333 L 150.01,-29.3333
 L 150.01,-20.6667 L 154.01,-20.6667 L 154.01,-12 L 150.01,-12 L 150.01,-0 L 162.01,-0
 z
M 299.57,-43.0138 L 298.698,-43.124 L 297.847,-43.3426 L 297.03,-43.6662 L 296.259,-44.0897 L 295.548,-44.6064
 L 294.907,-45.2082 L 294.347,-45.8855 L 293.876,-46.6277 L 293.502,-47.4231 L 293.23,-48.2592 L 293.065,-49.1227
 L 293.01,-50 L 293.065,-50.8773 L 293.23,-51.7408 L 293.502,-52.5769 L 293.876,-53.3723 L 294.347,-54.1145
 L 294.907,-54.7918 L 295.548,-55.3936 L 296.259,-55.9103 L 297.03,-56.3338 L 297.847,-56.6574 L 298.698,-56.876
 L 299.57,-56.9862 L 300.45,-56.9862 L 301.322,-56.876 L 302.173,-56.6574 L 302.99,-56.3338 L 303.761,-55.9103
 L 304.472,-55.3936 L 305.113,-54.7918 L 305.673,-54.1145 L 306.144,-53.3723 L 306.518,-52.5769 L 306.79,-51.7408
 L 306.955,-50.8773 L 307.01,-50 L 306.955,-49.1227 L 306.79,-48.2592 L 306.518,-47.4231 L 306.144,-46.6277
 L 305.673,-45.8855 L 305.113,-45.2082 L 304.472,-44.6064 L 303.761,-44.0897 L 302.99,-43.6662 L 302.173,-43.3426
 L 301.322,-43.124 L 300.45,-43.0138 z
M 304.01,-54 L 300.01,-54 L 300.01,-50 L 304.01,-50 z
M 174.759,-21.0079 L 174.26,-21.0708 L 173.774,-21.1958 L 173.307,-21.3807 L 172.867,-21.6227 L 172.46,-21.9179
 L 172.094,-22.2618 L 171.774,-22.6488 L 171.505,-23.073 L 171.291,-23.5275 L 171.136,-24.0052 L 171.042,-24.4987
 L 171.01,-25 L 171.042,-25.5013 L 171.136,-25.9948 L 171.291,-26.4725 L 171.505,-26.927 L 171.774,-27.3511
 L 172.094,-27.7382 L 172.46,-28.082 L 172.867,-28.3773 L 173.307,-28.6193 L 173.774,-28.8042 L 174.26,-28.9291
 L 174.759,-28.9921 L 175.261,-28.9921 L 175.76,-28.9291 L 176.246,-28.8042 L 176.713,-28.6193 L 177.153,-28.3773
 L 177.56,-28.082 L 177.926,-27.7382 L 178.246,-27.3511 L 178.515,-26.927 L 178.729,-26.4725 L 178.884,-25.9948
 L 178.978,-25.5013 L 179.01,-25 L 178.978,-24.4987 L 178.884,-24.0052 L 178.729,-23.5275 L 178.515,-23.073
 L 178.246,-22.6488 L 177.926,-22.2618 L 177.56,-21.9179 L 177.153,-21.6227 L 176.713,-21.3807 L 176.246,-21.1958
 L 175.76,-21.0708 L 175.261,-21.0079 z
M 224.759,-21.0079 L 224.26,-21.0708 L 223.774,-21.1958 L 223.307,-21.3807 L 222.867,-21.6227 L 222.46,-21.9179
 L 222.094,-22.2618 L 221.774,-22.6488 L 221.505,-23.073 L 221.291,-23.5275 L 221.136,-24.0052 L 221.042,-24.4987
 L 221.01,-25 L 221.042,-25.5013 L 221.136,-25.9948 L 221.291,-26.4725 L 221.505,-26.927 L 221.774,-27.3511
 L 222.094,-27.7382 L 222.46,-28.082 L 222.867,-28.3773 L 223.307,-28.6193 L 223.774,-28.8042 L 224.26,-28.9291
 L 224.759,-28.9921 L 225.261,-28.9921 L 225.76,-28.9291 L 226.246,-28.8042 L 226.713,-28.6193 L 227.153,-28.3773
 L 227.56,-28.082 L 227.926,-27.7382 L 228.246,-27.3511 L 228.515,-26.927 L 228.729,-26.4725 L 228.884,-25.9948
 L 228.978,-25.5013 L 229.01,-25 L 228.978,-24.4987 L 228.884,-24.0052 L 228.729,-23.5275 L 228.515,-23.073
 L 228.246,-22.6488 L 227.926,-22.2618 L 227.56,-21.9179 L 227.153,-21.6227 L 226.713,-21.3807 L 226.246,-21.1958
 L 225.76,-21.0708 L 225.261,-21.0079 z
M 12,-4 L 20.4,-4 L 20.4,-0 L 28.8,-0 L 28.8,-4 L 37.2,-4
 L 37.2,-0 L 45.6,-0 L 45.6,-4 L 54,-4 L 54,-0 L 62.4,-0
 L 62.4,-4 L 70.8,-4 L 70.8,-0 L 79.2,-0 L 79.2,-4 L 87.6,-4
 L 87.6,-0 L 96,-0 L 96,-4 L 104.4,-4 L 104.4,-0 L 112.8,-0
 L 112.8,-4 L 121.2,-4 L 121.2,-0 L 129.6,-0 L 129.6,-4 L 138,-4
 L 138,-0 L 150,-0 L 150,-12 L 146,-12 L 146,-20.6667 L 150,-20.6667
 L 150,-29.3333 L 146,-29.3333 L 146,-38 L 150,-38 L 150,-50 L 10,-50
 L 9.92114,-51.2533 L 9.68582,-52.4869 L 9.29776,-53.6812 L 8.76306,-54.8175 L 8.09016,-55.8778 L 7.28967,-56.8455
 L 6.37424,-57.7051 L 5.35826,-58.4433 L 4.25778,-59.0483 L 3.09016,-59.5106 L 1.87381,-59.8229 L 0.627899,-59.9803
 L -0.627899,-59.9803 L -1.87381,-59.8229 L -3.09016,-59.5106 L -4.25778,-59.0483 L -5.35826,-58.4433 L -6.37424,-57.7051
 L -7.28967,-56.8455 L -8.09016,-55.8778 L -8.76306,-54.8175 L -9.29776,-53.6812 L -9.68582,-52.4869 L -9.92114,-51.2533
 L -10,-50 L -9.92114,-48.7467 L -9.68582,-47.5131 L -9.29776,-46.3187 L -8.76306,-45.1824 L -8.09016,-44.1221
 L -7.28967,-43.1545 L -6.37424,-42.2949 L -5.35826,-41.5567 L -4.25778,-40.9517 L -3.09016,-40.4894 L -1.87381,-40.1771
 L -0.627899,-40.0197 L 0,-40.0197 L 0,-38 L 3.99998,-38 L 3.99998,-29.3333 L 0,-29.3333
 L 0,-20.6667 L 4,-20.6667 L 4,-12 L 0,-12 L 0,-0 L 12,-0
 z
M -0.439529,-43.0138 L -1.31166,-43.124 L -2.16312,-43.3426 L -2.98045,-43.6662 L -3.75078,-44.0897 L -4.46196,-44.6064
 L -5.10277,-45.2082 L -5.66312,-45.8855 L -6.13414,-46.6277 L -6.50842,-47.4231 L -6.78008,-48.2592 L -6.94479,-49.1227
 L -7,-50 L -6.94479,-50.8773 L -6.78008,-51.7408 L -6.50842,-52.5769 L -6.13414,-53.3723 L -5.66312,-54.1145
 L -5.10277,-54.7918 L -4.46196,-55.3936 L -3.75078,-55.9103 L -2.98045,-56.3338 L -2.16312,-56.6574 L -1.31166,-56.876
 L -0.439529,-56.9862 L 0.439529,-56.9862 L 1.31166,-56.876 L 2.16312,-56.6574 L 2.98045,-56.3338 L 3.75078,-55.9103
 L 4.46196,-55.3936 L 5.10277,-54.7918 L 5.66312,-54.1145 L 6.13414,-53.3723 L 6.50842,-52.5769 L 6.78008,-51.7408
 L 6.94479,-50.8773 L 7,-50 L 6.94479,-49.1227 L 6.78008,-48.2592 L 6.50842,-47.4231 L 6.13414,-46.6277
 L 5.66312,-45.8855 L 5.10277,-45.2082 L 4.46196,-44.6064 L 3.75078,-44.0897 L 2.98045,-43.6662 L 2.16312,-43.3426
 L 1.31166,-43.124 L 0.439529,-43.0138 z
M 4,-54 L 0,-54 L 0,-50 L 4,-50 z
M 74.7488,-21.0079 L 74.2505,-21.0708 L 73.7639,-21.1958 L 73.2969,-21.3807 L 72.8567,-21.6227 L 72.4503,-21.9179
 L 72.0841,-22.2618 L 71.7639,-22.6488 L 71.4948,-23.073 L 71.2809,-23.5275 L 71.1257,-24.0052 L 71.0315,-24.4987
 L 71,-25 L 71.0315,-25.5013 L 71.1257,-25.9948 L 71.2809,-26.4725 L 71.4948,-26.927 L 71.7639,-27.3511
 L 72.0841,-27.7382 L 72.4503,-28.082 L 72.8567,-28.3773 L 73.2969,-28.6193 L 73.7639,-28.8042 L 74.2505,-28.9291
 L 74.7488,-28.9921 L 75.2512,-28.9921 L 75.7495,-28.9291 L 76.2361,-28.8042 L 76.7031,-28.6193 L 77.1433,-28.3773
 L 77.5497,-28.082 L 77.9159,-27.7382 L 78.2361,-27.3511 L 78.5052,-26.927 L 78.7191,-26.4725 L 78.8743,-25.9948
 L 78.9684,-25.5013 L 79,-25 L 78.9684,-24.4987 L 78.8743,-24.0052 L 78.7191,-23.5275 L 78.5052,-23.073
 L 78.2361,-22.6488 L 77.9159,-22.2618 L 77.5497,-21.9179 L 77.1433,-21.6227 L 76.7031,-21.3807 L 76.2361,-21.1958
 L 75.7495,-21.0708 L 75.2512,-21.0079 z
M 124.749,-21.0079 L 124.25,-21.0708 L 123.764,-21.1958 L 123.297,-21.3807 L 122.857,-21.6227 L 122.45,-21.9179
 L 122.084,-22.2618 L 121.764,-22.6488 L 121.495,-23.073 L 121.281,-23.5275 L 121.126,-24.0052 L 121.032,-24.4987
 L 121,-25 L 121.032,-25.5013 L 121.126,-25.9948 L 121.281,-26.4725 L 121.495,-26.927 L 121.764,-27.3511
 L 122.084,-27.7382 L 122.45,-28.082 L 122.857,-28.3773 L 123.297,-28.6193 L 123.764,-28.8042 L 124.25,-28.9291
 L 124.749,-28.9921 L 125.251,-28.9921 L 125.75,-28.9291 L 126.236,-28.8042 L 126.703,-28.6193 L 127.143,-28.3773
 L 127.55,-28.082 L 127.916,-27.7382 L 128.236,-27.3511 L 128.505,-26.927 L 128.719,-26.4725 L 128.874,-25.9948
 L 128.968,-25.5013 L 129,-25 L 128.968,-24.4987 L 128.874,-24.0052 L 128.719,-23.5275 L 128.505,-23.073
 L 128.236,-22.6488 L 127.916,-22.2618 L 127.55,-21.9179 L 127.143,-21.6227 L 126.703,-21.3807 L 126.236,-21.1958
 L 125.75,-21.0708 L 125.251,-21.0079 z
M 326.02,-4 L 335.097,-4 L 335.097,-0 L 344.174,-0 L 344.174,-4 L 353.251,-4
 L 353.251,-0 L 362.328,-0 L 362.328,-4 L 371.405,-4 L 371.405,-0 L 380.482,-0
 L 380.482,-4 L 389.558,-4 L 389.558,-0 L 398.635,-0 L 398.635,-4 L 407.712,-4
 L 407.712,-0 L 416.789,-0 L 416.789,-4 L 425.866,-4 L 425.866,-0 L 434.943,-0
 L 434.943,-4 L 444.02,-4 L 444.02,-0 L 456.02,-0 L 456.02,-12 L 460.02,-12
 L 460.02,-20.6667 L 456.02,-20.6667 L 456.02,-29.3333 L 460.02,-29.3333 L 460.02,-38 L 456.02,-38
 L 456.02,-50 L 314.02,-50 L 314.02,-38 L 310.02,-38 L 310.02,-29.3333 L 314.02,-29.3333
 L 314.02,-20.6667 L 310.02,-20.6667 L 310.02,-12 L 314.02,-12 L 314.02,-0 L 326.02,-0
 z
M 383.02,-20 L 383.02,-38 L 387.03,-38 L 387.03,-20 z
M 476.03,-4 L 485.107,-4 L 485.107,-0 L 494.184,-0 L 494.184,-4 L 503.261,-4
 L 503.261,-0 L 512.338,-0 L 512.338,-4 L 521.415,-4 L 521.415,-0 L 530.492,-0
 L 530.492,-4 L 539.568,-4 L 539.568,-0 L 548.645,-0 L 548.645,-4 L 557.722,-4
 L 557.722,-0 L 566.799,-0 L 566.799,-4 L 575.876,-4 L 575.876,-0 L 584.953,-0
 L 584.953,-4 L 594.03,-4 L 594.03,-0 L 606.03,-0 L 606.03,-12 L 610.03,-12
 L 610.03,-20.6667 L 606.03,-20.6667 L 606.03,-29.3333 L 610.03,-29.3333 L 610.03,-38 L 606.03,-38
 L 606.03,-50 L 464.03,-50 L 464.03,-38 L 460.03,-38 L 460.03,-29.3333 L 464.03,-29.3333
 L 464.03,-20.6667 L 460.03,-20.6667 L 460.03,-12 L 464.03,-12 L 464.03,-0 L 476.03,-0
 z
M 533.03,-20 L 533.03,-38 L 537.04,-38 L 537.04,-20 z
" stroke="black" fill="lightgray" stroke-width="0.5"/>
</svg>
