<?xml version="1.0" standalone="no"?>
<!DOCTYPE svg PUBLIC "-//W3C//DTD SVG 1.1//EN" "http://www.w3.org/Graphics/SVG/1.1/DTD/svg11.dtd">
<svg width="601mm" height="201mm" viewBox="0 -201 601 201" xmlns="http://www.w3.org/2000/svg" version="1.1">
<title>OpenSCAD Model</title>
<path d="
M 20.4,-54.01 L 28.8,-54.01 L 28.8,-50.01 L 37.2,-50.01 L 37.2,-54.01 L 45.6,-54.01
 L 45.6,-50.01 L 54,-50.01 L 54,-54.01 L 62.4,-54.01 L 62.4,-50.01 L 70.8,-50.01
 L 70.8,-54.01 L 79.2,-54.01 L 79.2,-50.01 L 87.6,-50.01 L 87.6,-54.01 L 96,-54.01
 L 96,-50.01 L 104.4,-50.01 L 104.4,-54.01 L 112.8,-54.01 L 112.8,-50.01 L 121.2,-50.01
 L 121.2,-54.01 L 129.6,-54.01 L 129.6,-50.01 L 138,-50.01 L 138,-54.01 L 146,-54.01
 L 146,-66.01 L 150,-66.01 L 150,-75.0869 L 146,-75.0869 L 146,-84.1638 L 150,-84.1638
 L 150,-93.2408 L 146,-93.2408 L 146,-102.318 L 150,-102.318 L 150,-111.395 L 146,-111.395
 L 146,-120.472 L 150,-120.472 L 150,-129.548 L 146,-129.548 L 146,-138.625 L 150,-138.625
 L 150,-147.702 L 146,-147.702 L 146,-156.779 L 150,-156.779 L 150,-165.856 L 146,-165.856
 L 146,-174.933 L 150,-174.933 L 150,-184.01 L 146,-184.01 L 146,-196.01 L 138,-196.01
 L 138,-200.01 L 129.6,-200.01 L 129.6,-196.01 L 121.2,-196.01 L 121.2,-200.01 L 112.8,-200.01
 L 112.8,-196.01 L 104.4,-196.01 L 104.4,-200.01 L 96,-200.01 L 96,-196.01 L 87.6,-196.01
 L 87.6,-200.01 L 79.2,-200.01 L 79.2,-196.01 L 70.8,-196.01 L 70.8,-200.01 L 62.4,-200.01
 L 62.4,-196.01 L 54,-196.01 L 54,-200.01 L 45.6,-200.01 L 45.6,-196.01 L 37.2,-196.01
 L 37.2,-200.01 L 28.8,-200.01 L 28.8,-196.01 L 20.4,-196.01 L 20.4,-200.01 L 12,-200.01
 L 12,-196.01 L 3.99998,-196.01 L 3.99998,-184.01 L 0,-184.01 L 0,-174.933 L 3.99998,-174.933
 L 3.99998,-165.856 L 0,-165.856 L 0,-156.779 L 3.99998,-156.779 L 3.99998,-147.702 L 0,-147.702
 L 0,-138.625 L 3.99998,-138.625 L 3.99998,-129.548 L 0,-129.548 L 0,-120.472 L 4,-120.472
 L 4,-111.395 L 0,-111.395 L 0,-102.318 L 4,-102.318 L 4,-93.2408 L 0,-93.2408
 L 0,-84.1638 L 4,-84.1638 L 4,-75.0869 L 0,-75.0869 L 0,-66.01 L 4,-66.01
 L 4,-54.01 L 12,-54.01 L 12,-50.01 L 20.4,-50.01 z
M 446.02,-70.01 L 450.02,-70.01 L 450.02,-88.01 L 446.02,-88.01 L 446.02,-100.01 L 304.02,-100.01
 L 304.02,-88.01 L 300.02,-88.01 L 300.02,-70.01 L 304.02,-70.01 L 304.02,-54.01 L 446.02,-54.01
 z
M 296.01,-70.01 L 300.01,-70.01 L 300.01,-88.01 L 296.01,-88.01 L 296.01,-100.01 L 154.01,-100.01
 L 154.01,-88.01 L 150.01,-88.01 L 150.01,-70.01 L 154.01,-70.01 L 154.01,-54.01 L 296.01,-54.01
 z
M 162.01,-4 L 170.41,-4 L 170.41,-0 L 178.81,-0 L 178.81,-4 L 187.21,-4
 L 187.21,-0 L 195.61,-0 L 195.61,-4 L 204.01,-4 L 204.01,-0 L 212.41,-0
 L 212.41,-4 L 220.81,-4 L 220.81,-0 L 229.21,-0 L 229.21,-4 L 237.61,-4
 L 237.61,-0 L 246.01,-0 L 246.01,-4 L 254.41,-4 L 254.41,-0 L 262.81,-0
 L 262.81,-4 L 271.21,-4 L 271.21,-0 L 279.61,-0 L 279.61,-4 L 288.01,-4
 L 288.01,-0 L 300.01,-0 L 300.01,-12 L 296.01,-12 L 296.01,-20.6667 L 300.01,-20.6667
 L 300.01,-29.3333 L 296.01,-29.3333 L 296.01,-38 L 300.01,-38 L 300.01,-50 L 150.01,-50
 L 150.01,-38 L 154.01,-38 L 154.01,-29.3333 L 150.01,-29.3333 L 150.01,-20.6667 L 154.01,-20.6667
 L 154.01,-12 L 150.01,-12 L 150.01,-0 L 162.01,-0 z
M 174.916,-23.5029 L 174.729,-23.5266 L 174.546,-23.5734 L 174.371,-23.6427 L 174.206,-23.7335 L 174.054,-23.8442
 L 173.917,-23.9732 L 173.796,-24.1183 L 173.696,-24.2774 L 173.615,-24.4478 L 173.557,-24.627 L 173.522,-24.812
 L 173.51,-25 L 173.522,-25.188 L 173.557,-25.373 L 173.615,-25.5522 L 173.696,-25.7226 L 173.796,-25.8817
 L 173.917,-26.0268 L 174.054,-26.1558 L 174.206,-26.2665 L 174.371,-26.3572 L 174.546,-26.4266 L 174.729,-26.4734
 L 174.916,-26.497 L 175.104,-26.497 L 175.291,-26.4734 L 175.474,-26.4266 L 175.649,-26.3572 L 175.814,-26.2665
 L 175.966,-26.1558 L 176.103,-26.0268 L 176.224,-25.8817 L 176.324,-25.7226 L 176.405,-25.5522 L 176.463,-25.373
 L 176.498,-25.188 L 176.51,-25 L 176.498,-24.812 L 176.463,-24.627 L 176.405,-24.4478 L 176.324,-24.2774
 L 176.224,-24.1183 L 176.103,-23.9732 L 175.966,-23.8442 L 175.814,-23.7335 L 175.649,-23.6427 L 175.474,-23.5734
 L 175.291,-23.5266 L 175.104,-23.5029 z
M 224.916,-23.5029 L 224.729,-23.5266 L 224.546,-23.5734 L 224.371,-23.6427 L 224.206,-23.7335 L 224.054,-23.8442
 L 223.917,-23.9732 L 223.796,-24.1183 L 223.696,-24.2774 L 223.615,-24.4478 L 223.557,-24.627 L 223.522,-24.812
 L 223.51,-25 L 223.522,-25.188 L 223.557,-25.373 L 223.615,-25.5522 L 223.696,-25.7226 L 223.796,-25.8817
 L 223.917,-26.0268 L 224.054,-26.1558 L 224.206,-26.2665 L 224.371,-26.3572 L 224.546,-26.4266 L 224.729,-26.4734
 L 224.916,-26.497 L 225.104,-26.497 L 225.291,-26.4734 L 225.474,-26.4266 L 225.649,-26.3572 L 225.814,-26.2665
 L 225.966,-26.1558 L 226.103,-26.0268 L 226.224,-25.8817 L 226.324,-25.7226 L 226.405,-25.5522 L 226.463,-25.373
 L 226.498,-25.188 L 226.51,-25 L 226.498,-24.812 L 226.463,-24.627 L 226.405,-24.4478 L 226.324,-24.2774
 L 226.224,-24.1183 L 226.103,-23.9732 L 225.966,-23.8442 L 225.814,-23.7335 L 225.649,-23.6427 L 225.474,-23.5734
 L 225.291,-23.5266 L 225.104,-23.5029 z
M 274.916,-23.5029 L 274.729,-23.5266 L 274.546,-23.5734 L 274.371,-23.6427 L 274.206,-23.7335 L 274.054,-23.8442
 L 273.917,-23.9732 L 273.796,-24.1183 L 273.696,-24.2774 L 273.615,-24.4478 L 273.557,-24.627 L 273.522,-24.812
 L 273.51,-25 L 273.522,-25.188 L 273.557,-25.373 L 273.615,-25.5522 L 273.696,-25.7226 L 273.796,-25.8817
 L 273.917,-26.0268 L 274.054,-26.1558 L 274.206,-26.2665 L 274.371,-26.3572 L 274.546,-26.4266 L 274.729,-26.4734
 L 274.916,-26.497 L 275.104,-26.497 L 275.291,-26.4734 L 275.474,-26.4266 L 275.649,-26.3572 L 275.814,-26.2665
 L 275.966,-26.1558 L 276.103,-26.0268 L 276.224,-25.8817 L 276.324,-25.7226 L 276.405,-25.5522 L 276.463,-25.373
 L 276.498,-25.188 L 276.51,-25 L 276.498,-24.812 L 276.463,-24.627 L 276.405,-24.4478 L 276.324,-24.2774
 L 276.224,-24.1183 L 276.103,-23.9732 L 275.966,-23.8442 L 275.814,-23.7335 L 275.649,-23.6427 L 275.474,-23.5734
 L 275.291,-23.5266 L 275.104,-23.5029 z
M 316.02,-4 L 325.097,-4 L 325.097,-0 L 334.174,-0 L 334.174,-4 L 343.251,-4
 L 343.251,-0 L 352.328,-0 L 352.328,-4 L 361.405,-4 L 361.405,-0 L 370.482,-0
 L 370.482,-4 L 379.558,-4 L 379.558,-0 L 388.635,-0 L 388.635,-4 L 397.712,-4
 L 397.712,-0 L 406.789,-0 L 406.789,-4 L 415.866,-4 L 415.866,-0 L 424.943,-0
 L 424.943,-4 L 434.02,-4 L 434.02,-0 L 446.02,-0 L 446.02,-12 L 450.02,-12
 L 450.02,-20.6667 L 446.02,-20.6667 L 446.02,-29.3333 L 450.02,-29.3333 L 450.02,-38 L 446.02,-38
 L 446.02,-50 L 304.02,-50 L 304.02,-38 L 300.02,-38 L 300.02,-29.3333 L 304.02,-29.3333
 L 304.02,-20.6667 L 300.02,-20.6667 L 300.02,-12 L 304.02,-12 L 304.02,-0 L 316.02,-0
 z
M 398.02,-20 L 398.02,-38 L 402.03,-38 L 402.03,-20 z
M 348.02,-20 L 348.02,-38 L 352.03,-38 L 352.03,-20 z
M 466.03,-4 L 475.107,-4 L 475.107,-0 L 484.184,-0 L 484.184,-4 L 493.261,-4
 L 493.261,-0 L 502.338,-0 L 502.338,-4 L 511.415,-4 L 511.415,-0 L 520.492,-0
 L 520.492,-4 L 529.568,-4 L 529.568,-0 L 538.645,-0 L 538.645,-4 L 547.722,-4
 L 547.722,-0 L 556.799,-0 L 556.799,-4 L 565.876,-4 L 565.876,-0 L 574.953,-0
 L 574.953,-4 L 584.03,-4 L 584.03,-0 L 596.03,-0 L 596.03,-12 L 600.03,-12
 L 600.03,-20.6667 L 596.03,-20.6667 L 596.03,-29.3333 L 600.03,-29.3333 L 600.03,-38 L 596.03,-38
 L 596.03,-50 L 454.03,-50 L 454.03,-38 L 450.03,-38 L 450.03,-29.3333 L 454.03,-29.3333
 L 454.03,-20.6667 L 450.03,-20.6667 L 450.03,-12 L 454.03,-12 L 454.03,-0 L 466.03,-0
 z
M 498.03,-20 L 498.03,-38 L 502.04,-38 L 502.04,-20 z
M 548.03,-20 L 548.03,-38 L 552.04,-38 L 552.04,-20 z
M 12,-4 L 20.4,-4 L 20.4,-0 L 28.8,-0 L 28.8,-4 L 37.2,-4
 L 37.2,-0 L 45.6,-0 L 45.6,-4 L 54,-4 L 54,-0 L 62.4,-0
 L 62.4,-4 L 70.8,-4 L 70.8,-0 L 79.2,-0 L 79.2,-4 L 87.6,-4
 L 87.6,-0 L 96,-0 L 96,-4 L 104.4,-4 L 104.4,-0 L 112.8,-0
 L 112.8,-4 L 121.2,-4 L 121.2,-0 L 129.6,-0 L 129.6,-4 L 138,-4
 L 138,-0 L 150,-0 L 150,-12 L 146,-12 L 146,-20.6667 L 150,-20.6667
 L 150,-29.3333 L 146,-29.3333 L 146,-38 L 150,-38 L 150,-50 L 0,-50
 L 0,-38 L 3.99998,-38 L 3.99998,-29.3333 L 0,-29.3333 L 0,-20.6667 L 4,-20.6667
 L 4,-12 L 0,-12 L 0,-0 L 12,-0 z
M 124.906,-23.5029 L 124.719,-23.5266 L 124.536,-23.5734 L 124.361,-23.6427 L 124.196,-23.7335 L 124.044,-23.8442
 L 123.907,-23.9732 L 123.786,-24.1183 L 123.686,-24.2774 L 123.605,-24.4478 L 123.547,-24.627 L 123.512,-24.812
 L 123.5,-25 L 123.512,-25.188 L 123.547,-25.373 L 123.605,-25.5522 L 123.686,-25.7226 L 123.786,-25.8817
 L 123.907,-26.0268 L 124.044,-26.1558 L 124.196,-26.2665 L 124.361,-26.3572 L 124.536,-26.4266 L 124.719,-26.4734
 L 124.906,-26.497 L 125.094,-26.497 L 125.281,-26.4734 L 125.464,-26.4266 L 125.639,-26.3572 L 125.804,-26.2665
 L 125.956,-26.1558 L 126.093,-26.0268 L 126.214,-25.8817 L 126.314,-25.7226 L 126.395,-25.5522 L 126.453,-25.373
 L 126.488,-25.188 L 126.5,-25 L 126.488,-24.812 L 126.453,-24.627 L 126.395,-24.4478 L 126.314,-24.2774
 L 126.214,-24.1183 L 126.093,-23.9732 L 125.956,-23.8442 L 125.804,-23.7335 L 125.639,-23.6427 L 125.464,-23.5734
 L 125.281,-23.5266 L 125.094,-23.5029 z
M 24.9058,-23.5029 L 24.7189,-23.5266 L 24.5365,-23.5734 L 24.3613,-23.6427 L 24.1963,-23.7335 L 24.0439,-23.8442
 L 23.9065,-23.9732 L 23.7865,-24.1183 L 23.6855,-24.2774 L 23.6053,-24.4478 L 23.5471,-24.627 L 23.5118,-24.812
 L 23.5,-25 L 23.5118,-25.188 L 23.5471,-25.373 L 23.6053,-25.5522 L 23.6855,-25.7226 L 23.7865,-25.8817
 L 23.9065,-26.0268 L 24.0439,-26.1558 L 24.1963,-26.2665 L 24.3613,-26.3572 L 24.5365,-26.4266 L 24.7189,-26.4734
 L 24.9058,-26.497 L 25.0942,-26.497 L 25.2811,-26.4734 L 25.4635,-26.4266 L 25.6387,-26.3572 L 25.8037,-26.2665
 L 25.9561,-26.1558 L 26.0934,-26.0268 L 26.2135,-25.8817 L 26.3145,-25.7226 L 26.3947,-25.5522 L 26.4529,-25.373
 L 26.4882,-25.188 L 26.5,-25 L 26.4882,-24.812 L 26.4529,-24.627 L 26.3947,-24.4478 L 26.3145,-24.2774
 L 26.2135,-24.1183 L 26.0934,-23.9732 L 25.9561,-23.8442 L 25.8037,-23.7335 L 25.6387,-23.6427 L 25.4635,-23.5734
 L 25.2811,-23.5266 L 25.0942,-23.5029 z
M 74.9058,-23.5029 L 74.7189,-23.5266 L 74.5365,-23.5734 L 74.3613,-23.6427 L 74.1963,-23.7335 L 74.0439,-23.8442
 L 73.9065,-23.9732 L 73.7865,-24.1183 L 73.6855,-24.2774 L 73.6053,-24.4478 L 73.5471,-24.627 L 73.5118,-24.812
 L 73.5,-25 L 73.5118,-25.188 L 73.5471,-25.373 L 73.6053,-25.5522 L 73.6855,-25.7226 L 73.7865,-25.8817
 L 73.9065,-26.0268 L 74.0439,-26.1558 L 74.1963,-26.2665 L 74.3613,-26.3572 L 74.5365,-26.4266 L 74.7189,-26.4734
 L 74.9058,-26.497 L 75.0942,-26.497 L 75.2811,-26.4734 L 75.4635,-26.4266 L 75.6387,-26.3572 L 75.8037,-26.2665
 L 75.9561,-26.1558 L 76.0934,-26.0268 L 76.2135,-25.8817 L 76.3145,-25.7226 L 76.3947,-25.5522 L 76.4529,-25.373
 L 76.4882,-25.188 L 76.5,-25 L 76.4882,-24.812 L 76.4529,-24.627 L 76.3947,-24.4478 L 76.3145,-24.2774
 L 76.2135,-24.1183 L 76.0934,-23.9732 L 75.9561,-23.8442 L 75.8037,-23.7335 L 75.6387,-23.6427 L 75.4635,-23.5734
 L 75.2811,-23.5266 L 75.0942,-23.5029 z
" stroke="black" fill="lightgray" stroke-width="0.5"/>
</svg>
